G75*
G70*
%OFA0B0*%
%FSLAX24Y24*%
%IPPOS*%
%LPD*%
%AMOC8*
5,1,8,0,0,1.08239X$1,22.5*
%
%ADD10C,0.0000*%
D10*
X000100Y000141D02*
X000100Y014806D01*
X014569Y014806D01*
X014569Y000141D01*
X000100Y000141D01*
X002860Y001956D02*
X002862Y002012D01*
X002868Y002067D01*
X002878Y002121D01*
X002891Y002175D01*
X002909Y002228D01*
X002930Y002279D01*
X002954Y002329D01*
X002982Y002377D01*
X003014Y002423D01*
X003048Y002467D01*
X003086Y002508D01*
X003126Y002546D01*
X003169Y002581D01*
X003214Y002613D01*
X003262Y002642D01*
X003311Y002668D01*
X003362Y002690D01*
X003414Y002708D01*
X003468Y002722D01*
X003523Y002733D01*
X003578Y002740D01*
X003633Y002743D01*
X003689Y002742D01*
X003744Y002737D01*
X003799Y002728D01*
X003853Y002716D01*
X003906Y002699D01*
X003958Y002679D01*
X004008Y002655D01*
X004056Y002628D01*
X004103Y002598D01*
X004147Y002564D01*
X004189Y002527D01*
X004227Y002487D01*
X004264Y002445D01*
X004297Y002400D01*
X004326Y002354D01*
X004353Y002305D01*
X004375Y002254D01*
X004395Y002202D01*
X004410Y002148D01*
X004422Y002094D01*
X004430Y002039D01*
X004434Y001984D01*
X004434Y001928D01*
X004430Y001873D01*
X004422Y001818D01*
X004410Y001764D01*
X004395Y001710D01*
X004375Y001658D01*
X004353Y001607D01*
X004326Y001558D01*
X004297Y001512D01*
X004264Y001467D01*
X004227Y001425D01*
X004189Y001385D01*
X004147Y001348D01*
X004103Y001314D01*
X004056Y001284D01*
X004008Y001257D01*
X003958Y001233D01*
X003906Y001213D01*
X003853Y001196D01*
X003799Y001184D01*
X003744Y001175D01*
X003689Y001170D01*
X003633Y001169D01*
X003578Y001172D01*
X003523Y001179D01*
X003468Y001190D01*
X003414Y001204D01*
X003362Y001222D01*
X003311Y001244D01*
X003262Y001270D01*
X003214Y001299D01*
X003169Y001331D01*
X003126Y001366D01*
X003086Y001404D01*
X003048Y001445D01*
X003014Y001489D01*
X002982Y001535D01*
X002954Y001583D01*
X002930Y001633D01*
X002909Y001684D01*
X002891Y001737D01*
X002878Y001791D01*
X002868Y001845D01*
X002862Y001900D01*
X002860Y001956D01*
X000888Y006440D02*
X000890Y006496D01*
X000896Y006551D01*
X000906Y006605D01*
X000919Y006659D01*
X000937Y006712D01*
X000958Y006763D01*
X000982Y006813D01*
X001010Y006861D01*
X001042Y006907D01*
X001076Y006951D01*
X001114Y006992D01*
X001154Y007030D01*
X001197Y007065D01*
X001242Y007097D01*
X001290Y007126D01*
X001339Y007152D01*
X001390Y007174D01*
X001442Y007192D01*
X001496Y007206D01*
X001551Y007217D01*
X001606Y007224D01*
X001661Y007227D01*
X001717Y007226D01*
X001772Y007221D01*
X001827Y007212D01*
X001881Y007200D01*
X001934Y007183D01*
X001986Y007163D01*
X002036Y007139D01*
X002084Y007112D01*
X002131Y007082D01*
X002175Y007048D01*
X002217Y007011D01*
X002255Y006971D01*
X002292Y006929D01*
X002325Y006884D01*
X002354Y006838D01*
X002381Y006789D01*
X002403Y006738D01*
X002423Y006686D01*
X002438Y006632D01*
X002450Y006578D01*
X002458Y006523D01*
X002462Y006468D01*
X002462Y006412D01*
X002458Y006357D01*
X002450Y006302D01*
X002438Y006248D01*
X002423Y006194D01*
X002403Y006142D01*
X002381Y006091D01*
X002354Y006042D01*
X002325Y005996D01*
X002292Y005951D01*
X002255Y005909D01*
X002217Y005869D01*
X002175Y005832D01*
X002131Y005798D01*
X002084Y005768D01*
X002036Y005741D01*
X001986Y005717D01*
X001934Y005697D01*
X001881Y005680D01*
X001827Y005668D01*
X001772Y005659D01*
X001717Y005654D01*
X001661Y005653D01*
X001606Y005656D01*
X001551Y005663D01*
X001496Y005674D01*
X001442Y005688D01*
X001390Y005706D01*
X001339Y005728D01*
X001290Y005754D01*
X001242Y005783D01*
X001197Y005815D01*
X001154Y005850D01*
X001114Y005888D01*
X001076Y005929D01*
X001042Y005973D01*
X001010Y006019D01*
X000982Y006067D01*
X000958Y006117D01*
X000937Y006168D01*
X000919Y006221D01*
X000906Y006275D01*
X000896Y006329D01*
X000890Y006384D01*
X000888Y006440D01*
X000888Y009196D02*
X000890Y009252D01*
X000896Y009307D01*
X000906Y009361D01*
X000919Y009415D01*
X000937Y009468D01*
X000958Y009519D01*
X000982Y009569D01*
X001010Y009617D01*
X001042Y009663D01*
X001076Y009707D01*
X001114Y009748D01*
X001154Y009786D01*
X001197Y009821D01*
X001242Y009853D01*
X001290Y009882D01*
X001339Y009908D01*
X001390Y009930D01*
X001442Y009948D01*
X001496Y009962D01*
X001551Y009973D01*
X001606Y009980D01*
X001661Y009983D01*
X001717Y009982D01*
X001772Y009977D01*
X001827Y009968D01*
X001881Y009956D01*
X001934Y009939D01*
X001986Y009919D01*
X002036Y009895D01*
X002084Y009868D01*
X002131Y009838D01*
X002175Y009804D01*
X002217Y009767D01*
X002255Y009727D01*
X002292Y009685D01*
X002325Y009640D01*
X002354Y009594D01*
X002381Y009545D01*
X002403Y009494D01*
X002423Y009442D01*
X002438Y009388D01*
X002450Y009334D01*
X002458Y009279D01*
X002462Y009224D01*
X002462Y009168D01*
X002458Y009113D01*
X002450Y009058D01*
X002438Y009004D01*
X002423Y008950D01*
X002403Y008898D01*
X002381Y008847D01*
X002354Y008798D01*
X002325Y008752D01*
X002292Y008707D01*
X002255Y008665D01*
X002217Y008625D01*
X002175Y008588D01*
X002131Y008554D01*
X002084Y008524D01*
X002036Y008497D01*
X001986Y008473D01*
X001934Y008453D01*
X001881Y008436D01*
X001827Y008424D01*
X001772Y008415D01*
X001717Y008410D01*
X001661Y008409D01*
X001606Y008412D01*
X001551Y008419D01*
X001496Y008430D01*
X001442Y008444D01*
X001390Y008462D01*
X001339Y008484D01*
X001290Y008510D01*
X001242Y008539D01*
X001197Y008571D01*
X001154Y008606D01*
X001114Y008644D01*
X001076Y008685D01*
X001042Y008729D01*
X001010Y008775D01*
X000982Y008823D01*
X000958Y008873D01*
X000937Y008924D01*
X000919Y008977D01*
X000906Y009031D01*
X000896Y009085D01*
X000890Y009140D01*
X000888Y009196D01*
X002860Y012979D02*
X002862Y013035D01*
X002868Y013090D01*
X002878Y013144D01*
X002891Y013198D01*
X002909Y013251D01*
X002930Y013302D01*
X002954Y013352D01*
X002982Y013400D01*
X003014Y013446D01*
X003048Y013490D01*
X003086Y013531D01*
X003126Y013569D01*
X003169Y013604D01*
X003214Y013636D01*
X003262Y013665D01*
X003311Y013691D01*
X003362Y013713D01*
X003414Y013731D01*
X003468Y013745D01*
X003523Y013756D01*
X003578Y013763D01*
X003633Y013766D01*
X003689Y013765D01*
X003744Y013760D01*
X003799Y013751D01*
X003853Y013739D01*
X003906Y013722D01*
X003958Y013702D01*
X004008Y013678D01*
X004056Y013651D01*
X004103Y013621D01*
X004147Y013587D01*
X004189Y013550D01*
X004227Y013510D01*
X004264Y013468D01*
X004297Y013423D01*
X004326Y013377D01*
X004353Y013328D01*
X004375Y013277D01*
X004395Y013225D01*
X004410Y013171D01*
X004422Y013117D01*
X004430Y013062D01*
X004434Y013007D01*
X004434Y012951D01*
X004430Y012896D01*
X004422Y012841D01*
X004410Y012787D01*
X004395Y012733D01*
X004375Y012681D01*
X004353Y012630D01*
X004326Y012581D01*
X004297Y012535D01*
X004264Y012490D01*
X004227Y012448D01*
X004189Y012408D01*
X004147Y012371D01*
X004103Y012337D01*
X004056Y012307D01*
X004008Y012280D01*
X003958Y012256D01*
X003906Y012236D01*
X003853Y012219D01*
X003799Y012207D01*
X003744Y012198D01*
X003689Y012193D01*
X003633Y012192D01*
X003578Y012195D01*
X003523Y012202D01*
X003468Y012213D01*
X003414Y012227D01*
X003362Y012245D01*
X003311Y012267D01*
X003262Y012293D01*
X003214Y012322D01*
X003169Y012354D01*
X003126Y012389D01*
X003086Y012427D01*
X003048Y012468D01*
X003014Y012512D01*
X002982Y012558D01*
X002954Y012606D01*
X002930Y012656D01*
X002909Y012707D01*
X002891Y012760D01*
X002878Y012814D01*
X002868Y012868D01*
X002862Y012923D01*
X002860Y012979D01*
X010104Y012979D02*
X010106Y013035D01*
X010112Y013090D01*
X010122Y013144D01*
X010135Y013198D01*
X010153Y013251D01*
X010174Y013302D01*
X010198Y013352D01*
X010226Y013400D01*
X010258Y013446D01*
X010292Y013490D01*
X010330Y013531D01*
X010370Y013569D01*
X010413Y013604D01*
X010458Y013636D01*
X010506Y013665D01*
X010555Y013691D01*
X010606Y013713D01*
X010658Y013731D01*
X010712Y013745D01*
X010767Y013756D01*
X010822Y013763D01*
X010877Y013766D01*
X010933Y013765D01*
X010988Y013760D01*
X011043Y013751D01*
X011097Y013739D01*
X011150Y013722D01*
X011202Y013702D01*
X011252Y013678D01*
X011300Y013651D01*
X011347Y013621D01*
X011391Y013587D01*
X011433Y013550D01*
X011471Y013510D01*
X011508Y013468D01*
X011541Y013423D01*
X011570Y013377D01*
X011597Y013328D01*
X011619Y013277D01*
X011639Y013225D01*
X011654Y013171D01*
X011666Y013117D01*
X011674Y013062D01*
X011678Y013007D01*
X011678Y012951D01*
X011674Y012896D01*
X011666Y012841D01*
X011654Y012787D01*
X011639Y012733D01*
X011619Y012681D01*
X011597Y012630D01*
X011570Y012581D01*
X011541Y012535D01*
X011508Y012490D01*
X011471Y012448D01*
X011433Y012408D01*
X011391Y012371D01*
X011347Y012337D01*
X011300Y012307D01*
X011252Y012280D01*
X011202Y012256D01*
X011150Y012236D01*
X011097Y012219D01*
X011043Y012207D01*
X010988Y012198D01*
X010933Y012193D01*
X010877Y012192D01*
X010822Y012195D01*
X010767Y012202D01*
X010712Y012213D01*
X010658Y012227D01*
X010606Y012245D01*
X010555Y012267D01*
X010506Y012293D01*
X010458Y012322D01*
X010413Y012354D01*
X010370Y012389D01*
X010330Y012427D01*
X010292Y012468D01*
X010258Y012512D01*
X010226Y012558D01*
X010198Y012606D01*
X010174Y012656D01*
X010153Y012707D01*
X010135Y012760D01*
X010122Y012814D01*
X010112Y012868D01*
X010106Y012923D01*
X010104Y012979D01*
X010104Y001956D02*
X010106Y002012D01*
X010112Y002067D01*
X010122Y002121D01*
X010135Y002175D01*
X010153Y002228D01*
X010174Y002279D01*
X010198Y002329D01*
X010226Y002377D01*
X010258Y002423D01*
X010292Y002467D01*
X010330Y002508D01*
X010370Y002546D01*
X010413Y002581D01*
X010458Y002613D01*
X010506Y002642D01*
X010555Y002668D01*
X010606Y002690D01*
X010658Y002708D01*
X010712Y002722D01*
X010767Y002733D01*
X010822Y002740D01*
X010877Y002743D01*
X010933Y002742D01*
X010988Y002737D01*
X011043Y002728D01*
X011097Y002716D01*
X011150Y002699D01*
X011202Y002679D01*
X011252Y002655D01*
X011300Y002628D01*
X011347Y002598D01*
X011391Y002564D01*
X011433Y002527D01*
X011471Y002487D01*
X011508Y002445D01*
X011541Y002400D01*
X011570Y002354D01*
X011597Y002305D01*
X011619Y002254D01*
X011639Y002202D01*
X011654Y002148D01*
X011666Y002094D01*
X011674Y002039D01*
X011678Y001984D01*
X011678Y001928D01*
X011674Y001873D01*
X011666Y001818D01*
X011654Y001764D01*
X011639Y001710D01*
X011619Y001658D01*
X011597Y001607D01*
X011570Y001558D01*
X011541Y001512D01*
X011508Y001467D01*
X011471Y001425D01*
X011433Y001385D01*
X011391Y001348D01*
X011347Y001314D01*
X011300Y001284D01*
X011252Y001257D01*
X011202Y001233D01*
X011150Y001213D01*
X011097Y001196D01*
X011043Y001184D01*
X010988Y001175D01*
X010933Y001170D01*
X010877Y001169D01*
X010822Y001172D01*
X010767Y001179D01*
X010712Y001190D01*
X010658Y001204D01*
X010606Y001222D01*
X010555Y001244D01*
X010506Y001270D01*
X010458Y001299D01*
X010413Y001331D01*
X010370Y001366D01*
X010330Y001404D01*
X010292Y001445D01*
X010258Y001489D01*
X010226Y001535D01*
X010198Y001583D01*
X010174Y001633D01*
X010153Y001684D01*
X010135Y001737D01*
X010122Y001791D01*
X010112Y001845D01*
X010106Y001900D01*
X010104Y001956D01*
M02*
