G75*
G70*
%OFA0B0*%
%FSLAX24Y24*%
%IPPOS*%
%LPD*%
%AMOC8*
5,1,8,0,0,1.08239X$1,22.5*
%
%ADD10C,0.0010*%
D10*
X003712Y001952D02*
X003714Y001991D01*
X003720Y002029D01*
X003729Y002067D01*
X003743Y002103D01*
X003759Y002139D01*
X003780Y002172D01*
X003803Y002203D01*
X003830Y002231D01*
X003859Y002257D01*
X003890Y002280D01*
X003924Y002299D01*
X003960Y002315D01*
X003996Y002327D01*
X004034Y002336D01*
X004073Y002341D01*
X004112Y002342D01*
X004150Y002339D01*
X004189Y002332D01*
X004226Y002322D01*
X004262Y002307D01*
X004297Y002290D01*
X004330Y002269D01*
X004360Y002244D01*
X004388Y002217D01*
X004413Y002187D01*
X004435Y002155D01*
X004453Y002121D01*
X004468Y002085D01*
X004480Y002048D01*
X004488Y002010D01*
X004492Y001971D01*
X004492Y001933D01*
X004488Y001894D01*
X004480Y001856D01*
X004468Y001819D01*
X004453Y001783D01*
X004435Y001749D01*
X004413Y001717D01*
X004388Y001687D01*
X004360Y001660D01*
X004330Y001635D01*
X004297Y001614D01*
X004262Y001597D01*
X004226Y001582D01*
X004189Y001572D01*
X004150Y001565D01*
X004112Y001562D01*
X004073Y001563D01*
X004034Y001568D01*
X003996Y001577D01*
X003960Y001589D01*
X003924Y001605D01*
X003890Y001624D01*
X003859Y001647D01*
X003830Y001673D01*
X003803Y001701D01*
X003780Y001732D01*
X003759Y001765D01*
X003743Y001801D01*
X003729Y001837D01*
X003720Y001875D01*
X003714Y001913D01*
X003712Y001952D01*
X003702Y001552D02*
X004502Y002352D01*
X003712Y013031D02*
X003714Y013070D01*
X003720Y013108D01*
X003729Y013146D01*
X003743Y013182D01*
X003759Y013218D01*
X003780Y013251D01*
X003803Y013282D01*
X003830Y013310D01*
X003859Y013336D01*
X003890Y013359D01*
X003924Y013378D01*
X003960Y013394D01*
X003996Y013406D01*
X004034Y013415D01*
X004073Y013420D01*
X004112Y013421D01*
X004150Y013418D01*
X004189Y013411D01*
X004226Y013401D01*
X004262Y013386D01*
X004297Y013369D01*
X004330Y013348D01*
X004360Y013323D01*
X004388Y013296D01*
X004413Y013266D01*
X004435Y013234D01*
X004453Y013200D01*
X004468Y013164D01*
X004480Y013127D01*
X004488Y013089D01*
X004492Y013050D01*
X004492Y013012D01*
X004488Y012973D01*
X004480Y012935D01*
X004468Y012898D01*
X004453Y012862D01*
X004435Y012828D01*
X004413Y012796D01*
X004388Y012766D01*
X004360Y012739D01*
X004330Y012714D01*
X004297Y012693D01*
X004262Y012676D01*
X004226Y012661D01*
X004189Y012651D01*
X004150Y012644D01*
X004112Y012641D01*
X004073Y012642D01*
X004034Y012647D01*
X003996Y012656D01*
X003960Y012668D01*
X003924Y012684D01*
X003890Y012703D01*
X003859Y012726D01*
X003830Y012752D01*
X003803Y012780D01*
X003780Y012811D01*
X003759Y012844D01*
X003743Y012880D01*
X003729Y012916D01*
X003720Y012954D01*
X003714Y012992D01*
X003712Y013031D01*
X003702Y012631D02*
X004502Y013431D01*
X026704Y013031D02*
X026706Y013070D01*
X026712Y013108D01*
X026721Y013146D01*
X026735Y013182D01*
X026751Y013218D01*
X026772Y013251D01*
X026795Y013282D01*
X026822Y013310D01*
X026851Y013336D01*
X026882Y013359D01*
X026916Y013378D01*
X026952Y013394D01*
X026988Y013406D01*
X027026Y013415D01*
X027065Y013420D01*
X027104Y013421D01*
X027142Y013418D01*
X027181Y013411D01*
X027218Y013401D01*
X027254Y013386D01*
X027289Y013369D01*
X027322Y013348D01*
X027352Y013323D01*
X027380Y013296D01*
X027405Y013266D01*
X027427Y013234D01*
X027445Y013200D01*
X027460Y013164D01*
X027472Y013127D01*
X027480Y013089D01*
X027484Y013050D01*
X027484Y013012D01*
X027480Y012973D01*
X027472Y012935D01*
X027460Y012898D01*
X027445Y012862D01*
X027427Y012828D01*
X027405Y012796D01*
X027380Y012766D01*
X027352Y012739D01*
X027322Y012714D01*
X027289Y012693D01*
X027254Y012676D01*
X027218Y012661D01*
X027181Y012651D01*
X027142Y012644D01*
X027104Y012641D01*
X027065Y012642D01*
X027026Y012647D01*
X026988Y012656D01*
X026952Y012668D01*
X026916Y012684D01*
X026882Y012703D01*
X026851Y012726D01*
X026822Y012752D01*
X026795Y012780D01*
X026772Y012811D01*
X026751Y012844D01*
X026735Y012880D01*
X026721Y012916D01*
X026712Y012954D01*
X026706Y012992D01*
X026704Y013031D01*
X026694Y012631D02*
X027494Y013431D01*
X026704Y001952D02*
X026706Y001991D01*
X026712Y002029D01*
X026721Y002067D01*
X026735Y002103D01*
X026751Y002139D01*
X026772Y002172D01*
X026795Y002203D01*
X026822Y002231D01*
X026851Y002257D01*
X026882Y002280D01*
X026916Y002299D01*
X026952Y002315D01*
X026988Y002327D01*
X027026Y002336D01*
X027065Y002341D01*
X027104Y002342D01*
X027142Y002339D01*
X027181Y002332D01*
X027218Y002322D01*
X027254Y002307D01*
X027289Y002290D01*
X027322Y002269D01*
X027352Y002244D01*
X027380Y002217D01*
X027405Y002187D01*
X027427Y002155D01*
X027445Y002121D01*
X027460Y002085D01*
X027472Y002048D01*
X027480Y002010D01*
X027484Y001971D01*
X027484Y001933D01*
X027480Y001894D01*
X027472Y001856D01*
X027460Y001819D01*
X027445Y001783D01*
X027427Y001749D01*
X027405Y001717D01*
X027380Y001687D01*
X027352Y001660D01*
X027322Y001635D01*
X027289Y001614D01*
X027254Y001597D01*
X027218Y001582D01*
X027181Y001572D01*
X027142Y001565D01*
X027104Y001562D01*
X027065Y001563D01*
X027026Y001568D01*
X026988Y001577D01*
X026952Y001589D01*
X026916Y001605D01*
X026882Y001624D01*
X026851Y001647D01*
X026822Y001673D01*
X026795Y001701D01*
X026772Y001732D01*
X026751Y001765D01*
X026735Y001801D01*
X026721Y001837D01*
X026712Y001875D01*
X026706Y001913D01*
X026704Y001952D01*
X026694Y001552D02*
X027494Y002352D01*
M02*
