G75*
G70*
%OFA0B0*%
%FSLAX24Y24*%
%IPPOS*%
%LPD*%
%AMOC8*
5,1,8,0,0,1.08239X$1,22.5*
%
%ADD10R,0.0630X0.0512*%
%ADD11R,0.2362X0.2756*%
%ADD12R,0.0236X0.0866*%
%ADD13R,0.0787X0.0591*%
%ADD14R,0.1000X0.0500*%
%ADD15C,0.0160*%
%ADD16C,0.0400*%
%ADD17C,0.0240*%
D10*
X005275Y006115D03*
X005275Y006863D03*
D11*
X013345Y007468D03*
X013345Y002845D03*
X013345Y012094D03*
D12*
X009174Y008497D03*
X008674Y008497D03*
X008174Y008497D03*
X007674Y008497D03*
X007674Y006450D03*
X008174Y006450D03*
X008674Y006450D03*
X009174Y006450D03*
D13*
X006456Y006883D03*
X006456Y008064D03*
D14*
X002912Y008851D03*
X002912Y007277D03*
X002912Y006095D03*
D15*
X005275Y006115D02*
X005275Y004914D01*
X006456Y004914D02*
X006456Y006883D01*
X005324Y006863D02*
X005324Y007473D01*
X009113Y007473D01*
X009113Y008497D01*
X009174Y008497D01*
X008674Y008497D02*
X008621Y008497D01*
X008621Y009393D01*
X010983Y009393D01*
X010983Y007468D01*
X013345Y007468D01*
X009212Y006450D02*
X009212Y004914D01*
X009174Y006450D02*
X009212Y006450D01*
X008178Y008497D02*
X008178Y009393D01*
X008621Y009393D01*
X008178Y008497D02*
X008174Y008497D01*
X007637Y008497D02*
X007637Y010032D01*
X006456Y010032D02*
X006456Y008064D01*
X005275Y007277D02*
X005275Y006863D01*
X005324Y006863D01*
X002912Y008851D02*
X002863Y008851D01*
D16*
X002912Y006095D02*
X002912Y004914D01*
X005275Y004914D01*
X006456Y004914D01*
X009212Y004914D01*
X013149Y004914D01*
X013149Y002845D01*
X013345Y002845D01*
X013149Y010032D02*
X007637Y010032D01*
X006456Y010032D01*
X002863Y010032D01*
X002863Y008851D01*
X002912Y007277D02*
X005275Y007277D01*
X013149Y010032D02*
X013149Y012094D01*
X013345Y012094D01*
D17*
X007674Y008497D02*
X007637Y008497D01*
M02*
