G75*
G70*
%OFA0B0*%
%FSLAX24Y24*%
%IPPOS*%
%LPD*%
%AMOC8*
5,1,8,0,0,1.08239X$1,22.5*
%
%ADD10C,0.0010*%
D10*
X003215Y001956D02*
X003217Y001995D01*
X003223Y002033D01*
X003232Y002071D01*
X003246Y002107D01*
X003262Y002143D01*
X003283Y002176D01*
X003306Y002207D01*
X003333Y002235D01*
X003362Y002261D01*
X003393Y002284D01*
X003427Y002303D01*
X003463Y002319D01*
X003499Y002331D01*
X003537Y002340D01*
X003576Y002345D01*
X003615Y002346D01*
X003653Y002343D01*
X003692Y002336D01*
X003729Y002326D01*
X003765Y002311D01*
X003800Y002294D01*
X003833Y002273D01*
X003863Y002248D01*
X003891Y002221D01*
X003916Y002191D01*
X003938Y002159D01*
X003956Y002125D01*
X003971Y002089D01*
X003983Y002052D01*
X003991Y002014D01*
X003995Y001975D01*
X003995Y001937D01*
X003991Y001898D01*
X003983Y001860D01*
X003971Y001823D01*
X003956Y001787D01*
X003938Y001753D01*
X003916Y001721D01*
X003891Y001691D01*
X003863Y001664D01*
X003833Y001639D01*
X003800Y001618D01*
X003765Y001601D01*
X003729Y001586D01*
X003692Y001576D01*
X003653Y001569D01*
X003615Y001566D01*
X003576Y001567D01*
X003537Y001572D01*
X003499Y001581D01*
X003463Y001593D01*
X003427Y001609D01*
X003393Y001628D01*
X003362Y001651D01*
X003333Y001677D01*
X003306Y001705D01*
X003283Y001736D01*
X003262Y001769D01*
X003246Y001805D01*
X003232Y001841D01*
X003223Y001879D01*
X003217Y001917D01*
X003215Y001956D01*
X003205Y001556D02*
X004005Y002356D01*
X000948Y006095D02*
X000950Y006134D01*
X000956Y006172D01*
X000965Y006210D01*
X000979Y006246D01*
X000995Y006282D01*
X001016Y006315D01*
X001039Y006346D01*
X001066Y006374D01*
X001095Y006400D01*
X001126Y006423D01*
X001160Y006442D01*
X001196Y006458D01*
X001232Y006470D01*
X001270Y006479D01*
X001309Y006484D01*
X001348Y006485D01*
X001386Y006482D01*
X001425Y006475D01*
X001462Y006465D01*
X001498Y006450D01*
X001533Y006433D01*
X001566Y006412D01*
X001596Y006387D01*
X001624Y006360D01*
X001649Y006330D01*
X001671Y006298D01*
X001689Y006264D01*
X001704Y006228D01*
X001716Y006191D01*
X001724Y006153D01*
X001728Y006114D01*
X001728Y006076D01*
X001724Y006037D01*
X001716Y005999D01*
X001704Y005962D01*
X001689Y005926D01*
X001671Y005892D01*
X001649Y005860D01*
X001624Y005830D01*
X001596Y005803D01*
X001566Y005778D01*
X001533Y005757D01*
X001498Y005740D01*
X001462Y005725D01*
X001425Y005715D01*
X001386Y005708D01*
X001348Y005705D01*
X001309Y005706D01*
X001270Y005711D01*
X001232Y005720D01*
X001196Y005732D01*
X001160Y005748D01*
X001126Y005767D01*
X001095Y005790D01*
X001066Y005816D01*
X001039Y005844D01*
X001016Y005875D01*
X000995Y005908D01*
X000979Y005944D01*
X000965Y005980D01*
X000956Y006018D01*
X000950Y006056D01*
X000948Y006095D01*
X000938Y005695D02*
X001738Y006495D01*
X000948Y008851D02*
X000950Y008890D01*
X000956Y008928D01*
X000965Y008966D01*
X000979Y009002D01*
X000995Y009038D01*
X001016Y009071D01*
X001039Y009102D01*
X001066Y009130D01*
X001095Y009156D01*
X001126Y009179D01*
X001160Y009198D01*
X001196Y009214D01*
X001232Y009226D01*
X001270Y009235D01*
X001309Y009240D01*
X001348Y009241D01*
X001386Y009238D01*
X001425Y009231D01*
X001462Y009221D01*
X001498Y009206D01*
X001533Y009189D01*
X001566Y009168D01*
X001596Y009143D01*
X001624Y009116D01*
X001649Y009086D01*
X001671Y009054D01*
X001689Y009020D01*
X001704Y008984D01*
X001716Y008947D01*
X001724Y008909D01*
X001728Y008870D01*
X001728Y008832D01*
X001724Y008793D01*
X001716Y008755D01*
X001704Y008718D01*
X001689Y008682D01*
X001671Y008648D01*
X001649Y008616D01*
X001624Y008586D01*
X001596Y008559D01*
X001566Y008534D01*
X001533Y008513D01*
X001498Y008496D01*
X001462Y008481D01*
X001425Y008471D01*
X001386Y008464D01*
X001348Y008461D01*
X001309Y008462D01*
X001270Y008467D01*
X001232Y008476D01*
X001196Y008488D01*
X001160Y008504D01*
X001126Y008523D01*
X001095Y008546D01*
X001066Y008572D01*
X001039Y008600D01*
X001016Y008631D01*
X000995Y008664D01*
X000979Y008700D01*
X000965Y008736D01*
X000956Y008774D01*
X000950Y008812D01*
X000948Y008851D01*
X000938Y008451D02*
X001738Y009251D01*
X003215Y012979D02*
X003217Y013018D01*
X003223Y013056D01*
X003232Y013094D01*
X003246Y013130D01*
X003262Y013166D01*
X003283Y013199D01*
X003306Y013230D01*
X003333Y013258D01*
X003362Y013284D01*
X003393Y013307D01*
X003427Y013326D01*
X003463Y013342D01*
X003499Y013354D01*
X003537Y013363D01*
X003576Y013368D01*
X003615Y013369D01*
X003653Y013366D01*
X003692Y013359D01*
X003729Y013349D01*
X003765Y013334D01*
X003800Y013317D01*
X003833Y013296D01*
X003863Y013271D01*
X003891Y013244D01*
X003916Y013214D01*
X003938Y013182D01*
X003956Y013148D01*
X003971Y013112D01*
X003983Y013075D01*
X003991Y013037D01*
X003995Y012998D01*
X003995Y012960D01*
X003991Y012921D01*
X003983Y012883D01*
X003971Y012846D01*
X003956Y012810D01*
X003938Y012776D01*
X003916Y012744D01*
X003891Y012714D01*
X003863Y012687D01*
X003833Y012662D01*
X003800Y012641D01*
X003765Y012624D01*
X003729Y012609D01*
X003692Y012599D01*
X003653Y012592D01*
X003615Y012589D01*
X003576Y012590D01*
X003537Y012595D01*
X003499Y012604D01*
X003463Y012616D01*
X003427Y012632D01*
X003393Y012651D01*
X003362Y012674D01*
X003333Y012700D01*
X003306Y012728D01*
X003283Y012759D01*
X003262Y012792D01*
X003246Y012828D01*
X003232Y012864D01*
X003223Y012902D01*
X003217Y012940D01*
X003215Y012979D01*
X003205Y012579D02*
X004005Y013379D01*
X010459Y012979D02*
X010461Y013018D01*
X010467Y013056D01*
X010476Y013094D01*
X010490Y013130D01*
X010506Y013166D01*
X010527Y013199D01*
X010550Y013230D01*
X010577Y013258D01*
X010606Y013284D01*
X010637Y013307D01*
X010671Y013326D01*
X010707Y013342D01*
X010743Y013354D01*
X010781Y013363D01*
X010820Y013368D01*
X010859Y013369D01*
X010897Y013366D01*
X010936Y013359D01*
X010973Y013349D01*
X011009Y013334D01*
X011044Y013317D01*
X011077Y013296D01*
X011107Y013271D01*
X011135Y013244D01*
X011160Y013214D01*
X011182Y013182D01*
X011200Y013148D01*
X011215Y013112D01*
X011227Y013075D01*
X011235Y013037D01*
X011239Y012998D01*
X011239Y012960D01*
X011235Y012921D01*
X011227Y012883D01*
X011215Y012846D01*
X011200Y012810D01*
X011182Y012776D01*
X011160Y012744D01*
X011135Y012714D01*
X011107Y012687D01*
X011077Y012662D01*
X011044Y012641D01*
X011009Y012624D01*
X010973Y012609D01*
X010936Y012599D01*
X010897Y012592D01*
X010859Y012589D01*
X010820Y012590D01*
X010781Y012595D01*
X010743Y012604D01*
X010707Y012616D01*
X010671Y012632D01*
X010637Y012651D01*
X010606Y012674D01*
X010577Y012700D01*
X010550Y012728D01*
X010527Y012759D01*
X010506Y012792D01*
X010490Y012828D01*
X010476Y012864D01*
X010467Y012902D01*
X010461Y012940D01*
X010459Y012979D01*
X010449Y012579D02*
X011249Y013379D01*
X010459Y001956D02*
X010461Y001995D01*
X010467Y002033D01*
X010476Y002071D01*
X010490Y002107D01*
X010506Y002143D01*
X010527Y002176D01*
X010550Y002207D01*
X010577Y002235D01*
X010606Y002261D01*
X010637Y002284D01*
X010671Y002303D01*
X010707Y002319D01*
X010743Y002331D01*
X010781Y002340D01*
X010820Y002345D01*
X010859Y002346D01*
X010897Y002343D01*
X010936Y002336D01*
X010973Y002326D01*
X011009Y002311D01*
X011044Y002294D01*
X011077Y002273D01*
X011107Y002248D01*
X011135Y002221D01*
X011160Y002191D01*
X011182Y002159D01*
X011200Y002125D01*
X011215Y002089D01*
X011227Y002052D01*
X011235Y002014D01*
X011239Y001975D01*
X011239Y001937D01*
X011235Y001898D01*
X011227Y001860D01*
X011215Y001823D01*
X011200Y001787D01*
X011182Y001753D01*
X011160Y001721D01*
X011135Y001691D01*
X011107Y001664D01*
X011077Y001639D01*
X011044Y001618D01*
X011009Y001601D01*
X010973Y001586D01*
X010936Y001576D01*
X010897Y001569D01*
X010859Y001566D01*
X010820Y001567D01*
X010781Y001572D01*
X010743Y001581D01*
X010707Y001593D01*
X010671Y001609D01*
X010637Y001628D01*
X010606Y001651D01*
X010577Y001677D01*
X010550Y001705D01*
X010527Y001736D01*
X010506Y001769D01*
X010490Y001805D01*
X010476Y001841D01*
X010467Y001879D01*
X010461Y001917D01*
X010459Y001956D01*
X010449Y001556D02*
X011249Y002356D01*
M02*
