G75*
G70*
%OFA0B0*%
%FSLAX24Y24*%
%IPPOS*%
%LPD*%
%AMOC8*
5,1,8,0,0,1.08239X$1,22.5*
%
%ADD10C,0.0000*%
D10*
X029300Y000680D02*
X029300Y015550D01*
X090292Y015550D01*
X090292Y000680D01*
X029300Y000680D01*
X036033Y002580D02*
X036035Y002636D01*
X036041Y002691D01*
X036051Y002745D01*
X036064Y002799D01*
X036082Y002852D01*
X036103Y002903D01*
X036127Y002953D01*
X036155Y003001D01*
X036187Y003047D01*
X036221Y003091D01*
X036259Y003132D01*
X036299Y003170D01*
X036342Y003205D01*
X036387Y003237D01*
X036435Y003266D01*
X036484Y003292D01*
X036535Y003314D01*
X036587Y003332D01*
X036641Y003346D01*
X036696Y003357D01*
X036751Y003364D01*
X036806Y003367D01*
X036862Y003366D01*
X036917Y003361D01*
X036972Y003352D01*
X037026Y003340D01*
X037079Y003323D01*
X037131Y003303D01*
X037181Y003279D01*
X037229Y003252D01*
X037276Y003222D01*
X037320Y003188D01*
X037362Y003151D01*
X037400Y003111D01*
X037437Y003069D01*
X037470Y003024D01*
X037499Y002978D01*
X037526Y002929D01*
X037548Y002878D01*
X037568Y002826D01*
X037583Y002772D01*
X037595Y002718D01*
X037603Y002663D01*
X037607Y002608D01*
X037607Y002552D01*
X037603Y002497D01*
X037595Y002442D01*
X037583Y002388D01*
X037568Y002334D01*
X037548Y002282D01*
X037526Y002231D01*
X037499Y002182D01*
X037470Y002136D01*
X037437Y002091D01*
X037400Y002049D01*
X037362Y002009D01*
X037320Y001972D01*
X037276Y001938D01*
X037229Y001908D01*
X037181Y001881D01*
X037131Y001857D01*
X037079Y001837D01*
X037026Y001820D01*
X036972Y001808D01*
X036917Y001799D01*
X036862Y001794D01*
X036806Y001793D01*
X036751Y001796D01*
X036696Y001803D01*
X036641Y001814D01*
X036587Y001828D01*
X036535Y001846D01*
X036484Y001868D01*
X036435Y001894D01*
X036387Y001923D01*
X036342Y001955D01*
X036299Y001990D01*
X036259Y002028D01*
X036221Y002069D01*
X036187Y002113D01*
X036155Y002159D01*
X036127Y002207D01*
X036103Y002257D01*
X036082Y002308D01*
X036064Y002361D01*
X036051Y002415D01*
X036041Y002469D01*
X036035Y002524D01*
X036033Y002580D01*
X082017Y002580D02*
X082019Y002636D01*
X082025Y002691D01*
X082035Y002745D01*
X082048Y002799D01*
X082066Y002852D01*
X082087Y002903D01*
X082111Y002953D01*
X082139Y003001D01*
X082171Y003047D01*
X082205Y003091D01*
X082243Y003132D01*
X082283Y003170D01*
X082326Y003205D01*
X082371Y003237D01*
X082419Y003266D01*
X082468Y003292D01*
X082519Y003314D01*
X082571Y003332D01*
X082625Y003346D01*
X082680Y003357D01*
X082735Y003364D01*
X082790Y003367D01*
X082846Y003366D01*
X082901Y003361D01*
X082956Y003352D01*
X083010Y003340D01*
X083063Y003323D01*
X083115Y003303D01*
X083165Y003279D01*
X083213Y003252D01*
X083260Y003222D01*
X083304Y003188D01*
X083346Y003151D01*
X083384Y003111D01*
X083421Y003069D01*
X083454Y003024D01*
X083483Y002978D01*
X083510Y002929D01*
X083532Y002878D01*
X083552Y002826D01*
X083567Y002772D01*
X083579Y002718D01*
X083587Y002663D01*
X083591Y002608D01*
X083591Y002552D01*
X083587Y002497D01*
X083579Y002442D01*
X083567Y002388D01*
X083552Y002334D01*
X083532Y002282D01*
X083510Y002231D01*
X083483Y002182D01*
X083454Y002136D01*
X083421Y002091D01*
X083384Y002049D01*
X083346Y002009D01*
X083304Y001972D01*
X083260Y001938D01*
X083213Y001908D01*
X083165Y001881D01*
X083115Y001857D01*
X083063Y001837D01*
X083010Y001820D01*
X082956Y001808D01*
X082901Y001799D01*
X082846Y001794D01*
X082790Y001793D01*
X082735Y001796D01*
X082680Y001803D01*
X082625Y001814D01*
X082571Y001828D01*
X082519Y001846D01*
X082468Y001868D01*
X082419Y001894D01*
X082371Y001923D01*
X082326Y001955D01*
X082283Y001990D01*
X082243Y002028D01*
X082205Y002069D01*
X082171Y002113D01*
X082139Y002159D01*
X082111Y002207D01*
X082087Y002257D01*
X082066Y002308D01*
X082048Y002361D01*
X082035Y002415D01*
X082025Y002469D01*
X082019Y002524D01*
X082017Y002580D01*
X082017Y013603D02*
X082019Y013659D01*
X082025Y013714D01*
X082035Y013768D01*
X082048Y013822D01*
X082066Y013875D01*
X082087Y013926D01*
X082111Y013976D01*
X082139Y014024D01*
X082171Y014070D01*
X082205Y014114D01*
X082243Y014155D01*
X082283Y014193D01*
X082326Y014228D01*
X082371Y014260D01*
X082419Y014289D01*
X082468Y014315D01*
X082519Y014337D01*
X082571Y014355D01*
X082625Y014369D01*
X082680Y014380D01*
X082735Y014387D01*
X082790Y014390D01*
X082846Y014389D01*
X082901Y014384D01*
X082956Y014375D01*
X083010Y014363D01*
X083063Y014346D01*
X083115Y014326D01*
X083165Y014302D01*
X083213Y014275D01*
X083260Y014245D01*
X083304Y014211D01*
X083346Y014174D01*
X083384Y014134D01*
X083421Y014092D01*
X083454Y014047D01*
X083483Y014001D01*
X083510Y013952D01*
X083532Y013901D01*
X083552Y013849D01*
X083567Y013795D01*
X083579Y013741D01*
X083587Y013686D01*
X083591Y013631D01*
X083591Y013575D01*
X083587Y013520D01*
X083579Y013465D01*
X083567Y013411D01*
X083552Y013357D01*
X083532Y013305D01*
X083510Y013254D01*
X083483Y013205D01*
X083454Y013159D01*
X083421Y013114D01*
X083384Y013072D01*
X083346Y013032D01*
X083304Y012995D01*
X083260Y012961D01*
X083213Y012931D01*
X083165Y012904D01*
X083115Y012880D01*
X083063Y012860D01*
X083010Y012843D01*
X082956Y012831D01*
X082901Y012822D01*
X082846Y012817D01*
X082790Y012816D01*
X082735Y012819D01*
X082680Y012826D01*
X082625Y012837D01*
X082571Y012851D01*
X082519Y012869D01*
X082468Y012891D01*
X082419Y012917D01*
X082371Y012946D01*
X082326Y012978D01*
X082283Y013013D01*
X082243Y013051D01*
X082205Y013092D01*
X082171Y013136D01*
X082139Y013182D01*
X082111Y013230D01*
X082087Y013280D01*
X082066Y013331D01*
X082048Y013384D01*
X082035Y013438D01*
X082025Y013492D01*
X082019Y013547D01*
X082017Y013603D01*
X036033Y013603D02*
X036035Y013659D01*
X036041Y013714D01*
X036051Y013768D01*
X036064Y013822D01*
X036082Y013875D01*
X036103Y013926D01*
X036127Y013976D01*
X036155Y014024D01*
X036187Y014070D01*
X036221Y014114D01*
X036259Y014155D01*
X036299Y014193D01*
X036342Y014228D01*
X036387Y014260D01*
X036435Y014289D01*
X036484Y014315D01*
X036535Y014337D01*
X036587Y014355D01*
X036641Y014369D01*
X036696Y014380D01*
X036751Y014387D01*
X036806Y014390D01*
X036862Y014389D01*
X036917Y014384D01*
X036972Y014375D01*
X037026Y014363D01*
X037079Y014346D01*
X037131Y014326D01*
X037181Y014302D01*
X037229Y014275D01*
X037276Y014245D01*
X037320Y014211D01*
X037362Y014174D01*
X037400Y014134D01*
X037437Y014092D01*
X037470Y014047D01*
X037499Y014001D01*
X037526Y013952D01*
X037548Y013901D01*
X037568Y013849D01*
X037583Y013795D01*
X037595Y013741D01*
X037603Y013686D01*
X037607Y013631D01*
X037607Y013575D01*
X037603Y013520D01*
X037595Y013465D01*
X037583Y013411D01*
X037568Y013357D01*
X037548Y013305D01*
X037526Y013254D01*
X037499Y013205D01*
X037470Y013159D01*
X037437Y013114D01*
X037400Y013072D01*
X037362Y013032D01*
X037320Y012995D01*
X037276Y012961D01*
X037229Y012931D01*
X037181Y012904D01*
X037131Y012880D01*
X037079Y012860D01*
X037026Y012843D01*
X036972Y012831D01*
X036917Y012822D01*
X036862Y012817D01*
X036806Y012816D01*
X036751Y012819D01*
X036696Y012826D01*
X036641Y012837D01*
X036587Y012851D01*
X036535Y012869D01*
X036484Y012891D01*
X036435Y012917D01*
X036387Y012946D01*
X036342Y012978D01*
X036299Y013013D01*
X036259Y013051D01*
X036221Y013092D01*
X036187Y013136D01*
X036155Y013182D01*
X036127Y013230D01*
X036103Y013280D01*
X036082Y013331D01*
X036064Y013384D01*
X036051Y013438D01*
X036041Y013492D01*
X036035Y013547D01*
X036033Y013603D01*
M02*
