G75*
G70*
%OFA0B0*%
%FSLAX24Y24*%
%IPPOS*%
%LPD*%
%AMOC8*
5,1,8,0,0,1.08239X$1,22.5*
%
%ADD10C,0.0010*%
D10*
X036430Y002580D02*
X036432Y002619D01*
X036438Y002657D01*
X036447Y002695D01*
X036461Y002731D01*
X036477Y002767D01*
X036498Y002800D01*
X036521Y002831D01*
X036548Y002859D01*
X036577Y002885D01*
X036608Y002908D01*
X036642Y002927D01*
X036678Y002943D01*
X036714Y002955D01*
X036752Y002964D01*
X036791Y002969D01*
X036830Y002970D01*
X036868Y002967D01*
X036907Y002960D01*
X036944Y002950D01*
X036980Y002935D01*
X037015Y002918D01*
X037048Y002897D01*
X037078Y002872D01*
X037106Y002845D01*
X037131Y002815D01*
X037153Y002783D01*
X037171Y002749D01*
X037186Y002713D01*
X037198Y002676D01*
X037206Y002638D01*
X037210Y002599D01*
X037210Y002561D01*
X037206Y002522D01*
X037198Y002484D01*
X037186Y002447D01*
X037171Y002411D01*
X037153Y002377D01*
X037131Y002345D01*
X037106Y002315D01*
X037078Y002288D01*
X037048Y002263D01*
X037015Y002242D01*
X036980Y002225D01*
X036944Y002210D01*
X036907Y002200D01*
X036868Y002193D01*
X036830Y002190D01*
X036791Y002191D01*
X036752Y002196D01*
X036714Y002205D01*
X036678Y002217D01*
X036642Y002233D01*
X036608Y002252D01*
X036577Y002275D01*
X036548Y002301D01*
X036521Y002329D01*
X036498Y002360D01*
X036477Y002393D01*
X036461Y002429D01*
X036447Y002465D01*
X036438Y002503D01*
X036432Y002541D01*
X036430Y002580D01*
X036420Y002180D02*
X037220Y002980D01*
X082414Y002580D02*
X082416Y002619D01*
X082422Y002657D01*
X082431Y002695D01*
X082445Y002731D01*
X082461Y002767D01*
X082482Y002800D01*
X082505Y002831D01*
X082532Y002859D01*
X082561Y002885D01*
X082592Y002908D01*
X082626Y002927D01*
X082662Y002943D01*
X082698Y002955D01*
X082736Y002964D01*
X082775Y002969D01*
X082814Y002970D01*
X082852Y002967D01*
X082891Y002960D01*
X082928Y002950D01*
X082964Y002935D01*
X082999Y002918D01*
X083032Y002897D01*
X083062Y002872D01*
X083090Y002845D01*
X083115Y002815D01*
X083137Y002783D01*
X083155Y002749D01*
X083170Y002713D01*
X083182Y002676D01*
X083190Y002638D01*
X083194Y002599D01*
X083194Y002561D01*
X083190Y002522D01*
X083182Y002484D01*
X083170Y002447D01*
X083155Y002411D01*
X083137Y002377D01*
X083115Y002345D01*
X083090Y002315D01*
X083062Y002288D01*
X083032Y002263D01*
X082999Y002242D01*
X082964Y002225D01*
X082928Y002210D01*
X082891Y002200D01*
X082852Y002193D01*
X082814Y002190D01*
X082775Y002191D01*
X082736Y002196D01*
X082698Y002205D01*
X082662Y002217D01*
X082626Y002233D01*
X082592Y002252D01*
X082561Y002275D01*
X082532Y002301D01*
X082505Y002329D01*
X082482Y002360D01*
X082461Y002393D01*
X082445Y002429D01*
X082431Y002465D01*
X082422Y002503D01*
X082416Y002541D01*
X082414Y002580D01*
X082404Y002180D02*
X083204Y002980D01*
X082414Y013603D02*
X082416Y013642D01*
X082422Y013680D01*
X082431Y013718D01*
X082445Y013754D01*
X082461Y013790D01*
X082482Y013823D01*
X082505Y013854D01*
X082532Y013882D01*
X082561Y013908D01*
X082592Y013931D01*
X082626Y013950D01*
X082662Y013966D01*
X082698Y013978D01*
X082736Y013987D01*
X082775Y013992D01*
X082814Y013993D01*
X082852Y013990D01*
X082891Y013983D01*
X082928Y013973D01*
X082964Y013958D01*
X082999Y013941D01*
X083032Y013920D01*
X083062Y013895D01*
X083090Y013868D01*
X083115Y013838D01*
X083137Y013806D01*
X083155Y013772D01*
X083170Y013736D01*
X083182Y013699D01*
X083190Y013661D01*
X083194Y013622D01*
X083194Y013584D01*
X083190Y013545D01*
X083182Y013507D01*
X083170Y013470D01*
X083155Y013434D01*
X083137Y013400D01*
X083115Y013368D01*
X083090Y013338D01*
X083062Y013311D01*
X083032Y013286D01*
X082999Y013265D01*
X082964Y013248D01*
X082928Y013233D01*
X082891Y013223D01*
X082852Y013216D01*
X082814Y013213D01*
X082775Y013214D01*
X082736Y013219D01*
X082698Y013228D01*
X082662Y013240D01*
X082626Y013256D01*
X082592Y013275D01*
X082561Y013298D01*
X082532Y013324D01*
X082505Y013352D01*
X082482Y013383D01*
X082461Y013416D01*
X082445Y013452D01*
X082431Y013488D01*
X082422Y013526D01*
X082416Y013564D01*
X082414Y013603D01*
X082404Y013203D02*
X083204Y014003D01*
X036430Y013603D02*
X036432Y013642D01*
X036438Y013680D01*
X036447Y013718D01*
X036461Y013754D01*
X036477Y013790D01*
X036498Y013823D01*
X036521Y013854D01*
X036548Y013882D01*
X036577Y013908D01*
X036608Y013931D01*
X036642Y013950D01*
X036678Y013966D01*
X036714Y013978D01*
X036752Y013987D01*
X036791Y013992D01*
X036830Y013993D01*
X036868Y013990D01*
X036907Y013983D01*
X036944Y013973D01*
X036980Y013958D01*
X037015Y013941D01*
X037048Y013920D01*
X037078Y013895D01*
X037106Y013868D01*
X037131Y013838D01*
X037153Y013806D01*
X037171Y013772D01*
X037186Y013736D01*
X037198Y013699D01*
X037206Y013661D01*
X037210Y013622D01*
X037210Y013584D01*
X037206Y013545D01*
X037198Y013507D01*
X037186Y013470D01*
X037171Y013434D01*
X037153Y013400D01*
X037131Y013368D01*
X037106Y013338D01*
X037078Y013311D01*
X037048Y013286D01*
X037015Y013265D01*
X036980Y013248D01*
X036944Y013233D01*
X036907Y013223D01*
X036868Y013216D01*
X036830Y013213D01*
X036791Y013214D01*
X036752Y013219D01*
X036714Y013228D01*
X036678Y013240D01*
X036642Y013256D01*
X036608Y013275D01*
X036577Y013298D01*
X036548Y013324D01*
X036521Y013352D01*
X036498Y013383D01*
X036477Y013416D01*
X036461Y013452D01*
X036447Y013488D01*
X036438Y013526D01*
X036432Y013564D01*
X036430Y013603D01*
X036420Y013203D02*
X037220Y014003D01*
M02*
