G75*
G70*
%OFA0B0*%
%FSLAX24Y24*%
%IPPOS*%
%LPD*%
%AMOC8*
5,1,8,0,0,1.08239X$1,22.5*
%
%ADD10R,0.0709X0.0630*%
%ADD11R,0.0240X0.0870*%
%ADD12R,0.2362X0.2756*%
%ADD13C,0.0160*%
%ADD14C,0.0500*%
%ADD15C,0.0860*%
%ADD16C,0.0200*%
D10*
X047800Y004629D03*
X047800Y005731D03*
D11*
X052550Y007650D03*
X053050Y007650D03*
X053550Y007650D03*
X054050Y007650D03*
X054050Y009710D03*
X053550Y009710D03*
X053050Y009710D03*
X052550Y009710D03*
D12*
X030481Y003469D03*
X030481Y008091D03*
X030481Y012717D03*
X089143Y012717D03*
X089143Y008091D03*
X089143Y003469D03*
D13*
X055300Y008680D02*
X053800Y008680D01*
X053550Y008430D01*
X053550Y007650D01*
X053550Y006680D01*
X052550Y006680D01*
X052550Y005930D01*
X052550Y006680D02*
X052550Y007650D01*
X053050Y007650D02*
X053050Y008430D01*
X052800Y008680D01*
X047800Y008680D01*
X047800Y008180D01*
X045300Y008180D01*
X047800Y008180D02*
X047800Y005731D01*
X047800Y004629D02*
X047800Y003180D01*
X054050Y003180D02*
X054050Y007650D01*
X052550Y009710D02*
X052550Y012680D01*
D14*
X061300Y012680D01*
X061300Y010680D01*
X089143Y010680D01*
X089143Y012717D01*
X089050Y008180D02*
X061300Y008180D01*
X061300Y005680D02*
X089143Y005680D01*
X089143Y003469D01*
X061300Y003180D02*
X061300Y005680D01*
X061300Y003180D02*
X055300Y003180D01*
X054050Y003180D01*
X047800Y003180D01*
X045300Y003180D01*
X045300Y005680D01*
X030800Y005680D01*
X030800Y003469D01*
X030481Y003469D01*
X030481Y008091D02*
X045300Y008091D01*
X045300Y008180D01*
X045300Y010680D02*
X045300Y012680D01*
X052550Y012680D01*
X045300Y010680D02*
X030800Y010680D01*
X030800Y012717D01*
X030481Y012717D01*
D15*
X052550Y005680D02*
X052550Y005180D01*
X055300Y005180D02*
X055300Y005430D01*
X055300Y005680D01*
X058050Y005680D02*
X058050Y005430D01*
X058050Y005180D01*
D16*
X058050Y005430D02*
X058050Y008180D01*
X061300Y008180D01*
X055300Y005430D02*
X055300Y003180D01*
M02*
