G75*
G70*
%OFA0B0*%
%FSLAX24Y24*%
%IPPOS*%
%LPD*%
%AMOC8*
5,1,8,0,0,1.08239X$1,22.5*
%
%ADD10C,0.0000*%
D10*
X000500Y000133D02*
X000500Y014798D01*
X061524Y014798D01*
X061524Y000133D01*
X000500Y000133D01*
X007233Y001948D02*
X007235Y002004D01*
X007241Y002059D01*
X007251Y002113D01*
X007264Y002167D01*
X007282Y002220D01*
X007303Y002271D01*
X007327Y002321D01*
X007355Y002369D01*
X007387Y002415D01*
X007421Y002459D01*
X007459Y002500D01*
X007499Y002538D01*
X007542Y002573D01*
X007587Y002605D01*
X007635Y002634D01*
X007684Y002660D01*
X007735Y002682D01*
X007787Y002700D01*
X007841Y002714D01*
X007896Y002725D01*
X007951Y002732D01*
X008006Y002735D01*
X008062Y002734D01*
X008117Y002729D01*
X008172Y002720D01*
X008226Y002708D01*
X008279Y002691D01*
X008331Y002671D01*
X008381Y002647D01*
X008429Y002620D01*
X008476Y002590D01*
X008520Y002556D01*
X008562Y002519D01*
X008600Y002479D01*
X008637Y002437D01*
X008670Y002392D01*
X008699Y002346D01*
X008726Y002297D01*
X008748Y002246D01*
X008768Y002194D01*
X008783Y002140D01*
X008795Y002086D01*
X008803Y002031D01*
X008807Y001976D01*
X008807Y001920D01*
X008803Y001865D01*
X008795Y001810D01*
X008783Y001756D01*
X008768Y001702D01*
X008748Y001650D01*
X008726Y001599D01*
X008699Y001550D01*
X008670Y001504D01*
X008637Y001459D01*
X008600Y001417D01*
X008562Y001377D01*
X008520Y001340D01*
X008476Y001306D01*
X008429Y001276D01*
X008381Y001249D01*
X008331Y001225D01*
X008279Y001205D01*
X008226Y001188D01*
X008172Y001176D01*
X008117Y001167D01*
X008062Y001162D01*
X008006Y001161D01*
X007951Y001164D01*
X007896Y001171D01*
X007841Y001182D01*
X007787Y001196D01*
X007735Y001214D01*
X007684Y001236D01*
X007635Y001262D01*
X007587Y001291D01*
X007542Y001323D01*
X007499Y001358D01*
X007459Y001396D01*
X007421Y001437D01*
X007387Y001481D01*
X007355Y001527D01*
X007327Y001575D01*
X007303Y001625D01*
X007282Y001676D01*
X007264Y001729D01*
X007251Y001783D01*
X007241Y001837D01*
X007235Y001892D01*
X007233Y001948D01*
X007233Y012971D02*
X007235Y013027D01*
X007241Y013082D01*
X007251Y013136D01*
X007264Y013190D01*
X007282Y013243D01*
X007303Y013294D01*
X007327Y013344D01*
X007355Y013392D01*
X007387Y013438D01*
X007421Y013482D01*
X007459Y013523D01*
X007499Y013561D01*
X007542Y013596D01*
X007587Y013628D01*
X007635Y013657D01*
X007684Y013683D01*
X007735Y013705D01*
X007787Y013723D01*
X007841Y013737D01*
X007896Y013748D01*
X007951Y013755D01*
X008006Y013758D01*
X008062Y013757D01*
X008117Y013752D01*
X008172Y013743D01*
X008226Y013731D01*
X008279Y013714D01*
X008331Y013694D01*
X008381Y013670D01*
X008429Y013643D01*
X008476Y013613D01*
X008520Y013579D01*
X008562Y013542D01*
X008600Y013502D01*
X008637Y013460D01*
X008670Y013415D01*
X008699Y013369D01*
X008726Y013320D01*
X008748Y013269D01*
X008768Y013217D01*
X008783Y013163D01*
X008795Y013109D01*
X008803Y013054D01*
X008807Y012999D01*
X008807Y012943D01*
X008803Y012888D01*
X008795Y012833D01*
X008783Y012779D01*
X008768Y012725D01*
X008748Y012673D01*
X008726Y012622D01*
X008699Y012573D01*
X008670Y012527D01*
X008637Y012482D01*
X008600Y012440D01*
X008562Y012400D01*
X008520Y012363D01*
X008476Y012329D01*
X008429Y012299D01*
X008381Y012272D01*
X008331Y012248D01*
X008279Y012228D01*
X008226Y012211D01*
X008172Y012199D01*
X008117Y012190D01*
X008062Y012185D01*
X008006Y012184D01*
X007951Y012187D01*
X007896Y012194D01*
X007841Y012205D01*
X007787Y012219D01*
X007735Y012237D01*
X007684Y012259D01*
X007635Y012285D01*
X007587Y012314D01*
X007542Y012346D01*
X007499Y012381D01*
X007459Y012419D01*
X007421Y012460D01*
X007387Y012504D01*
X007355Y012550D01*
X007327Y012598D01*
X007303Y012648D01*
X007282Y012699D01*
X007264Y012752D01*
X007251Y012806D01*
X007241Y012860D01*
X007235Y012915D01*
X007233Y012971D01*
X053217Y012971D02*
X053219Y013027D01*
X053225Y013082D01*
X053235Y013136D01*
X053248Y013190D01*
X053266Y013243D01*
X053287Y013294D01*
X053311Y013344D01*
X053339Y013392D01*
X053371Y013438D01*
X053405Y013482D01*
X053443Y013523D01*
X053483Y013561D01*
X053526Y013596D01*
X053571Y013628D01*
X053619Y013657D01*
X053668Y013683D01*
X053719Y013705D01*
X053771Y013723D01*
X053825Y013737D01*
X053880Y013748D01*
X053935Y013755D01*
X053990Y013758D01*
X054046Y013757D01*
X054101Y013752D01*
X054156Y013743D01*
X054210Y013731D01*
X054263Y013714D01*
X054315Y013694D01*
X054365Y013670D01*
X054413Y013643D01*
X054460Y013613D01*
X054504Y013579D01*
X054546Y013542D01*
X054584Y013502D01*
X054621Y013460D01*
X054654Y013415D01*
X054683Y013369D01*
X054710Y013320D01*
X054732Y013269D01*
X054752Y013217D01*
X054767Y013163D01*
X054779Y013109D01*
X054787Y013054D01*
X054791Y012999D01*
X054791Y012943D01*
X054787Y012888D01*
X054779Y012833D01*
X054767Y012779D01*
X054752Y012725D01*
X054732Y012673D01*
X054710Y012622D01*
X054683Y012573D01*
X054654Y012527D01*
X054621Y012482D01*
X054584Y012440D01*
X054546Y012400D01*
X054504Y012363D01*
X054460Y012329D01*
X054413Y012299D01*
X054365Y012272D01*
X054315Y012248D01*
X054263Y012228D01*
X054210Y012211D01*
X054156Y012199D01*
X054101Y012190D01*
X054046Y012185D01*
X053990Y012184D01*
X053935Y012187D01*
X053880Y012194D01*
X053825Y012205D01*
X053771Y012219D01*
X053719Y012237D01*
X053668Y012259D01*
X053619Y012285D01*
X053571Y012314D01*
X053526Y012346D01*
X053483Y012381D01*
X053443Y012419D01*
X053405Y012460D01*
X053371Y012504D01*
X053339Y012550D01*
X053311Y012598D01*
X053287Y012648D01*
X053266Y012699D01*
X053248Y012752D01*
X053235Y012806D01*
X053225Y012860D01*
X053219Y012915D01*
X053217Y012971D01*
X053217Y001948D02*
X053219Y002004D01*
X053225Y002059D01*
X053235Y002113D01*
X053248Y002167D01*
X053266Y002220D01*
X053287Y002271D01*
X053311Y002321D01*
X053339Y002369D01*
X053371Y002415D01*
X053405Y002459D01*
X053443Y002500D01*
X053483Y002538D01*
X053526Y002573D01*
X053571Y002605D01*
X053619Y002634D01*
X053668Y002660D01*
X053719Y002682D01*
X053771Y002700D01*
X053825Y002714D01*
X053880Y002725D01*
X053935Y002732D01*
X053990Y002735D01*
X054046Y002734D01*
X054101Y002729D01*
X054156Y002720D01*
X054210Y002708D01*
X054263Y002691D01*
X054315Y002671D01*
X054365Y002647D01*
X054413Y002620D01*
X054460Y002590D01*
X054504Y002556D01*
X054546Y002519D01*
X054584Y002479D01*
X054621Y002437D01*
X054654Y002392D01*
X054683Y002346D01*
X054710Y002297D01*
X054732Y002246D01*
X054752Y002194D01*
X054767Y002140D01*
X054779Y002086D01*
X054787Y002031D01*
X054791Y001976D01*
X054791Y001920D01*
X054787Y001865D01*
X054779Y001810D01*
X054767Y001756D01*
X054752Y001702D01*
X054732Y001650D01*
X054710Y001599D01*
X054683Y001550D01*
X054654Y001504D01*
X054621Y001459D01*
X054584Y001417D01*
X054546Y001377D01*
X054504Y001340D01*
X054460Y001306D01*
X054413Y001276D01*
X054365Y001249D01*
X054315Y001225D01*
X054263Y001205D01*
X054210Y001188D01*
X054156Y001176D01*
X054101Y001167D01*
X054046Y001162D01*
X053990Y001161D01*
X053935Y001164D01*
X053880Y001171D01*
X053825Y001182D01*
X053771Y001196D01*
X053719Y001214D01*
X053668Y001236D01*
X053619Y001262D01*
X053571Y001291D01*
X053526Y001323D01*
X053483Y001358D01*
X053443Y001396D01*
X053405Y001437D01*
X053371Y001481D01*
X053339Y001527D01*
X053311Y001575D01*
X053287Y001625D01*
X053266Y001676D01*
X053248Y001729D01*
X053235Y001783D01*
X053225Y001837D01*
X053219Y001892D01*
X053217Y001948D01*
M02*
