G75*
G70*
%OFA0B0*%
%FSLAX24Y24*%
%IPPOS*%
%LPD*%
%AMOC8*
5,1,8,0,0,1.08239X$1,22.5*
%
%ADD10C,0.0010*%
D10*
X007630Y002580D02*
X007632Y002619D01*
X007638Y002657D01*
X007647Y002695D01*
X007661Y002731D01*
X007677Y002767D01*
X007698Y002800D01*
X007721Y002831D01*
X007748Y002859D01*
X007777Y002885D01*
X007808Y002908D01*
X007842Y002927D01*
X007878Y002943D01*
X007914Y002955D01*
X007952Y002964D01*
X007991Y002969D01*
X008030Y002970D01*
X008068Y002967D01*
X008107Y002960D01*
X008144Y002950D01*
X008180Y002935D01*
X008215Y002918D01*
X008248Y002897D01*
X008278Y002872D01*
X008306Y002845D01*
X008331Y002815D01*
X008353Y002783D01*
X008371Y002749D01*
X008386Y002713D01*
X008398Y002676D01*
X008406Y002638D01*
X008410Y002599D01*
X008410Y002561D01*
X008406Y002522D01*
X008398Y002484D01*
X008386Y002447D01*
X008371Y002411D01*
X008353Y002377D01*
X008331Y002345D01*
X008306Y002315D01*
X008278Y002288D01*
X008248Y002263D01*
X008215Y002242D01*
X008180Y002225D01*
X008144Y002210D01*
X008107Y002200D01*
X008068Y002193D01*
X008030Y002190D01*
X007991Y002191D01*
X007952Y002196D01*
X007914Y002205D01*
X007878Y002217D01*
X007842Y002233D01*
X007808Y002252D01*
X007777Y002275D01*
X007748Y002301D01*
X007721Y002329D01*
X007698Y002360D01*
X007677Y002393D01*
X007661Y002429D01*
X007647Y002465D01*
X007638Y002503D01*
X007632Y002541D01*
X007630Y002580D01*
X007620Y002180D02*
X008420Y002980D01*
X007630Y013603D02*
X007632Y013642D01*
X007638Y013680D01*
X007647Y013718D01*
X007661Y013754D01*
X007677Y013790D01*
X007698Y013823D01*
X007721Y013854D01*
X007748Y013882D01*
X007777Y013908D01*
X007808Y013931D01*
X007842Y013950D01*
X007878Y013966D01*
X007914Y013978D01*
X007952Y013987D01*
X007991Y013992D01*
X008030Y013993D01*
X008068Y013990D01*
X008107Y013983D01*
X008144Y013973D01*
X008180Y013958D01*
X008215Y013941D01*
X008248Y013920D01*
X008278Y013895D01*
X008306Y013868D01*
X008331Y013838D01*
X008353Y013806D01*
X008371Y013772D01*
X008386Y013736D01*
X008398Y013699D01*
X008406Y013661D01*
X008410Y013622D01*
X008410Y013584D01*
X008406Y013545D01*
X008398Y013507D01*
X008386Y013470D01*
X008371Y013434D01*
X008353Y013400D01*
X008331Y013368D01*
X008306Y013338D01*
X008278Y013311D01*
X008248Y013286D01*
X008215Y013265D01*
X008180Y013248D01*
X008144Y013233D01*
X008107Y013223D01*
X008068Y013216D01*
X008030Y013213D01*
X007991Y013214D01*
X007952Y013219D01*
X007914Y013228D01*
X007878Y013240D01*
X007842Y013256D01*
X007808Y013275D01*
X007777Y013298D01*
X007748Y013324D01*
X007721Y013352D01*
X007698Y013383D01*
X007677Y013416D01*
X007661Y013452D01*
X007647Y013488D01*
X007638Y013526D01*
X007632Y013564D01*
X007630Y013603D01*
X007620Y013203D02*
X008420Y014003D01*
X053614Y013603D02*
X053616Y013642D01*
X053622Y013680D01*
X053631Y013718D01*
X053645Y013754D01*
X053661Y013790D01*
X053682Y013823D01*
X053705Y013854D01*
X053732Y013882D01*
X053761Y013908D01*
X053792Y013931D01*
X053826Y013950D01*
X053862Y013966D01*
X053898Y013978D01*
X053936Y013987D01*
X053975Y013992D01*
X054014Y013993D01*
X054052Y013990D01*
X054091Y013983D01*
X054128Y013973D01*
X054164Y013958D01*
X054199Y013941D01*
X054232Y013920D01*
X054262Y013895D01*
X054290Y013868D01*
X054315Y013838D01*
X054337Y013806D01*
X054355Y013772D01*
X054370Y013736D01*
X054382Y013699D01*
X054390Y013661D01*
X054394Y013622D01*
X054394Y013584D01*
X054390Y013545D01*
X054382Y013507D01*
X054370Y013470D01*
X054355Y013434D01*
X054337Y013400D01*
X054315Y013368D01*
X054290Y013338D01*
X054262Y013311D01*
X054232Y013286D01*
X054199Y013265D01*
X054164Y013248D01*
X054128Y013233D01*
X054091Y013223D01*
X054052Y013216D01*
X054014Y013213D01*
X053975Y013214D01*
X053936Y013219D01*
X053898Y013228D01*
X053862Y013240D01*
X053826Y013256D01*
X053792Y013275D01*
X053761Y013298D01*
X053732Y013324D01*
X053705Y013352D01*
X053682Y013383D01*
X053661Y013416D01*
X053645Y013452D01*
X053631Y013488D01*
X053622Y013526D01*
X053616Y013564D01*
X053614Y013603D01*
X053604Y013203D02*
X054404Y014003D01*
X053614Y002580D02*
X053616Y002619D01*
X053622Y002657D01*
X053631Y002695D01*
X053645Y002731D01*
X053661Y002767D01*
X053682Y002800D01*
X053705Y002831D01*
X053732Y002859D01*
X053761Y002885D01*
X053792Y002908D01*
X053826Y002927D01*
X053862Y002943D01*
X053898Y002955D01*
X053936Y002964D01*
X053975Y002969D01*
X054014Y002970D01*
X054052Y002967D01*
X054091Y002960D01*
X054128Y002950D01*
X054164Y002935D01*
X054199Y002918D01*
X054232Y002897D01*
X054262Y002872D01*
X054290Y002845D01*
X054315Y002815D01*
X054337Y002783D01*
X054355Y002749D01*
X054370Y002713D01*
X054382Y002676D01*
X054390Y002638D01*
X054394Y002599D01*
X054394Y002561D01*
X054390Y002522D01*
X054382Y002484D01*
X054370Y002447D01*
X054355Y002411D01*
X054337Y002377D01*
X054315Y002345D01*
X054290Y002315D01*
X054262Y002288D01*
X054232Y002263D01*
X054199Y002242D01*
X054164Y002225D01*
X054128Y002210D01*
X054091Y002200D01*
X054052Y002193D01*
X054014Y002190D01*
X053975Y002191D01*
X053936Y002196D01*
X053898Y002205D01*
X053862Y002217D01*
X053826Y002233D01*
X053792Y002252D01*
X053761Y002275D01*
X053732Y002301D01*
X053705Y002329D01*
X053682Y002360D01*
X053661Y002393D01*
X053645Y002429D01*
X053631Y002465D01*
X053622Y002503D01*
X053616Y002541D01*
X053614Y002580D01*
X053604Y002180D02*
X054404Y002980D01*
M02*
