G75*
G70*
%OFA0B0*%
%FSLAX24Y24*%
%IPPOS*%
%LPD*%
%AMOC8*
5,1,8,0,0,1.08239X$1,22.5*
%
%ADD10C,0.0010*%
D10*
X003712Y001952D02*
X003714Y001991D01*
X003720Y002029D01*
X003729Y002067D01*
X003743Y002103D01*
X003759Y002139D01*
X003780Y002172D01*
X003803Y002203D01*
X003830Y002231D01*
X003859Y002257D01*
X003890Y002280D01*
X003924Y002299D01*
X003960Y002315D01*
X003996Y002327D01*
X004034Y002336D01*
X004073Y002341D01*
X004112Y002342D01*
X004150Y002339D01*
X004189Y002332D01*
X004226Y002322D01*
X004262Y002307D01*
X004297Y002290D01*
X004330Y002269D01*
X004360Y002244D01*
X004388Y002217D01*
X004413Y002187D01*
X004435Y002155D01*
X004453Y002121D01*
X004468Y002085D01*
X004480Y002048D01*
X004488Y002010D01*
X004492Y001971D01*
X004492Y001933D01*
X004488Y001894D01*
X004480Y001856D01*
X004468Y001819D01*
X004453Y001783D01*
X004435Y001749D01*
X004413Y001717D01*
X004388Y001687D01*
X004360Y001660D01*
X004330Y001635D01*
X004297Y001614D01*
X004262Y001597D01*
X004226Y001582D01*
X004189Y001572D01*
X004150Y001565D01*
X004112Y001562D01*
X004073Y001563D01*
X004034Y001568D01*
X003996Y001577D01*
X003960Y001589D01*
X003924Y001605D01*
X003890Y001624D01*
X003859Y001647D01*
X003830Y001673D01*
X003803Y001701D01*
X003780Y001732D01*
X003759Y001765D01*
X003743Y001801D01*
X003729Y001837D01*
X003720Y001875D01*
X003714Y001913D01*
X003712Y001952D01*
X003702Y001552D02*
X004502Y002352D01*
X003712Y013031D02*
X003714Y013070D01*
X003720Y013108D01*
X003729Y013146D01*
X003743Y013182D01*
X003759Y013218D01*
X003780Y013251D01*
X003803Y013282D01*
X003830Y013310D01*
X003859Y013336D01*
X003890Y013359D01*
X003924Y013378D01*
X003960Y013394D01*
X003996Y013406D01*
X004034Y013415D01*
X004073Y013420D01*
X004112Y013421D01*
X004150Y013418D01*
X004189Y013411D01*
X004226Y013401D01*
X004262Y013386D01*
X004297Y013369D01*
X004330Y013348D01*
X004360Y013323D01*
X004388Y013296D01*
X004413Y013266D01*
X004435Y013234D01*
X004453Y013200D01*
X004468Y013164D01*
X004480Y013127D01*
X004488Y013089D01*
X004492Y013050D01*
X004492Y013012D01*
X004488Y012973D01*
X004480Y012935D01*
X004468Y012898D01*
X004453Y012862D01*
X004435Y012828D01*
X004413Y012796D01*
X004388Y012766D01*
X004360Y012739D01*
X004330Y012714D01*
X004297Y012693D01*
X004262Y012676D01*
X004226Y012661D01*
X004189Y012651D01*
X004150Y012644D01*
X004112Y012641D01*
X004073Y012642D01*
X004034Y012647D01*
X003996Y012656D01*
X003960Y012668D01*
X003924Y012684D01*
X003890Y012703D01*
X003859Y012726D01*
X003830Y012752D01*
X003803Y012780D01*
X003780Y012811D01*
X003759Y012844D01*
X003743Y012880D01*
X003729Y012916D01*
X003720Y012954D01*
X003714Y012992D01*
X003712Y013031D01*
X003702Y012631D02*
X004502Y013431D01*
X026704Y013031D02*
X026706Y013070D01*
X026712Y013108D01*
X026721Y013146D01*
X026735Y013182D01*
X026751Y013218D01*
X026772Y013251D01*
X026795Y013282D01*
X026822Y013310D01*
X026851Y013336D01*
X026882Y013359D01*
X026916Y013378D01*
X026952Y013394D01*
X026988Y013406D01*
X027026Y013415D01*
X027065Y013420D01*
X027104Y013421D01*
X027142Y013418D01*
X027181Y013411D01*
X027218Y013401D01*
X027254Y013386D01*
X027289Y013369D01*
X027322Y013348D01*
X027352Y013323D01*
X027380Y013296D01*
X027405Y013266D01*
X027427Y013234D01*
X027445Y013200D01*
X027460Y013164D01*
X027472Y013127D01*
X027480Y013089D01*
X027484Y013050D01*
X027484Y013012D01*
X027480Y012973D01*
X027472Y012935D01*
X027460Y012898D01*
X027445Y012862D01*
X027427Y012828D01*
X027405Y012796D01*
X027380Y012766D01*
X027352Y012739D01*
X027322Y012714D01*
X027289Y012693D01*
X027254Y012676D01*
X027218Y012661D01*
X027181Y012651D01*
X027142Y012644D01*
X027104Y012641D01*
X027065Y012642D01*
X027026Y012647D01*
X026988Y012656D01*
X026952Y012668D01*
X026916Y012684D01*
X026882Y012703D01*
X026851Y012726D01*
X026822Y012752D01*
X026795Y012780D01*
X026772Y012811D01*
X026751Y012844D01*
X026735Y012880D01*
X026721Y012916D01*
X026712Y012954D01*
X026706Y012992D01*
X026704Y013031D01*
X026694Y012631D02*
X027494Y013431D01*
X028456Y008798D02*
X028458Y008837D01*
X028464Y008875D01*
X028473Y008913D01*
X028487Y008949D01*
X028503Y008985D01*
X028524Y009018D01*
X028547Y009049D01*
X028574Y009077D01*
X028603Y009103D01*
X028634Y009126D01*
X028668Y009145D01*
X028704Y009161D01*
X028740Y009173D01*
X028778Y009182D01*
X028817Y009187D01*
X028856Y009188D01*
X028894Y009185D01*
X028933Y009178D01*
X028970Y009168D01*
X029006Y009153D01*
X029041Y009136D01*
X029074Y009115D01*
X029104Y009090D01*
X029132Y009063D01*
X029157Y009033D01*
X029179Y009001D01*
X029197Y008967D01*
X029212Y008931D01*
X029224Y008894D01*
X029232Y008856D01*
X029236Y008817D01*
X029236Y008779D01*
X029232Y008740D01*
X029224Y008702D01*
X029212Y008665D01*
X029197Y008629D01*
X029179Y008595D01*
X029157Y008563D01*
X029132Y008533D01*
X029104Y008506D01*
X029074Y008481D01*
X029041Y008460D01*
X029006Y008443D01*
X028970Y008428D01*
X028933Y008418D01*
X028894Y008411D01*
X028856Y008408D01*
X028817Y008409D01*
X028778Y008414D01*
X028740Y008423D01*
X028704Y008435D01*
X028668Y008451D01*
X028634Y008470D01*
X028603Y008493D01*
X028574Y008519D01*
X028547Y008547D01*
X028524Y008578D01*
X028503Y008611D01*
X028487Y008647D01*
X028473Y008683D01*
X028464Y008721D01*
X028458Y008759D01*
X028456Y008798D01*
X028446Y008398D02*
X029246Y009198D01*
X028456Y006436D02*
X028458Y006475D01*
X028464Y006513D01*
X028473Y006551D01*
X028487Y006587D01*
X028503Y006623D01*
X028524Y006656D01*
X028547Y006687D01*
X028574Y006715D01*
X028603Y006741D01*
X028634Y006764D01*
X028668Y006783D01*
X028704Y006799D01*
X028740Y006811D01*
X028778Y006820D01*
X028817Y006825D01*
X028856Y006826D01*
X028894Y006823D01*
X028933Y006816D01*
X028970Y006806D01*
X029006Y006791D01*
X029041Y006774D01*
X029074Y006753D01*
X029104Y006728D01*
X029132Y006701D01*
X029157Y006671D01*
X029179Y006639D01*
X029197Y006605D01*
X029212Y006569D01*
X029224Y006532D01*
X029232Y006494D01*
X029236Y006455D01*
X029236Y006417D01*
X029232Y006378D01*
X029224Y006340D01*
X029212Y006303D01*
X029197Y006267D01*
X029179Y006233D01*
X029157Y006201D01*
X029132Y006171D01*
X029104Y006144D01*
X029074Y006119D01*
X029041Y006098D01*
X029006Y006081D01*
X028970Y006066D01*
X028933Y006056D01*
X028894Y006049D01*
X028856Y006046D01*
X028817Y006047D01*
X028778Y006052D01*
X028740Y006061D01*
X028704Y006073D01*
X028668Y006089D01*
X028634Y006108D01*
X028603Y006131D01*
X028574Y006157D01*
X028547Y006185D01*
X028524Y006216D01*
X028503Y006249D01*
X028487Y006285D01*
X028473Y006321D01*
X028464Y006359D01*
X028458Y006397D01*
X028456Y006436D01*
X028446Y006036D02*
X029246Y006836D01*
X026704Y001952D02*
X026706Y001991D01*
X026712Y002029D01*
X026721Y002067D01*
X026735Y002103D01*
X026751Y002139D01*
X026772Y002172D01*
X026795Y002203D01*
X026822Y002231D01*
X026851Y002257D01*
X026882Y002280D01*
X026916Y002299D01*
X026952Y002315D01*
X026988Y002327D01*
X027026Y002336D01*
X027065Y002341D01*
X027104Y002342D01*
X027142Y002339D01*
X027181Y002332D01*
X027218Y002322D01*
X027254Y002307D01*
X027289Y002290D01*
X027322Y002269D01*
X027352Y002244D01*
X027380Y002217D01*
X027405Y002187D01*
X027427Y002155D01*
X027445Y002121D01*
X027460Y002085D01*
X027472Y002048D01*
X027480Y002010D01*
X027484Y001971D01*
X027484Y001933D01*
X027480Y001894D01*
X027472Y001856D01*
X027460Y001819D01*
X027445Y001783D01*
X027427Y001749D01*
X027405Y001717D01*
X027380Y001687D01*
X027352Y001660D01*
X027322Y001635D01*
X027289Y001614D01*
X027254Y001597D01*
X027218Y001582D01*
X027181Y001572D01*
X027142Y001565D01*
X027104Y001562D01*
X027065Y001563D01*
X027026Y001568D01*
X026988Y001577D01*
X026952Y001589D01*
X026916Y001605D01*
X026882Y001624D01*
X026851Y001647D01*
X026822Y001673D01*
X026795Y001701D01*
X026772Y001732D01*
X026751Y001765D01*
X026735Y001801D01*
X026721Y001837D01*
X026712Y001875D01*
X026706Y001913D01*
X026704Y001952D01*
X026694Y001552D02*
X027494Y002352D01*
M02*
