G75*
G70*
%OFA0B0*%
%FSLAX24Y24*%
%IPPOS*%
%LPD*%
%AMOC8*
5,1,8,0,0,1.08239X$1,22.5*
%
%ADD10R,0.0472X0.0315*%
%ADD11R,0.0709X0.0630*%
%ADD12R,0.2362X0.2756*%
%ADD13R,0.1000X0.2000*%
%ADD14C,0.0500*%
%ADD15C,0.0240*%
D10*
X058800Y005319D03*
X058800Y006028D03*
D11*
X047300Y006224D03*
X047300Y005122D03*
D12*
X030481Y002838D03*
X030481Y007460D03*
X030481Y012086D03*
X089143Y012086D03*
X089143Y007460D03*
X089143Y002838D03*
D13*
X054300Y007673D03*
X050800Y007673D03*
D14*
X044800Y007460D02*
X030481Y007460D01*
X030800Y005173D02*
X044800Y005173D01*
X044800Y002673D01*
X047300Y002673D01*
X058800Y002673D01*
X061300Y002673D01*
X061300Y005173D01*
X089300Y005173D01*
X089300Y002673D01*
X089143Y007460D02*
X061300Y007460D01*
X061300Y010173D02*
X089143Y010173D01*
X089143Y012086D01*
X061300Y012673D02*
X061300Y010173D01*
X061300Y012673D02*
X044800Y012673D01*
X044800Y010173D01*
X030800Y010173D01*
X030800Y012086D01*
X030481Y012086D01*
X030800Y005173D02*
X030800Y002838D01*
X030481Y002838D01*
D15*
X047300Y002673D02*
X047300Y005122D01*
X047300Y006224D02*
X047300Y007423D01*
X050925Y007423D01*
X054175Y007423D02*
X058800Y007423D01*
X058800Y006173D01*
X058800Y005319D02*
X058800Y002673D01*
X058800Y007423D02*
X058800Y007460D01*
X061300Y007460D01*
X047300Y007460D02*
X047300Y007423D01*
X047300Y007460D02*
X044800Y007460D01*
M02*
