G75*
G70*
%OFA0B0*%
%FSLAX24Y24*%
%IPPOS*%
%LPD*%
%AMOC8*
5,1,8,0,0,1.08239X$1,22.5*
%
%ADD10C,0.0000*%
D10*
X029300Y000173D02*
X029300Y014918D01*
X090292Y014918D01*
X090292Y000173D01*
X029300Y000173D01*
X036033Y001948D02*
X036035Y002004D01*
X036041Y002059D01*
X036051Y002113D01*
X036064Y002167D01*
X036082Y002220D01*
X036103Y002271D01*
X036127Y002321D01*
X036155Y002369D01*
X036187Y002415D01*
X036221Y002459D01*
X036259Y002500D01*
X036299Y002538D01*
X036342Y002573D01*
X036387Y002605D01*
X036435Y002634D01*
X036484Y002660D01*
X036535Y002682D01*
X036587Y002700D01*
X036641Y002714D01*
X036696Y002725D01*
X036751Y002732D01*
X036806Y002735D01*
X036862Y002734D01*
X036917Y002729D01*
X036972Y002720D01*
X037026Y002708D01*
X037079Y002691D01*
X037131Y002671D01*
X037181Y002647D01*
X037229Y002620D01*
X037276Y002590D01*
X037320Y002556D01*
X037362Y002519D01*
X037400Y002479D01*
X037437Y002437D01*
X037470Y002392D01*
X037499Y002346D01*
X037526Y002297D01*
X037548Y002246D01*
X037568Y002194D01*
X037583Y002140D01*
X037595Y002086D01*
X037603Y002031D01*
X037607Y001976D01*
X037607Y001920D01*
X037603Y001865D01*
X037595Y001810D01*
X037583Y001756D01*
X037568Y001702D01*
X037548Y001650D01*
X037526Y001599D01*
X037499Y001550D01*
X037470Y001504D01*
X037437Y001459D01*
X037400Y001417D01*
X037362Y001377D01*
X037320Y001340D01*
X037276Y001306D01*
X037229Y001276D01*
X037181Y001249D01*
X037131Y001225D01*
X037079Y001205D01*
X037026Y001188D01*
X036972Y001176D01*
X036917Y001167D01*
X036862Y001162D01*
X036806Y001161D01*
X036751Y001164D01*
X036696Y001171D01*
X036641Y001182D01*
X036587Y001196D01*
X036535Y001214D01*
X036484Y001236D01*
X036435Y001262D01*
X036387Y001291D01*
X036342Y001323D01*
X036299Y001358D01*
X036259Y001396D01*
X036221Y001437D01*
X036187Y001481D01*
X036155Y001527D01*
X036127Y001575D01*
X036103Y001625D01*
X036082Y001676D01*
X036064Y001729D01*
X036051Y001783D01*
X036041Y001837D01*
X036035Y001892D01*
X036033Y001948D01*
X082017Y001948D02*
X082019Y002004D01*
X082025Y002059D01*
X082035Y002113D01*
X082048Y002167D01*
X082066Y002220D01*
X082087Y002271D01*
X082111Y002321D01*
X082139Y002369D01*
X082171Y002415D01*
X082205Y002459D01*
X082243Y002500D01*
X082283Y002538D01*
X082326Y002573D01*
X082371Y002605D01*
X082419Y002634D01*
X082468Y002660D01*
X082519Y002682D01*
X082571Y002700D01*
X082625Y002714D01*
X082680Y002725D01*
X082735Y002732D01*
X082790Y002735D01*
X082846Y002734D01*
X082901Y002729D01*
X082956Y002720D01*
X083010Y002708D01*
X083063Y002691D01*
X083115Y002671D01*
X083165Y002647D01*
X083213Y002620D01*
X083260Y002590D01*
X083304Y002556D01*
X083346Y002519D01*
X083384Y002479D01*
X083421Y002437D01*
X083454Y002392D01*
X083483Y002346D01*
X083510Y002297D01*
X083532Y002246D01*
X083552Y002194D01*
X083567Y002140D01*
X083579Y002086D01*
X083587Y002031D01*
X083591Y001976D01*
X083591Y001920D01*
X083587Y001865D01*
X083579Y001810D01*
X083567Y001756D01*
X083552Y001702D01*
X083532Y001650D01*
X083510Y001599D01*
X083483Y001550D01*
X083454Y001504D01*
X083421Y001459D01*
X083384Y001417D01*
X083346Y001377D01*
X083304Y001340D01*
X083260Y001306D01*
X083213Y001276D01*
X083165Y001249D01*
X083115Y001225D01*
X083063Y001205D01*
X083010Y001188D01*
X082956Y001176D01*
X082901Y001167D01*
X082846Y001162D01*
X082790Y001161D01*
X082735Y001164D01*
X082680Y001171D01*
X082625Y001182D01*
X082571Y001196D01*
X082519Y001214D01*
X082468Y001236D01*
X082419Y001262D01*
X082371Y001291D01*
X082326Y001323D01*
X082283Y001358D01*
X082243Y001396D01*
X082205Y001437D01*
X082171Y001481D01*
X082139Y001527D01*
X082111Y001575D01*
X082087Y001625D01*
X082066Y001676D01*
X082048Y001729D01*
X082035Y001783D01*
X082025Y001837D01*
X082019Y001892D01*
X082017Y001948D01*
X082017Y012971D02*
X082019Y013027D01*
X082025Y013082D01*
X082035Y013136D01*
X082048Y013190D01*
X082066Y013243D01*
X082087Y013294D01*
X082111Y013344D01*
X082139Y013392D01*
X082171Y013438D01*
X082205Y013482D01*
X082243Y013523D01*
X082283Y013561D01*
X082326Y013596D01*
X082371Y013628D01*
X082419Y013657D01*
X082468Y013683D01*
X082519Y013705D01*
X082571Y013723D01*
X082625Y013737D01*
X082680Y013748D01*
X082735Y013755D01*
X082790Y013758D01*
X082846Y013757D01*
X082901Y013752D01*
X082956Y013743D01*
X083010Y013731D01*
X083063Y013714D01*
X083115Y013694D01*
X083165Y013670D01*
X083213Y013643D01*
X083260Y013613D01*
X083304Y013579D01*
X083346Y013542D01*
X083384Y013502D01*
X083421Y013460D01*
X083454Y013415D01*
X083483Y013369D01*
X083510Y013320D01*
X083532Y013269D01*
X083552Y013217D01*
X083567Y013163D01*
X083579Y013109D01*
X083587Y013054D01*
X083591Y012999D01*
X083591Y012943D01*
X083587Y012888D01*
X083579Y012833D01*
X083567Y012779D01*
X083552Y012725D01*
X083532Y012673D01*
X083510Y012622D01*
X083483Y012573D01*
X083454Y012527D01*
X083421Y012482D01*
X083384Y012440D01*
X083346Y012400D01*
X083304Y012363D01*
X083260Y012329D01*
X083213Y012299D01*
X083165Y012272D01*
X083115Y012248D01*
X083063Y012228D01*
X083010Y012211D01*
X082956Y012199D01*
X082901Y012190D01*
X082846Y012185D01*
X082790Y012184D01*
X082735Y012187D01*
X082680Y012194D01*
X082625Y012205D01*
X082571Y012219D01*
X082519Y012237D01*
X082468Y012259D01*
X082419Y012285D01*
X082371Y012314D01*
X082326Y012346D01*
X082283Y012381D01*
X082243Y012419D01*
X082205Y012460D01*
X082171Y012504D01*
X082139Y012550D01*
X082111Y012598D01*
X082087Y012648D01*
X082066Y012699D01*
X082048Y012752D01*
X082035Y012806D01*
X082025Y012860D01*
X082019Y012915D01*
X082017Y012971D01*
X036033Y012971D02*
X036035Y013027D01*
X036041Y013082D01*
X036051Y013136D01*
X036064Y013190D01*
X036082Y013243D01*
X036103Y013294D01*
X036127Y013344D01*
X036155Y013392D01*
X036187Y013438D01*
X036221Y013482D01*
X036259Y013523D01*
X036299Y013561D01*
X036342Y013596D01*
X036387Y013628D01*
X036435Y013657D01*
X036484Y013683D01*
X036535Y013705D01*
X036587Y013723D01*
X036641Y013737D01*
X036696Y013748D01*
X036751Y013755D01*
X036806Y013758D01*
X036862Y013757D01*
X036917Y013752D01*
X036972Y013743D01*
X037026Y013731D01*
X037079Y013714D01*
X037131Y013694D01*
X037181Y013670D01*
X037229Y013643D01*
X037276Y013613D01*
X037320Y013579D01*
X037362Y013542D01*
X037400Y013502D01*
X037437Y013460D01*
X037470Y013415D01*
X037499Y013369D01*
X037526Y013320D01*
X037548Y013269D01*
X037568Y013217D01*
X037583Y013163D01*
X037595Y013109D01*
X037603Y013054D01*
X037607Y012999D01*
X037607Y012943D01*
X037603Y012888D01*
X037595Y012833D01*
X037583Y012779D01*
X037568Y012725D01*
X037548Y012673D01*
X037526Y012622D01*
X037499Y012573D01*
X037470Y012527D01*
X037437Y012482D01*
X037400Y012440D01*
X037362Y012400D01*
X037320Y012363D01*
X037276Y012329D01*
X037229Y012299D01*
X037181Y012272D01*
X037131Y012248D01*
X037079Y012228D01*
X037026Y012211D01*
X036972Y012199D01*
X036917Y012190D01*
X036862Y012185D01*
X036806Y012184D01*
X036751Y012187D01*
X036696Y012194D01*
X036641Y012205D01*
X036587Y012219D01*
X036535Y012237D01*
X036484Y012259D01*
X036435Y012285D01*
X036387Y012314D01*
X036342Y012346D01*
X036299Y012381D01*
X036259Y012419D01*
X036221Y012460D01*
X036187Y012504D01*
X036155Y012550D01*
X036127Y012598D01*
X036103Y012648D01*
X036082Y012699D01*
X036064Y012752D01*
X036051Y012806D01*
X036041Y012860D01*
X036035Y012915D01*
X036033Y012971D01*
M02*
