G75*
G70*
%OFA0B0*%
%FSLAX24Y24*%
%IPPOS*%
%LPD*%
%AMOC8*
5,1,8,0,0,1.08239X$1,22.5*
%
%ADD10C,0.0010*%
D10*
X007643Y002329D02*
X007645Y002368D01*
X007651Y002406D01*
X007660Y002444D01*
X007674Y002480D01*
X007690Y002516D01*
X007711Y002549D01*
X007734Y002580D01*
X007761Y002608D01*
X007790Y002634D01*
X007821Y002657D01*
X007855Y002676D01*
X007891Y002692D01*
X007927Y002704D01*
X007965Y002713D01*
X008004Y002718D01*
X008043Y002719D01*
X008081Y002716D01*
X008120Y002709D01*
X008157Y002699D01*
X008193Y002684D01*
X008228Y002667D01*
X008261Y002646D01*
X008291Y002621D01*
X008319Y002594D01*
X008344Y002564D01*
X008366Y002532D01*
X008384Y002498D01*
X008399Y002462D01*
X008411Y002425D01*
X008419Y002387D01*
X008423Y002348D01*
X008423Y002310D01*
X008419Y002271D01*
X008411Y002233D01*
X008399Y002196D01*
X008384Y002160D01*
X008366Y002126D01*
X008344Y002094D01*
X008319Y002064D01*
X008291Y002037D01*
X008261Y002012D01*
X008228Y001991D01*
X008193Y001974D01*
X008157Y001959D01*
X008120Y001949D01*
X008081Y001942D01*
X008043Y001939D01*
X008004Y001940D01*
X007965Y001945D01*
X007927Y001954D01*
X007891Y001966D01*
X007855Y001982D01*
X007821Y002001D01*
X007790Y002024D01*
X007761Y002050D01*
X007734Y002078D01*
X007711Y002109D01*
X007690Y002142D01*
X007674Y002178D01*
X007660Y002214D01*
X007651Y002252D01*
X007645Y002290D01*
X007643Y002329D01*
X007633Y001929D02*
X008433Y002729D01*
X007643Y013352D02*
X007645Y013391D01*
X007651Y013429D01*
X007660Y013467D01*
X007674Y013503D01*
X007690Y013539D01*
X007711Y013572D01*
X007734Y013603D01*
X007761Y013631D01*
X007790Y013657D01*
X007821Y013680D01*
X007855Y013699D01*
X007891Y013715D01*
X007927Y013727D01*
X007965Y013736D01*
X008004Y013741D01*
X008043Y013742D01*
X008081Y013739D01*
X008120Y013732D01*
X008157Y013722D01*
X008193Y013707D01*
X008228Y013690D01*
X008261Y013669D01*
X008291Y013644D01*
X008319Y013617D01*
X008344Y013587D01*
X008366Y013555D01*
X008384Y013521D01*
X008399Y013485D01*
X008411Y013448D01*
X008419Y013410D01*
X008423Y013371D01*
X008423Y013333D01*
X008419Y013294D01*
X008411Y013256D01*
X008399Y013219D01*
X008384Y013183D01*
X008366Y013149D01*
X008344Y013117D01*
X008319Y013087D01*
X008291Y013060D01*
X008261Y013035D01*
X008228Y013014D01*
X008193Y012997D01*
X008157Y012982D01*
X008120Y012972D01*
X008081Y012965D01*
X008043Y012962D01*
X008004Y012963D01*
X007965Y012968D01*
X007927Y012977D01*
X007891Y012989D01*
X007855Y013005D01*
X007821Y013024D01*
X007790Y013047D01*
X007761Y013073D01*
X007734Y013101D01*
X007711Y013132D01*
X007690Y013165D01*
X007674Y013201D01*
X007660Y013237D01*
X007651Y013275D01*
X007645Y013313D01*
X007643Y013352D01*
X007633Y012952D02*
X008433Y013752D01*
X053627Y013352D02*
X053629Y013391D01*
X053635Y013429D01*
X053644Y013467D01*
X053658Y013503D01*
X053674Y013539D01*
X053695Y013572D01*
X053718Y013603D01*
X053745Y013631D01*
X053774Y013657D01*
X053805Y013680D01*
X053839Y013699D01*
X053875Y013715D01*
X053911Y013727D01*
X053949Y013736D01*
X053988Y013741D01*
X054027Y013742D01*
X054065Y013739D01*
X054104Y013732D01*
X054141Y013722D01*
X054177Y013707D01*
X054212Y013690D01*
X054245Y013669D01*
X054275Y013644D01*
X054303Y013617D01*
X054328Y013587D01*
X054350Y013555D01*
X054368Y013521D01*
X054383Y013485D01*
X054395Y013448D01*
X054403Y013410D01*
X054407Y013371D01*
X054407Y013333D01*
X054403Y013294D01*
X054395Y013256D01*
X054383Y013219D01*
X054368Y013183D01*
X054350Y013149D01*
X054328Y013117D01*
X054303Y013087D01*
X054275Y013060D01*
X054245Y013035D01*
X054212Y013014D01*
X054177Y012997D01*
X054141Y012982D01*
X054104Y012972D01*
X054065Y012965D01*
X054027Y012962D01*
X053988Y012963D01*
X053949Y012968D01*
X053911Y012977D01*
X053875Y012989D01*
X053839Y013005D01*
X053805Y013024D01*
X053774Y013047D01*
X053745Y013073D01*
X053718Y013101D01*
X053695Y013132D01*
X053674Y013165D01*
X053658Y013201D01*
X053644Y013237D01*
X053635Y013275D01*
X053629Y013313D01*
X053627Y013352D01*
X053617Y012952D02*
X054417Y013752D01*
X053627Y002329D02*
X053629Y002368D01*
X053635Y002406D01*
X053644Y002444D01*
X053658Y002480D01*
X053674Y002516D01*
X053695Y002549D01*
X053718Y002580D01*
X053745Y002608D01*
X053774Y002634D01*
X053805Y002657D01*
X053839Y002676D01*
X053875Y002692D01*
X053911Y002704D01*
X053949Y002713D01*
X053988Y002718D01*
X054027Y002719D01*
X054065Y002716D01*
X054104Y002709D01*
X054141Y002699D01*
X054177Y002684D01*
X054212Y002667D01*
X054245Y002646D01*
X054275Y002621D01*
X054303Y002594D01*
X054328Y002564D01*
X054350Y002532D01*
X054368Y002498D01*
X054383Y002462D01*
X054395Y002425D01*
X054403Y002387D01*
X054407Y002348D01*
X054407Y002310D01*
X054403Y002271D01*
X054395Y002233D01*
X054383Y002196D01*
X054368Y002160D01*
X054350Y002126D01*
X054328Y002094D01*
X054303Y002064D01*
X054275Y002037D01*
X054245Y002012D01*
X054212Y001991D01*
X054177Y001974D01*
X054141Y001959D01*
X054104Y001949D01*
X054065Y001942D01*
X054027Y001939D01*
X053988Y001940D01*
X053949Y001945D01*
X053911Y001954D01*
X053875Y001966D01*
X053839Y001982D01*
X053805Y002001D01*
X053774Y002024D01*
X053745Y002050D01*
X053718Y002078D01*
X053695Y002109D01*
X053674Y002142D01*
X053658Y002178D01*
X053644Y002214D01*
X053635Y002252D01*
X053629Y002290D01*
X053627Y002329D01*
X053617Y001929D02*
X054417Y002729D01*
M02*
