G75*
G70*
%OFA0B0*%
%FSLAX24Y24*%
%IPPOS*%
%LPD*%
%AMOC8*
5,1,8,0,0,1.08239X$1,22.5*
%
%ADD10C,0.0000*%
D10*
X000513Y000513D02*
X000513Y015179D01*
X061537Y015179D01*
X061537Y000513D01*
X000513Y000513D01*
X007246Y002329D02*
X007248Y002385D01*
X007254Y002440D01*
X007264Y002494D01*
X007277Y002548D01*
X007295Y002601D01*
X007316Y002652D01*
X007340Y002702D01*
X007368Y002750D01*
X007400Y002796D01*
X007434Y002840D01*
X007472Y002881D01*
X007512Y002919D01*
X007555Y002954D01*
X007600Y002986D01*
X007648Y003015D01*
X007697Y003041D01*
X007748Y003063D01*
X007800Y003081D01*
X007854Y003095D01*
X007909Y003106D01*
X007964Y003113D01*
X008019Y003116D01*
X008075Y003115D01*
X008130Y003110D01*
X008185Y003101D01*
X008239Y003089D01*
X008292Y003072D01*
X008344Y003052D01*
X008394Y003028D01*
X008442Y003001D01*
X008489Y002971D01*
X008533Y002937D01*
X008575Y002900D01*
X008613Y002860D01*
X008650Y002818D01*
X008683Y002773D01*
X008712Y002727D01*
X008739Y002678D01*
X008761Y002627D01*
X008781Y002575D01*
X008796Y002521D01*
X008808Y002467D01*
X008816Y002412D01*
X008820Y002357D01*
X008820Y002301D01*
X008816Y002246D01*
X008808Y002191D01*
X008796Y002137D01*
X008781Y002083D01*
X008761Y002031D01*
X008739Y001980D01*
X008712Y001931D01*
X008683Y001885D01*
X008650Y001840D01*
X008613Y001798D01*
X008575Y001758D01*
X008533Y001721D01*
X008489Y001687D01*
X008442Y001657D01*
X008394Y001630D01*
X008344Y001606D01*
X008292Y001586D01*
X008239Y001569D01*
X008185Y001557D01*
X008130Y001548D01*
X008075Y001543D01*
X008019Y001542D01*
X007964Y001545D01*
X007909Y001552D01*
X007854Y001563D01*
X007800Y001577D01*
X007748Y001595D01*
X007697Y001617D01*
X007648Y001643D01*
X007600Y001672D01*
X007555Y001704D01*
X007512Y001739D01*
X007472Y001777D01*
X007434Y001818D01*
X007400Y001862D01*
X007368Y001908D01*
X007340Y001956D01*
X007316Y002006D01*
X007295Y002057D01*
X007277Y002110D01*
X007264Y002164D01*
X007254Y002218D01*
X007248Y002273D01*
X007246Y002329D01*
X007246Y013352D02*
X007248Y013408D01*
X007254Y013463D01*
X007264Y013517D01*
X007277Y013571D01*
X007295Y013624D01*
X007316Y013675D01*
X007340Y013725D01*
X007368Y013773D01*
X007400Y013819D01*
X007434Y013863D01*
X007472Y013904D01*
X007512Y013942D01*
X007555Y013977D01*
X007600Y014009D01*
X007648Y014038D01*
X007697Y014064D01*
X007748Y014086D01*
X007800Y014104D01*
X007854Y014118D01*
X007909Y014129D01*
X007964Y014136D01*
X008019Y014139D01*
X008075Y014138D01*
X008130Y014133D01*
X008185Y014124D01*
X008239Y014112D01*
X008292Y014095D01*
X008344Y014075D01*
X008394Y014051D01*
X008442Y014024D01*
X008489Y013994D01*
X008533Y013960D01*
X008575Y013923D01*
X008613Y013883D01*
X008650Y013841D01*
X008683Y013796D01*
X008712Y013750D01*
X008739Y013701D01*
X008761Y013650D01*
X008781Y013598D01*
X008796Y013544D01*
X008808Y013490D01*
X008816Y013435D01*
X008820Y013380D01*
X008820Y013324D01*
X008816Y013269D01*
X008808Y013214D01*
X008796Y013160D01*
X008781Y013106D01*
X008761Y013054D01*
X008739Y013003D01*
X008712Y012954D01*
X008683Y012908D01*
X008650Y012863D01*
X008613Y012821D01*
X008575Y012781D01*
X008533Y012744D01*
X008489Y012710D01*
X008442Y012680D01*
X008394Y012653D01*
X008344Y012629D01*
X008292Y012609D01*
X008239Y012592D01*
X008185Y012580D01*
X008130Y012571D01*
X008075Y012566D01*
X008019Y012565D01*
X007964Y012568D01*
X007909Y012575D01*
X007854Y012586D01*
X007800Y012600D01*
X007748Y012618D01*
X007697Y012640D01*
X007648Y012666D01*
X007600Y012695D01*
X007555Y012727D01*
X007512Y012762D01*
X007472Y012800D01*
X007434Y012841D01*
X007400Y012885D01*
X007368Y012931D01*
X007340Y012979D01*
X007316Y013029D01*
X007295Y013080D01*
X007277Y013133D01*
X007264Y013187D01*
X007254Y013241D01*
X007248Y013296D01*
X007246Y013352D01*
X053230Y013352D02*
X053232Y013408D01*
X053238Y013463D01*
X053248Y013517D01*
X053261Y013571D01*
X053279Y013624D01*
X053300Y013675D01*
X053324Y013725D01*
X053352Y013773D01*
X053384Y013819D01*
X053418Y013863D01*
X053456Y013904D01*
X053496Y013942D01*
X053539Y013977D01*
X053584Y014009D01*
X053632Y014038D01*
X053681Y014064D01*
X053732Y014086D01*
X053784Y014104D01*
X053838Y014118D01*
X053893Y014129D01*
X053948Y014136D01*
X054003Y014139D01*
X054059Y014138D01*
X054114Y014133D01*
X054169Y014124D01*
X054223Y014112D01*
X054276Y014095D01*
X054328Y014075D01*
X054378Y014051D01*
X054426Y014024D01*
X054473Y013994D01*
X054517Y013960D01*
X054559Y013923D01*
X054597Y013883D01*
X054634Y013841D01*
X054667Y013796D01*
X054696Y013750D01*
X054723Y013701D01*
X054745Y013650D01*
X054765Y013598D01*
X054780Y013544D01*
X054792Y013490D01*
X054800Y013435D01*
X054804Y013380D01*
X054804Y013324D01*
X054800Y013269D01*
X054792Y013214D01*
X054780Y013160D01*
X054765Y013106D01*
X054745Y013054D01*
X054723Y013003D01*
X054696Y012954D01*
X054667Y012908D01*
X054634Y012863D01*
X054597Y012821D01*
X054559Y012781D01*
X054517Y012744D01*
X054473Y012710D01*
X054426Y012680D01*
X054378Y012653D01*
X054328Y012629D01*
X054276Y012609D01*
X054223Y012592D01*
X054169Y012580D01*
X054114Y012571D01*
X054059Y012566D01*
X054003Y012565D01*
X053948Y012568D01*
X053893Y012575D01*
X053838Y012586D01*
X053784Y012600D01*
X053732Y012618D01*
X053681Y012640D01*
X053632Y012666D01*
X053584Y012695D01*
X053539Y012727D01*
X053496Y012762D01*
X053456Y012800D01*
X053418Y012841D01*
X053384Y012885D01*
X053352Y012931D01*
X053324Y012979D01*
X053300Y013029D01*
X053279Y013080D01*
X053261Y013133D01*
X053248Y013187D01*
X053238Y013241D01*
X053232Y013296D01*
X053230Y013352D01*
X053230Y002329D02*
X053232Y002385D01*
X053238Y002440D01*
X053248Y002494D01*
X053261Y002548D01*
X053279Y002601D01*
X053300Y002652D01*
X053324Y002702D01*
X053352Y002750D01*
X053384Y002796D01*
X053418Y002840D01*
X053456Y002881D01*
X053496Y002919D01*
X053539Y002954D01*
X053584Y002986D01*
X053632Y003015D01*
X053681Y003041D01*
X053732Y003063D01*
X053784Y003081D01*
X053838Y003095D01*
X053893Y003106D01*
X053948Y003113D01*
X054003Y003116D01*
X054059Y003115D01*
X054114Y003110D01*
X054169Y003101D01*
X054223Y003089D01*
X054276Y003072D01*
X054328Y003052D01*
X054378Y003028D01*
X054426Y003001D01*
X054473Y002971D01*
X054517Y002937D01*
X054559Y002900D01*
X054597Y002860D01*
X054634Y002818D01*
X054667Y002773D01*
X054696Y002727D01*
X054723Y002678D01*
X054745Y002627D01*
X054765Y002575D01*
X054780Y002521D01*
X054792Y002467D01*
X054800Y002412D01*
X054804Y002357D01*
X054804Y002301D01*
X054800Y002246D01*
X054792Y002191D01*
X054780Y002137D01*
X054765Y002083D01*
X054745Y002031D01*
X054723Y001980D01*
X054696Y001931D01*
X054667Y001885D01*
X054634Y001840D01*
X054597Y001798D01*
X054559Y001758D01*
X054517Y001721D01*
X054473Y001687D01*
X054426Y001657D01*
X054378Y001630D01*
X054328Y001606D01*
X054276Y001586D01*
X054223Y001569D01*
X054169Y001557D01*
X054114Y001548D01*
X054059Y001543D01*
X054003Y001542D01*
X053948Y001545D01*
X053893Y001552D01*
X053838Y001563D01*
X053784Y001577D01*
X053732Y001595D01*
X053681Y001617D01*
X053632Y001643D01*
X053584Y001672D01*
X053539Y001704D01*
X053496Y001739D01*
X053456Y001777D01*
X053418Y001818D01*
X053384Y001862D01*
X053352Y001908D01*
X053324Y001956D01*
X053300Y002006D01*
X053279Y002057D01*
X053261Y002110D01*
X053248Y002164D01*
X053238Y002218D01*
X053232Y002273D01*
X053230Y002329D01*
M02*
