  0
SECTION
  2
HEADER
  9
$ACADVER
  1
AC1018
  9
$ACADMAINTVER
 70
     0
  9
$DWGCODEPAGE
  3
ANSI_932
  9
$INSBASE
 10
0.0
 20
0.0
 30
0.0
  9
$EXTMIN
 10
1.000000000000000E+20
 20
1.000000000000000E+20
 30
1.000000000000000E+20
  9
$EXTMAX
 10
-1.000000000000000E+20
 20
-1.000000000000000E+20
 30
-1.000000000000000E+20
  9
$LIMMIN
 10
0.0
 20
0.0
  9
$LIMMAX
 10
12.0
 20
9.0
  9
$ORTHOMODE
 70
     0
  9
$REGENMODE
 70
     1
  9
$FILLMODE
 70
     1
  9
$QTEXTMODE
 70
     0
  9
$MIRRTEXT
 70
     1
  9
$LTSCALE
 40
1.0
  9
$ATTMODE
 70
     1
  9
$TEXTSIZE
 40
0.2
  9
$TRACEWID
 40
0.05
  9
$TEXTSTYLE
  7
Standard
  9
$CLAYER
  8
0
  9
$CELTYPE
  6
ByLayer
  9
$CECOLOR
 62
   256
  9
$CELTSCALE
 40
1.0
  9
$DISPSILH
 70
     0
  9
$DIMSCALE
 40
1.0
  9
$DIMASZ
 40
0.18
  9
$DIMEXO
 40
0.0625
  9
$DIMDLI
 40
0.38
  9
$DIMRND
 40
0.0
  9
$DIMDLE
 40
0.0
  9
$DIMEXE
 40
0.18
  9
$DIMTP
 40
0.0
  9
$DIMTM
 40
0.0
  9
$DIMTXT
 40
0.18
  9
$DIMCEN
 40
0.09
  9
$DIMTSZ
 40
0.0
  9
$DIMTOL
 70
     0
  9
$DIMLIM
 70
     0
  9
$DIMTIH
 70
     1
  9
$DIMTOH
 70
     1
  9
$DIMSE1
 70
     0
  9
$DIMSE2
 70
     0
  9
$DIMTAD
 70
     0
  9
$DIMZIN
 70
     0
  9
$DIMBLK
  1

  9
$DIMASO
 70
     1
  9
$DIMSHO
 70
     1
  9
$DIMPOST
  1

  9
$DIMAPOST
  1

  9
$DIMALT
 70
     0
  9
$DIMALTD
 70
     2
  9
$DIMALTF
 40
25.4
  9
$DIMLFAC
 40
1.0
  9
$DIMTOFL
 70
     0
  9
$DIMTVP
 40
0.0
  9
$DIMTIX
 70
     0
  9
$DIMSOXD
 70
     0
  9
$DIMSAH
 70
     0
  9
$DIMBLK1
  1

  9
$DIMBLK2
  1

  9
$DIMSTYLE
  2
Standard
  9
$DIMCLRD
 70
     0
  9
$DIMCLRE
 70
     0
  9
$DIMCLRT
 70
     0
  9
$DIMTFAC
 40
1.0
  9
$DIMGAP
 40
0.09
  9
$DIMJUST
 70
     0
  9
$DIMSD1
 70
     0
  9
$DIMSD2
 70
     0
  9
$DIMTOLJ
 70
     1
  9
$DIMTZIN
 70
     0
  9
$DIMALTZ
 70
     0
  9
$DIMALTTZ
 70
     0
  9
$DIMUPT
 70
     0
  9
$DIMDEC
 70
     4
  9
$DIMTDEC
 70
     4
  9
$DIMALTU
 70
     2
  9
$DIMALTTD
 70
     2
  9
$DIMTXSTY
  7
Standard
  9
$DIMAUNIT
 70
     0
  9
$DIMADEC
 70
     0
  9
$DIMALTRND
 40
0.0
  9
$DIMAZIN
 70
     0
  9
$DIMDSEP
 70
    46
  9
$DIMATFIT
 70
     3
  9
$DIMFRAC
 70
     0
  9
$DIMLDRBLK
  1

  9
$DIMLUNIT
 70
     2
  9
$DIMLWD
 70
    -2
  9
$DIMLWE
 70
    -2
  9
$DIMTMOVE
 70
     0
  9
$LUNITS
 70
     2
  9
$LUPREC
 70
     4
  9
$SKETCHINC
 40
0.1
  9
$FILLETRAD
 40
0.5
  9
$AUNITS
 70
     0
  9
$AUPREC
 70
     0
  9
$MENU
  1
.
  9
$ELEVATION
 40
0.0
  9
$PELEVATION
 40
0.0
  9
$THICKNESS
 40
0.0
  9
$LIMCHECK
 70
     0
  9
$CHAMFERA
 40
0.5
  9
$CHAMFERB
 40
0.5
  9
$CHAMFERC
 40
1.0
  9
$CHAMFERD
 40
0.0
  9
$SKPOLY
 70
     0
  9
$TDCREATE
 40
2456372.4028125
  9
$TDUCREATE
 40
2456372.5278125
  9
$TDUPDATE
 40
2456372.402812512
  9
$TDUUPDATE
 40
2456372.527812512
  9
$TDINDWG
 40
0.0000000116
  9
$TDUSRTIMER
 40
0.0000000116
  9
$USRTIMER
 70
     1
  9
$ANGBASE
 50
0.0
  9
$ANGDIR
 70
     0
  9
$PDMODE
 70
     0
  9
$PDSIZE
 40
0.0
  9
$PLINEWID
 40
0.0
  9
$SPLFRAME
 70
     0
  9
$SPLINETYPE
 70
     6
  9
$SPLINESEGS
 70
     8
  9
$HANDSEED
  5
57
  9
$SURFTAB1
 70
     6
  9
$SURFTAB2
 70
     6
  9
$SURFTYPE
 70
     6
  9
$SURFU
 70
     6
  9
$SURFV
 70
     6
  9
$UCSBASE
  2

  9
$UCSNAME
  2

  9
$UCSORG
 10
0.0
 20
0.0
 30
0.0
  9
$UCSXDIR
 10
1.0
 20
0.0
 30
0.0
  9
$UCSYDIR
 10
0.0
 20
1.0
 30
0.0
  9
$UCSORTHOREF
  2

  9
$UCSORTHOVIEW
 70
     0
  9
$UCSORGTOP
 10
0.0
 20
0.0
 30
0.0
  9
$UCSORGBOTTOM
 10
0.0
 20
0.0
 30
0.0
  9
$UCSORGLEFT
 10
0.0
 20
0.0
 30
0.0
  9
$UCSORGRIGHT
 10
0.0
 20
0.0
 30
0.0
  9
$UCSORGFRONT
 10
0.0
 20
0.0
 30
0.0
  9
$UCSORGBACK
 10
0.0
 20
0.0
 30
0.0
  9
$PUCSBASE
  2

  9
$PUCSNAME
  2

  9
$PUCSORG
 10
0.0
 20
0.0
 30
0.0
  9
$PUCSXDIR
 10
1.0
 20
0.0
 30
0.0
  9
$PUCSYDIR
 10
0.0
 20
1.0
 30
0.0
  9
$PUCSORTHOREF
  2

  9
$PUCSORTHOVIEW
 70
     0
  9
$PUCSORGTOP
 10
0.0
 20
0.0
 30
0.0
  9
$PUCSORGBOTTOM
 10
0.0
 20
0.0
 30
0.0
  9
$PUCSORGLEFT
 10
0.0
 20
0.0
 30
0.0
  9
$PUCSORGRIGHT
 10
0.0
 20
0.0
 30
0.0
  9
$PUCSORGFRONT
 10
0.0
 20
0.0
 30
0.0
  9
$PUCSORGBACK
 10
0.0
 20
0.0
 30
0.0
  9
$USERI1
 70
     0
  9
$USERI2
 70
     0
  9
$USERI3
 70
     0
  9
$USERI4
 70
     0
  9
$USERI5
 70
     0
  9
$USERR1
 40
0.0
  9
$USERR2
 40
0.0
  9
$USERR3
 40
0.0
  9
$USERR4
 40
0.0
  9
$USERR5
 40
0.0
  9
$WORLDVIEW
 70
     1
  9
$SHADEDGE
 70
     3
  9
$SHADEDIF
 70
    70
  9
$TILEMODE
 70
     1
  9
$MAXACTVP
 70
    64
  9
$PINSBASE
 10
0.0
 20
0.0
 30
0.0
  9
$PLIMCHECK
 70
     0
  9
$PEXTMIN
 10
1.000000000000000E+20
 20
1.000000000000000E+20
 30
1.000000000000000E+20
  9
$PEXTMAX
 10
-1.000000000000000E+20
 20
-1.000000000000000E+20
 30
-1.000000000000000E+20
  9
$PLIMMIN
 10
0.0
 20
0.0
  9
$PLIMMAX
 10
12.0
 20
9.0
  9
$UNITMODE
 70
     0
  9
$VISRETAIN
 70
     1
  9
$PLINEGEN
 70
     0
  9
$PSLTSCALE
 70
     1
  9
$TREEDEPTH
 70
  3020
  9
$CMLSTYLE
  2
Standard
  9
$CMLJUST
 70
     0
  9
$CMLSCALE
 40
1.0
  9
$PROXYGRAPHICS
 70
     1
  9
$MEASUREMENT
 70
     0
  9
$CELWEIGHT
370
    -1
  9
$ENDCAPS
280
     0
  9
$JOINSTYLE
280
     0
  9
$LWDISPLAY
290
     1
  9
$INSUNITS
 70
     1
  9
$HYPERLINKBASE
  1

  9
$STYLESHEET
  1

  9
$XEDIT
290
     1
  9
$CEPSNTYPE
380
     0
  9
$PSTYLEMODE
290
     1
  9
$FINGERPRINTGUID
  2
{66ECFB1C-953C-FF1B-554F-AFF1D80D8421}
  9
$VERSIONGUID
  2
{FAEB1C32-E019-11D5-929B-00C0DF256EC4}
  9
$EXTNAMES
290
     1
  9
$PSVPSCALE
 40
0.0
  9
$OLESTARTUP
290
     0
  9
$SORTENTS
280
   127
  9
$INDEXCTL
280
     0
  9
$HIDETEXT
280
     1
  9
$XCLIPFRAME
290
     0
  9
$HALOGAP
280
     0
  9
$OBSCOLOR
 70
   257
  9
$OBSLTYPE
280
     0
  9
$INTERSECTIONDISPLAY
280
     0
  9
$INTERSECTIONCOLOR
 70
   257
  9
$DIMASSOC
280
     2
  9
$PROJECTNAME
  1

  0
ENDSEC
  0
SECTION
  2
CLASSES
  0
CLASS
  1
ACDBDICTIONARYWDFLT
  2
AcDbDictionaryWithDefault
  3
ObjectDBX Classes
 90
        0
 91
        3
280
     0
281
     0
  0
CLASS
  1
VISUALSTYLE
  2
AcDbVisualStyle
  3
ObjectDBX Classes
 90
     4095
 91
        3
280
     0
281
     0
  0
ENDSEC
  0
SECTION
  2
TABLES
  0
TABLE
  2
VPORT
  5
8
330
0
100
AcDbSymbolTable
 70
     1
  0
VPORT
  5
29
330
8
100
AcDbSymbolTableRecord
100
AcDbViewportTableRecord
  2
*Active
 70
     0
 10
0.0
 20
0.0
 11
1.0
 21
1.0
 12
0.0
 22
0.0
 13
0.0
 23
0.0
 14
0.5
 24
0.5
 15
0.5
 25
0.5
 16
0.0
 26
0.0
 36
1.0
 17
24.85843098336873
 27
-49.85828313640696
 37
0.0
 40
249.9998995685764
 41
0.8000011024309982
 42
50.0
 43
0.0
 44
0.0
 50
0.0
 51
0.0
 71
     0
 72
   100
 73
     1
 74
     3
 75
     0
 76
     0
 77
     0
 78
     0
281
     0
 65
     1
110
0.0
120
0.0
130
0.0
111
1.0
121
0.0
131
0.0
112
0.0
122
1.0
132
0.0
 79
     0
146
0.0
  0
ENDTAB
  0
TABLE
  2
LTYPE
  5
5
330
0
100
AcDbSymbolTable
 70
     1
  0
LTYPE
  5
14
330
5
100
AcDbSymbolTableRecord
100
AcDbLinetypeTableRecord
  2
ByBlock
 70
     0
  3

 72
    65
 73
     0
 40
0.0
  0
LTYPE
  5
15
330
5
100
AcDbSymbolTableRecord
100
AcDbLinetypeTableRecord
  2
ByLayer
 70
     0
  3

 72
    65
 73
     0
 40
0.0
  0
LTYPE
  5
16
330
5
100
AcDbSymbolTableRecord
100
AcDbLinetypeTableRecord
  2
Continuous
 70
     0
  3
Solid line
 72
    65
 73
     0
 40
0.0
  0
ENDTAB
  0
TABLE
  2
LAYER
  5
2
330
0
100
AcDbSymbolTable
 70
     2
  0
LAYER
  5
10
330
2
100
AcDbSymbolTableRecord
100
AcDbLayerTableRecord
  2
0
 70
     0
 62
     7
  6
Continuous
370
    -3
390
F
  0
LAYER
  5
3B
330
2
100
AcDbSymbolTableRecord
100
AcDbLayerTableRecord
  2
Layer 1
 70
     0
 62
     7
  6
Continuous
370
    -3
390
F
  0
ENDTAB
  0
TABLE
  2
STYLE
  5
3
330
0
100
AcDbSymbolTable
 70
     1
  0
STYLE
  5
11
330
3
100
AcDbSymbolTableRecord
100
AcDbTextStyleTableRecord
  2
Standard
 70
     0
 40
0.0
 41
1.0
 50
0.0
 71
     0
 42
0.2
  3
txt
  4

  0
ENDTAB
  0
TABLE
  2
VIEW
  5
6
330
0
100
AcDbSymbolTable
 70
     0
  0
ENDTAB
  0
TABLE
  2
UCS
  5
7
330
0
100
AcDbSymbolTable
 70
     0
  0
ENDTAB
  0
TABLE
  2
APPID
  5
9
330
0
100
AcDbSymbolTable
 70
     1
  0
APPID
  5
12
330
9
100
AcDbSymbolTableRecord
100
AcDbRegAppTableRecord
  2
ACAD
 70
     0
  0
ENDTAB
  0
TABLE
  2
DIMSTYLE
  5
A
330
0
100
AcDbSymbolTable
 70
     1
100
AcDbDimStyleTable
  0
DIMSTYLE
105
27
330
A
100
AcDbSymbolTableRecord
100
AcDbDimStyleTableRecord
  2
Standard
 70
     0
340
11
  0
ENDTAB
  0
TABLE
  2
BLOCK_RECORD
  5
1
330
0
100
AcDbSymbolTable
 70
     1
  0
BLOCK_RECORD
  5
1F
330
1
100
AcDbSymbolTableRecord
100
AcDbBlockTableRecord
  2
*Model_Space
340
22
  0
BLOCK_RECORD
  5
1B
330
1
100
AcDbSymbolTableRecord
100
AcDbBlockTableRecord
  2
*Paper_Space
340
1E
  0
BLOCK_RECORD
  5
23
330
1
100
AcDbSymbolTableRecord
100
AcDbBlockTableRecord
  2
*Paper_Space0
340
26
  0
ENDTAB
  0
ENDSEC
  0
SECTION
  2
BLOCKS
  0
BLOCK
  5
20
330
1F
100
AcDbEntity
  8
0
100
AcDbBlockBegin
  2
*Model_Space
 70
     0
 71
     0
 10
0.0
 20
0.0
 30
0.0
  3
*Model_Space
  1

  0
ENDBLK
  5
21
330
1F
100
AcDbEntity
  8
0
100
AcDbBlockEnd
  0
BLOCK
  5
1C
330
1B
100
AcDbEntity
 67
     1
  8
0
100
AcDbBlockBegin
  2
*Paper_Space
 70
     0
 71
     0
 10
0.0
 20
0.0
 30
0.0
  3
*Paper_Space
  1

  0
ENDBLK
  5
1D
330
1B
100
AcDbEntity
 67
     1
  8
0
100
AcDbBlockEnd
  0
BLOCK
  5
24
330
23
100
AcDbEntity
  8
0
100
AcDbBlockBegin
  2
*Paper_Space0
 70
     0
 71
     0
 10
0.0
 20
0.0
 30
0.0
  3
*Paper_Space0
  1

  0
ENDBLK
  5
25
330
23
100
AcDbEntity
  8
0
100
AcDbBlockEnd
  0
ENDSEC
  0
SECTION
  2
ENTITIES
  0
SPLINE
  5
3C
330
1F
100
AcDbEntity
  8
Layer 1
 62
   179
420
  2301728
370
     9
100
AcDbSpline
210
0.0
220
0.0
230
1.0
 70
    11
 71
     3
 72
    17
 73
    13
 74
     0
 42
0.0000000001
 43
0.0000000001
 40
0.0
 40
0.0
 40
0.0
 40
0.0
 40
1.0
 40
1.0
 40
1.0
 40
2.0
 40
2.0
 40
2.0
 40
3.0
 40
3.0
 40
3.0
 40
4.0
 40
4.0
 40
4.0
 40
4.0
 10
-5.14163275696112
 20
65.14158798284654
 30
0.0
 10
-5.14163275696112
 20
62.38017169664455
 30
0.0
 10
-7.380255803276464
 20
60.1415486503292
 30
0.0
 10
-10.14167208947847
 20
60.1415486503292
 30
0.0
 10
-12.90308837568048
 20
60.1415486503292
 30
0.0
 10
-15.14171142199582
 20
62.38017169664455
 30
0.0
 10
-15.14171142199582
 20
65.14158798284654
 30
0.0
 10
-15.14171142199582
 20
67.90300426904855
 30
0.0
 10
-12.90308837568048
 20
70.1416273153639
 30
0.0
 10
-10.14167208947847
 20
70.1416273153639
 30
0.0
 10
-7.380255803276464
 20
70.1416273153639
 30
0.0
 10
-5.14163275696112
 20
67.90300426904855
 30
0.0
 10
-5.14163275696112
 20
65.14158798284654
 30
0.0
  0
SPLINE
  5
3D
330
1F
100
AcDbEntity
  8
Layer 1
 62
   179
420
  2301728
370
     9
100
AcDbSpline
210
0.0
220
0.0
230
1.0
 70
    11
 71
     3
 72
    17
 73
    13
 74
     0
 42
0.0000000001
 43
0.0000000001
 40
0.0
 40
0.0
 40
0.0
 40
0.0
 40
1.0
 40
1.0
 40
1.0
 40
2.0
 40
2.0
 40
2.0
 40
3.0
 40
3.0
 40
3.0
 40
4.0
 40
4.0
 40
4.0
 40
4.0
 10
76.85835772818125
 20
-164.8588432747575
 30
0.0
 10
76.85835772818125
 20
-165.9629963777801
 30
0.0
 10
75.96297741156482
 20
-166.8583766943965
 30
0.0
 10
74.85847979899371
 20
-166.8583766943965
 30
0.0
 10
73.75398218642262
 20
-166.8583766943965
 30
0.0
 10
72.85860186980618
 20
-165.9629963777801
 30
0.0
 10
72.85860186980618
 20
-164.8588432747575
 30
0.0
 10
72.85860186980618
 20
-163.7540011526379
 30
0.0
 10
73.75398218642262
 20
-162.8586208360215
 30
0.0
 10
74.85847979899371
 20
-162.8586208360215
 30
0.0
 10
75.96297741156482
 20
-162.8586208360215
 30
0.0
 10
76.85835772818125
 20
-163.7540011526379
 30
0.0
 10
76.85835772818125
 20
-164.8588432747575
 30
0.0
  0
SPLINE
  5
3E
330
1F
100
AcDbEntity
  8
Layer 1
 62
   179
420
  2301728
370
     9
100
AcDbSpline
210
0.0
220
0.0
230
1.0
 70
    11
 71
     3
 72
    17
 73
    13
 74
     0
 42
0.0000000001
 43
0.0000000001
 40
0.0
 40
0.0
 40
0.0
 40
0.0
 40
1.0
 40
1.0
 40
1.0
 40
2.0
 40
2.0
 40
2.0
 40
3.0
 40
3.0
 40
3.0
 40
4.0
 40
4.0
 40
4.0
 40
4.0
 10
-23.14173990306873
 20
-164.858498765209
 30
0.0
 10
-23.14173990306873
 20
-165.9629963777801
 30
0.0
 10
-24.03712021968516
 20
-166.8583766943965
 30
0.0
 10
-25.14161783225626
 20
-166.8583766943965
 30
0.0
 10
-26.24628769960162
 20
-166.8583766943965
 30
0.0
 10
-27.14166801621806
 20
-165.9629963777801
 30
0.0
 10
-27.14166801621806
 20
-164.858498765209
 30
0.0
 10
-27.14166801621806
 20
-163.7540011526379
 30
0.0
 10
-26.24628769960162
 20
-162.8582763264729
 30
0.0
 10
-25.14161783225626
 20
-162.8582763264729
 30
0.0
 10
-24.03712021968516
 20
-162.8582763264729
 30
0.0
 10
-23.14173990306873
 20
-163.7540011526379
 30
0.0
 10
-23.14173990306873
 20
-164.858498765209
 30
0.0
  0
SPLINE
  5
3F
330
1F
100
AcDbEntity
  8
Layer 1
 62
   179
420
  2301728
370
     9
100
AcDbSpline
210
0.0
220
0.0
230
1.0
 70
    11
 71
     3
 72
    17
 73
    13
 74
     0
 42
0.0000000001
 43
0.0000000001
 40
0.0
 40
0.0
 40
0.0
 40
0.0
 40
1.0
 40
1.0
 40
1.0
 40
2.0
 40
2.0
 40
2.0
 40
3.0
 40
3.0
 40
3.0
 40
4.0
 40
4.0
 40
4.0
 40
4.0
 10
76.85835772818125
 20
-64.85840113395902
 30
0.0
 10
76.85835772818125
 20
-65.96255423698159
 30
0.0
 10
75.96297741156482
 20
-66.85827906314654
 30
0.0
 10
74.85847979899371
 20
-66.85827906314654
 30
0.0
 10
73.75398218642262
 20
-66.85827906314654
 30
0.0
 10
72.85860186980618
 20
-65.96255423698159
 30
0.0
 10
72.85860186980618
 20
-64.85840113395902
 30
0.0
 10
72.85860186980618
 20
-63.75390352138792
 30
0.0
 10
73.75398218642262
 20
-62.85817869522296
 30
0.0
 10
74.85847979899371
 20
-62.85817869522296
 30
0.0
 10
75.96297741156482
 20
-62.85817869522296
 30
0.0
 10
76.85835772818125
 20
-63.75390352138792
 30
0.0
 10
76.85835772818125
 20
-64.85840113395902
 30
0.0
  0
SPLINE
  5
40
330
1F
100
AcDbEntity
  8
Layer 1
 62
   179
420
  2301728
370
     9
100
AcDbSpline
210
0.0
220
0.0
230
1.0
 70
    11
 71
     3
 72
    17
 73
    13
 74
     0
 42
0.0000000001
 43
0.0000000001
 40
0.0
 40
0.0
 40
0.0
 40
0.0
 40
1.0
 40
1.0
 40
1.0
 40
2.0
 40
2.0
 40
2.0
 40
3.0
 40
3.0
 40
3.0
 40
4.0
 40
4.0
 40
4.0
 40
4.0
 10
76.85835772818125
 20
-129.8583956923618
 30
0.0
 10
76.85835772818125
 20
-130.9625487953844
 30
0.0
 10
75.96297741156482
 20
-131.8582736215493
 30
0.0
 10
74.85847979899371
 20
-131.8582736215493
 30
0.0
 10
73.75398218642262
 20
-131.8582736215493
 30
0.0
 10
72.85825736025767
 20
-130.9625487953844
 30
0.0
 10
72.85825736025767
 20
-129.8583956923618
 30
0.0
 10
72.85825736025767
 20
-128.7538980797907
 30
0.0
 10
73.75398218642262
 20
-127.8581732536257
 30
0.0
 10
74.85847979899371
 20
-127.8581732536257
 30
0.0
 10
75.96297741156482
 20
-127.8581732536257
 30
0.0
 10
76.85835772818125
 20
-128.7538980797907
 30
0.0
 10
76.85835772818125
 20
-129.8583956923618
 30
0.0
  0
SPLINE
  5
41
330
1F
100
AcDbEntity
  8
Layer 1
 62
   179
420
  2301728
370
     9
100
AcDbSpline
210
0.0
220
0.0
230
1.0
 70
    11
 71
     3
 72
    17
 73
    13
 74
     0
 42
0.0000000001
 43
0.0000000001
 40
0.0
 40
0.0
 40
0.0
 40
0.0
 40
1.0
 40
1.0
 40
1.0
 40
2.0
 40
2.0
 40
2.0
 40
3.0
 40
3.0
 40
3.0
 40
4.0
 40
4.0
 40
4.0
 40
4.0
 10
76.85835772818125
 20
-99.85850420680622
 30
0.0
 10
76.85835772818125
 20
-100.9626573098288
 30
0.0
 10
75.96297741156482
 20
-101.8583821359937
 30
0.0
 10
74.85847979899371
 20
-101.8583821359937
 30
0.0
 10
73.75398218642262
 20
-101.8583821359937
 30
0.0
 10
72.85825736025767
 20
-100.9626573098288
 30
0.0
 10
72.85825736025767
 20
-99.85850420680622
 30
0.0
 10
72.85825736025767
 20
-98.75400659423511
 30
0.0
 10
73.75398218642262
 20
-97.85828176807016
 30
0.0
 10
74.85847979899371
 20
-97.85828176807016
 30
0.0
 10
75.96297741156482
 20
-97.85828176807016
 30
0.0
 10
76.85835772818125
 20
-98.75400659423511
 30
0.0
 10
76.85835772818125
 20
-99.85850420680622
 30
0.0
  0
SPLINE
  5
42
330
1F
100
AcDbEntity
  8
Layer 1
 62
   179
420
  2301728
370
     9
100
AcDbSpline
210
0.0
220
0.0
230
1.0
 70
    11
 71
     3
 72
    17
 73
    13
 74
     0
 42
0.0000000001
 43
0.0000000001
 40
0.0
 40
0.0
 40
0.0
 40
0.0
 40
1.0
 40
1.0
 40
1.0
 40
2.0
 40
2.0
 40
2.0
 40
3.0
 40
3.0
 40
3.0
 40
4.0
 40
4.0
 40
4.0
 40
4.0
 10
-23.14173990306873
 20
-129.8583956923618
 30
0.0
 10
-23.14173990306873
 20
-130.9625487953844
 30
0.0
 10
-24.03712021968516
 20
-131.8582736215493
 30
0.0
 10
-25.14161783225626
 20
-131.8582736215493
 30
0.0
 10
-26.24628769960162
 20
-131.8582736215493
 30
0.0
 10
-27.14166801621806
 20
-130.9625487953844
 30
0.0
 10
-27.14166801621806
 20
-129.8583956923618
 30
0.0
 10
-27.14166801621806
 20
-128.7538980797907
 30
0.0
 10
-26.24628769960162
 20
-127.8581732536257
 30
0.0
 10
-25.14161783225626
 20
-127.8581732536257
 30
0.0
 10
-24.03712021968516
 20
-127.8581732536257
 30
0.0
 10
-23.14173990306873
 20
-128.7538980797907
 30
0.0
 10
-23.14173990306873
 20
-129.8583956923618
 30
0.0
  0
SPLINE
  5
43
330
1F
100
AcDbEntity
  8
Layer 1
 62
   179
420
  2301728
370
     9
100
AcDbSpline
210
0.0
220
0.0
230
1.0
 70
    11
 71
     3
 72
    17
 73
    13
 74
     0
 42
0.0000000001
 43
0.0000000001
 40
0.0
 40
0.0
 40
0.0
 40
0.0
 40
1.0
 40
1.0
 40
1.0
 40
2.0
 40
2.0
 40
2.0
 40
3.0
 40
3.0
 40
3.0
 40
4.0
 40
4.0
 40
4.0
 40
4.0
 10
-23.14173990306873
 20
-99.85850420680622
 30
0.0
 10
-23.14173990306873
 20
-100.9626573098288
 30
0.0
 10
-24.03712021968516
 20
-101.8583821359937
 30
0.0
 10
-25.14161783225626
 20
-101.8583821359937
 30
0.0
 10
-26.24628769960162
 20
-101.8583821359937
 30
0.0
 10
-27.14166801621806
 20
-100.9626573098288
 30
0.0
 10
-27.14166801621806
 20
-99.85850420680622
 30
0.0
 10
-27.14166801621806
 20
-98.75400659423511
 30
0.0
 10
-26.24628769960162
 20
-97.85828176807016
 30
0.0
 10
-25.14161783225626
 20
-97.85828176807016
 30
0.0
 10
-24.03712021968516
 20
-97.85828176807016
 30
0.0
 10
-23.14173990306873
 20
-98.75400659423511
 30
0.0
 10
-23.14173990306873
 20
-99.85850420680622
 30
0.0
  0
SPLINE
  5
44
330
1F
100
AcDbEntity
  8
Layer 1
 62
   179
420
  2301728
370
     9
100
AcDbSpline
210
0.0
220
0.0
230
1.0
 70
    11
 71
     3
 72
    17
 73
    13
 74
     0
 42
0.0000000001
 43
0.0000000001
 40
0.0
 40
0.0
 40
0.0
 40
0.0
 40
1.0
 40
1.0
 40
1.0
 40
2.0
 40
2.0
 40
2.0
 40
3.0
 40
3.0
 40
3.0
 40
4.0
 40
4.0
 40
4.0
 40
4.0
 10
-23.14173990306873
 20
-64.85840113395902
 30
0.0
 10
-23.14173990306873
 20
-65.96255423698159
 30
0.0
 10
-24.03712021968516
 20
-66.85827906314654
 30
0.0
 10
-25.14161783225626
 20
-66.85827906314654
 30
0.0
 10
-26.24628769960162
 20
-66.85827906314654
 30
0.0
 10
-27.14166801621806
 20
-65.96255423698159
 30
0.0
 10
-27.14166801621806
 20
-64.85840113395902
 30
0.0
 10
-27.14166801621806
 20
-63.75390352138792
 30
0.0
 10
-26.24628769960162
 20
-62.85817869522296
 30
0.0
 10
-25.14161783225626
 20
-62.85817869522296
 30
0.0
 10
-24.03712021968516
 20
-62.85817869522296
 30
0.0
 10
-23.14173990306873
 20
-63.75390352138792
 30
0.0
 10
-23.14173990306873
 20
-64.85840113395902
 30
0.0
  0
SPLINE
  5
45
330
1F
100
AcDbEntity
  8
Layer 1
 62
   179
420
  2301728
370
     9
100
AcDbSpline
210
0.0
220
0.0
230
1.0
 70
    11
 71
     3
 72
    17
 73
    13
 74
     0
 42
0.0000000001
 43
0.0000000001
 40
0.0
 40
0.0
 40
0.0
 40
0.0
 40
1.0
 40
1.0
 40
1.0
 40
2.0
 40
2.0
 40
2.0
 40
3.0
 40
3.0
 40
3.0
 40
4.0
 40
4.0
 40
4.0
 40
4.0
 10
78.8585801669173
 20
30.14114040045083
 30
0.0
 10
78.8585801669173
 20
27.93214517530863
 30
0.0
 10
77.06781953368444
 20
26.14155679685003
 30
0.0
 10
74.85847979899371
 20
26.14155679685003
 30
0.0
 10
72.649140064303
 20
26.14155679685003
 30
0.0
 10
70.85837943107013
 20
27.93214517530863
 30
0.0
 10
70.85837943107013
 20
30.14114040045083
 30
0.0
 10
70.85837943107013
 20
32.35082464469007
 30
0.0
 10
72.649140064303
 20
34.14141302314868
 30
0.0
 10
74.85847979899371
 20
34.14141302314868
 30
0.0
 10
77.06781953368444
 20
34.14141302314868
 30
0.0
 10
78.8585801669173
 20
32.35082464469007
 30
0.0
 10
78.8585801669173
 20
30.14114040045083
 30
0.0
  0
SPLINE
  5
46
330
1F
100
AcDbEntity
  8
Layer 1
 62
   179
420
  2301728
370
     9
100
AcDbSpline
210
0.0
220
0.0
230
1.0
 70
    11
 71
     3
 72
    17
 73
    13
 74
     0
 42
0.0000000001
 43
0.0000000001
 40
0.0
 40
0.0
 40
0.0
 40
0.0
 40
1.0
 40
1.0
 40
1.0
 40
2.0
 40
2.0
 40
2.0
 40
3.0
 40
3.0
 40
3.0
 40
4.0
 40
4.0
 40
4.0
 40
4.0
 10
66.85827906314654
 20
-114.8587944591325
 30
0.0
 10
66.85827906314654
 20
-115.9632920717036
 30
0.0
 10
65.96289874653012
 20
-116.8586723883201
 30
0.0
 10
64.85840113395902
 20
-116.8586723883201
 30
0.0
 10
63.75355901183939
 20
-116.8586723883201
 30
0.0
 10
62.85817869522296
 20
-115.9632920717036
 30
0.0
 10
62.85817869522296
 20
-114.8587944591325
 30
0.0
 10
62.85817869522296
 20
-113.7542968465614
 30
0.0
 10
63.75355901183939
 20
-112.8585720203965
 30
0.0
 10
64.85840113395902
 20
-112.8585720203965
 30
0.0
 10
65.96289874653012
 20
-112.8585720203965
 30
0.0
 10
66.85827906314654
 20
-113.7542968465614
 30
0.0
 10
66.85827906314654
 20
-114.8587944591325
 30
0.0
  0
SPLINE
  5
47
330
1F
100
AcDbEntity
  8
Layer 1
 62
   179
420
  2301728
370
     9
100
AcDbSpline
210
0.0
220
0.0
230
1.0
 70
    11
 71
     3
 72
    17
 73
    13
 74
     0
 42
0.0000000001
 43
0.0000000001
 40
0.0
 40
0.0
 40
0.0
 40
0.0
 40
1.0
 40
1.0
 40
1.0
 40
2.0
 40
2.0
 40
2.0
 40
3.0
 40
3.0
 40
3.0
 40
4.0
 40
4.0
 40
4.0
 40
4.0
 10
-13.14166123803403
 20
-114.8587944591325
 30
0.0
 10
-13.14166123803403
 20
-115.9632920717036
 30
0.0
 10
-14.03704155465046
 20
-116.8586723883201
 30
0.0
 10
-15.14153916722156
 20
-116.8586723883201
 30
0.0
 10
-16.24620903456692
 20
-116.8586723883201
 30
0.0
 10
-17.14158935118335
 20
-115.9632920717036
 30
0.0
 10
-17.14158935118335
 20
-114.8587944591325
 30
0.0
 10
-17.14158935118335
 20
-113.7542968465614
 30
0.0
 10
-16.24620903456692
 20
-112.8585720203965
 30
0.0
 10
-15.14153916722156
 20
-112.8585720203965
 30
0.0
 10
-14.03704155465046
 20
-112.8585720203965
 30
0.0
 10
-13.14166123803403
 20
-113.7542968465614
 30
0.0
 10
-13.14166123803403
 20
-114.8587944591325
 30
0.0
  0
SPLINE
  5
48
330
1F
100
AcDbEntity
  8
Layer 1
 62
   179
420
  2301728
370
     9
100
AcDbSpline
210
0.0
220
0.0
230
1.0
 70
    11
 71
     3
 72
    17
 73
    13
 74
     0
 42
0.0000000001
 43
0.0000000001
 40
0.0
 40
0.0
 40
0.0
 40
0.0
 40
1.0
 40
1.0
 40
1.0
 40
2.0
 40
2.0
 40
2.0
 40
3.0
 40
3.0
 40
3.0
 40
4.0
 40
4.0
 40
4.0
 40
4.0
 10
66.85827906314654
 20
15.14153916722156
 30
0.0
 10
66.85827906314654
 20
14.03721380942473
 30
0.0
 10
65.96289874653012
 20
13.14166123803403
 30
0.0
 10
64.85840113395902
 20
13.14166123803403
 30
0.0
 10
63.75355901183939
 20
13.14166123803403
 30
0.0
 10
62.85817869522296
 20
14.03721380942473
 30
0.0
 10
62.85817869522296
 20
15.14153916722156
 30
0.0
 10
62.85817869522296
 20
16.24620903456692
 30
0.0
 10
63.75355901183939
 20
17.14176160595762
 30
0.0
 10
64.85840113395902
 20
17.14176160595762
 30
0.0
 10
65.96289874653012
 20
17.14176160595762
 30
0.0
 10
66.85827906314654
 20
16.24620903456692
 30
0.0
 10
66.85827906314654
 20
15.14153916722156
 30
0.0
  0
SPLINE
  5
49
330
1F
100
AcDbEntity
  8
Layer 1
 62
   179
420
  2301728
370
     9
100
AcDbSpline
210
0.0
220
0.0
230
1.0
 70
    11
 71
     3
 72
    17
 73
    13
 74
     0
 42
0.0000000001
 43
0.0000000001
 40
0.0
 40
0.0
 40
0.0
 40
0.0
 40
1.0
 40
1.0
 40
1.0
 40
2.0
 40
2.0
 40
2.0
 40
3.0
 40
3.0
 40
3.0
 40
4.0
 40
4.0
 40
4.0
 40
4.0
 10
-13.14166123803403
 20
15.1413669124473
 30
0.0
 10
-13.14166123803403
 20
14.03704155465046
 30
0.0
 10
-14.03704155465046
 20
13.14166123803403
 30
0.0
 10
-15.14153916722156
 20
13.14166123803403
 30
0.0
 10
-16.24620903456692
 20
13.14166123803403
 30
0.0
 10
-17.14158935118335
 20
14.03704155465046
 30
0.0
 10
-17.14158935118335
 20
15.1413669124473
 30
0.0
 10
-17.14158935118335
 20
16.24603677979266
 30
0.0
 10
-16.24620903456692
 20
17.14158935118335
 30
0.0
 10
-15.14153916722156
 20
17.14158935118335
 30
0.0
 10
-14.03704155465046
 20
17.14158935118335
 30
0.0
 10
-13.14166123803403
 20
16.24603677979266
 30
0.0
 10
-13.14166123803403
 20
15.1413669124473
 30
0.0
  0
SPLINE
  5
4A
330
1F
100
AcDbEntity
  8
Layer 1
 62
   179
420
  2301728
370
     9
100
AcDbSpline
210
0.0
220
0.0
230
1.0
 70
    11
 71
     3
 72
    17
 73
    13
 74
     0
 42
0.0000000001
 43
0.0000000001
 40
0.0
 40
0.0
 40
0.0
 40
0.0
 40
1.0
 40
1.0
 40
1.0
 40
2.0
 40
2.0
 40
2.0
 40
3.0
 40
3.0
 40
3.0
 40
4.0
 40
4.0
 40
4.0
 40
4.0
 10
-21.14168971910694
 20
30.14148490999935
 30
0.0
 10
-21.14168971910694
 20
27.93266193963142
 30
0.0
 10
-22.93245035233981
 20
26.14172905162429
 30
0.0
 10
-25.14161783225626
 20
26.14172905162429
 30
0.0
 10
-27.35078531217272
 20
26.14172905162429
 30
0.0
 10
-29.14171820017985
 20
27.93266193963142
 30
0.0
 10
-29.14171820017985
 20
30.14148490999935
 30
0.0
 10
-29.14171820017985
 20
32.35065238991581
 30
0.0
 10
-27.35078531217272
 20
34.14158527792294
 30
0.0
 10
-25.14161783225626
 20
34.14158527792294
 30
0.0
 10
-22.93245035233981
 20
34.14158527792294
 30
0.0
 10
-21.14168971910694
 20
32.35065238991581
 30
0.0
 10
-21.14168971910694
 20
30.14148490999935
 30
0.0
  0
SPLINE
  5
4B
330
1F
100
AcDbEntity
  8
Layer 1
 62
   179
420
  2301728
370
     9
100
AcDbSpline
210
0.0
220
0.0
230
1.0
 70
    11
 71
     3
 72
    17
 73
    13
 74
     0
 42
0.0000000001
 43
0.0000000001
 40
0.0
 40
0.0
 40
0.0
 40
0.0
 40
1.0
 40
1.0
 40
1.0
 40
2.0
 40
2.0
 40
2.0
 40
3.0
 40
3.0
 40
3.0
 40
4.0
 40
4.0
 40
4.0
 40
4.0
 10
78.8585801669173
 20
0.1410766601209808
 30
0.0
 10
78.8585801669173
 20
-2.067746310246952
 30
0.0
 10
77.06781953368444
 20
-3.858506943479818
 30
0.0
 10
74.85847979899371
 20
-3.858506943479818
 30
0.0
 10
72.649140064303
 20
-3.858506943479818
 30
0.0
 10
70.85837943107013
 20
-2.067746310246952
 30
0.0
 10
70.85837943107013
 20
0.1410766601209808
 30
0.0
 10
70.85837943107013
 20
2.350760904360226
 30
0.0
 10
72.649140064303
 20
4.141521537593092
 30
0.0
 10
74.85847979899371
 20
4.141521537593092
 30
0.0
 10
77.06781953368444
 20
4.141521537593092
 30
0.0
 10
78.8585801669173
 20
2.350760904360226
 30
0.0
 10
78.8585801669173
 20
0.1410766601209808
 30
0.0
  0
SPLINE
  5
4C
330
1F
100
AcDbEntity
  8
Layer 1
 62
   179
420
  2301728
370
     9
100
AcDbSpline
210
0.0
220
0.0
230
1.0
 70
    11
 71
     3
 72
    17
 73
    13
 74
     0
 42
0.0000000001
 43
0.0000000001
 40
0.0
 40
0.0
 40
0.0
 40
0.0
 40
1.0
 40
1.0
 40
1.0
 40
2.0
 40
2.0
 40
2.0
 40
3.0
 40
3.0
 40
3.0
 40
4.0
 40
4.0
 40
4.0
 40
4.0
 10
-21.14168971910694
 20
0.1414211696695058
 30
0.0
 10
-21.14168971910694
 20
-2.067401800698427
 30
0.0
 10
-22.93245035233981
 20
-3.858162433931293
 30
0.0
 10
-25.14161783225626
 20
-3.858162433931293
 30
0.0
 10
-27.35078531217272
 20
-3.858162433931293
 30
0.0
 10
-29.14171820017985
 20
-2.067401800698427
 30
0.0
 10
-29.14171820017985
 20
0.1414211696695058
 30
0.0
 10
-29.14171820017985
 20
2.350588649585964
 30
0.0
 10
-27.35078531217272
 20
4.141693792367355
 30
0.0
 10
-25.14161783225626
 20
4.141693792367355
 30
0.0
 10
-22.93245035233981
 20
4.141693792367355
 30
0.0
 10
-21.14168971910694
 20
2.350588649585964
 30
0.0
 10
-21.14168971910694
 20
0.1414211696695058
 30
0.0
  0
SPLINE
  5
4D
330
1F
100
AcDbEntity
  8
Layer 1
 62
   179
420
  2301728
370
     9
100
AcDbSpline
210
0.0
220
0.0
230
1.0
 70
    11
 71
     3
 72
    17
 73
    13
 74
     0
 42
0.0000000001
 43
0.0000000001
 40
0.0
 40
0.0
 40
0.0
 40
0.0
 40
1.0
 40
1.0
 40
1.0
 40
2.0
 40
2.0
 40
2.0
 40
3.0
 40
3.0
 40
3.0
 40
4.0
 40
4.0
 40
4.0
 40
4.0
 10
78.8585801669173
 20
-34.85885415795195
 30
0.0
 10
78.8585801669173
 20
-37.06784938309415
 30
0.0
 10
77.06781953368444
 20
-38.85861001632701
 30
0.0
 10
74.85847979899371
 20
-38.85861001632701
 30
0.0
 10
72.649140064303
 20
-38.85861001632701
 30
0.0
 10
70.85837943107013
 20
-37.06784938309415
 30
0.0
 10
70.85837943107013
 20
-34.85885415795195
 30
0.0
 10
70.85837943107013
 20
-32.64916991371271
 30
0.0
 10
72.649140064303
 20
-30.85840928047984
 30
0.0
 10
74.85847979899371
 20
-30.85840928047984
 30
0.0
 10
77.06781953368444
 20
-30.85840928047984
 30
0.0
 10
78.8585801669173
 20
-32.64916991371271
 30
0.0
 10
78.8585801669173
 20
-34.85885415795195
 30
0.0
  0
SPLINE
  5
4E
330
1F
100
AcDbEntity
  8
Layer 1
 62
   179
420
  2301728
370
     9
100
AcDbSpline
210
0.0
220
0.0
230
1.0
 70
    11
 71
     3
 72
    17
 73
    13
 74
     0
 42
0.0000000001
 43
0.0000000001
 40
0.0
 40
0.0
 40
0.0
 40
0.0
 40
1.0
 40
1.0
 40
1.0
 40
2.0
 40
2.0
 40
2.0
 40
3.0
 40
3.0
 40
3.0
 40
4.0
 40
4.0
 40
4.0
 40
4.0
 10
-21.14168971910694
 20
-34.85850964840343
 30
0.0
 10
-21.14168971910694
 20
-37.0671603639971
 30
0.0
 10
-22.93245035233981
 20
-38.85826550677849
 30
0.0
 10
-25.14161783225626
 20
-38.85826550677849
 30
0.0
 10
-27.35078531217272
 20
-38.85826550677849
 30
0.0
 10
-29.14171820017985
 20
-37.0671603639971
 30
0.0
 10
-29.14171820017985
 20
-34.85850964840343
 30
0.0
 10
-29.14171820017985
 20
-32.64951442326124
 30
0.0
 10
-27.35078531217272
 20
-30.85840928047984
 30
0.0
 10
-25.14161783225626
 20
-30.85840928047984
 30
0.0
 10
-22.93245035233981
 20
-30.85840928047984
 30
0.0
 10
-21.14168971910694
 20
-32.64951442326124
 30
0.0
 10
-21.14168971910694
 20
-34.85850964840343
 30
0.0
  0
SPLINE
  5
4F
330
1F
100
AcDbEntity
  8
Layer 1
 62
   179
420
  2301728
370
     9
100
AcDbSpline
210
0.0
220
0.0
230
1.0
 70
    11
 71
     3
 72
    17
 73
    13
 74
     0
 42
0.0000000001
 43
0.0000000001
 40
0.0
 40
0.0
 40
0.0
 40
0.0
 40
1.0
 40
1.0
 40
1.0
 40
2.0
 40
2.0
 40
2.0
 40
3.0
 40
3.0
 40
3.0
 40
4.0
 40
4.0
 40
4.0
 40
4.0
 10
78.8585801669173
 20
65.14158798284654
 30
0.0
 10
78.8585801669173
 20
62.93259275770436
 30
0.0
 10
77.06781953368444
 20
61.14165986969723
 30
0.0
 10
74.85847979899371
 20
61.14165986969723
 30
0.0
 10
72.649140064303
 20
61.14165986969723
 30
0.0
 10
70.85837943107013
 20
62.93259275770436
 30
0.0
 10
70.85837943107013
 20
65.14158798284654
 30
0.0
 10
70.85837943107013
 20
67.350755462763
 30
0.0
 10
72.649140064303
 20
69.14168835077014
 30
0.0
 10
74.85847979899371
 20
69.14168835077014
 30
0.0
 10
77.06781953368444
 20
69.14168835077014
 30
0.0
 10
78.8585801669173
 20
67.350755462763
 30
0.0
 10
78.8585801669173
 20
65.14158798284654
 30
0.0
  0
SPLINE
  5
50
330
1F
100
AcDbEntity
  8
Layer 1
 62
   179
420
  2301728
370
     9
100
AcDbSpline
210
0.0
220
0.0
230
1.0
 70
    11
 71
     3
 72
    17
 73
    13
 74
     0
 42
0.0000000001
 43
0.0000000001
 40
0.0
 40
0.0
 40
0.0
 40
0.0
 40
1.0
 40
1.0
 40
1.0
 40
2.0
 40
2.0
 40
2.0
 40
3.0
 40
3.0
 40
3.0
 40
4.0
 40
4.0
 40
4.0
 40
4.0
 10
-21.14168971910694
 20
65.14158798284654
 30
0.0
 10
-21.14168971910694
 20
62.93259275770436
 30
0.0
 10
-22.93262260711407
 20
61.14165986969723
 30
0.0
 10
-25.14161783225626
 20
61.14165986969723
 30
0.0
 10
-27.35078531217272
 20
61.14165986969723
 30
0.0
 10
-29.14171820017985
 20
62.93259275770436
 30
0.0
 10
-29.14171820017985
 20
65.14158798284654
 30
0.0
 10
-29.14171820017985
 20
67.350755462763
 30
0.0
 10
-27.35078531217272
 20
69.14168835077014
 30
0.0
 10
-25.14161783225626
 20
69.14168835077014
 30
0.0
 10
-22.93262260711407
 20
69.14168835077014
 30
0.0
 10
-21.14168971910694
 20
67.350755462763
 30
0.0
 10
-21.14168971910694
 20
65.14158798284654
 30
0.0
  0
SPLINE
  5
51
330
1F
100
AcDbEntity
  8
Layer 1
 62
   179
420
  2301728
370
     9
100
AcDbSpline
210
0.0
220
0.0
230
1.0
 70
    11
 71
     3
 72
    17
 73
    13
 74
     0
 42
0.0000000001
 43
0.0000000001
 40
0.0
 40
0.0
 40
0.0
 40
0.0
 40
1.0
 40
1.0
 40
1.0
 40
2.0
 40
2.0
 40
2.0
 40
3.0
 40
3.0
 40
3.0
 40
4.0
 40
4.0
 40
4.0
 40
4.0
 10
64.85840113395902
 20
-34.85816513885491
 30
0.0
 10
64.85840113395902
 20
-37.61975367983118
 30
0.0
 10
62.61977808764367
 20
-39.85837672614652
 30
0.0
 10
59.85853405621592
 20
-39.85837672614652
 30
0.0
 10
57.09694551523965
 20
-39.85837672614652
 30
0.0
 10
54.85832246892431
 20
-37.61975367983118
 30
0.0
 10
54.85832246892431
 20
-34.85816513885491
 30
0.0
 10
54.85832246892431
 20
-32.09692110742716
 30
0.0
 10
57.09694551523965
 20
-29.85829806111182
 30
0.0
 10
59.85853405621592
 20
-29.85829806111182
 30
0.0
 10
62.61977808764367
 20
-29.85829806111182
 30
0.0
 10
64.85840113395902
 20
-32.09692110742716
 30
0.0
 10
64.85840113395902
 20
-34.85816513885491
 30
0.0
  0
SPLINE
  5
52
330
1F
100
AcDbEntity
  8
Layer 1
 62
   179
420
  2301728
370
     9
100
AcDbSpline
210
0.0
220
0.0
230
1.0
 70
    11
 71
     3
 72
    17
 73
    13
 74
     0
 42
0.0000000001
 43
0.0000000001
 40
0.0
 40
0.0
 40
0.0
 40
0.0
 40
1.0
 40
1.0
 40
1.0
 40
2.0
 40
2.0
 40
2.0
 40
3.0
 40
3.0
 40
3.0
 40
4.0
 40
4.0
 40
4.0
 40
4.0
 10
-20.14175075451318
 20
-19.85856390562564
 30
0.0
 10
-20.14175075451318
 20
-22.61980793705338
 30
0.0
 10
-22.38037380082852
 20
-24.85843098336873
 30
0.0
 10
-25.14161783225626
 20
-24.85843098336873
 30
0.0
 10
-27.90303411845827
 20
-24.85843098336873
 30
0.0
 10
-30.14165716477362
 20
-22.61980793705338
 30
0.0
 10
-30.14165716477362
 20
-19.85856390562564
 30
0.0
 10
-30.14165716477362
 20
-17.09697536464937
 30
0.0
 10
-27.90303411845827
 20
-14.85835231833402
 30
0.0
 10
-25.14161783225626
 20
-14.85835231833402
 30
0.0
 10
-22.38037380082852
 20
-14.85835231833402
 30
0.0
 10
-20.14175075451318
 20
-17.09697536464937
 30
0.0
 10
-20.14175075451318
 20
-19.85856390562564
 30
0.0
  0
SPLINE
  5
53
330
1F
100
AcDbEntity
  8
Layer 1
 62
   179
420
  2301728
370
     9
100
AcDbSpline
210
0.0
220
0.0
230
1.0
 70
    11
 71
     3
 72
    17
 73
    13
 74
     0
 42
0.0000000001
 43
0.0000000001
 40
0.0
 40
0.0
 40
0.0
 40
0.0
 40
1.0
 40
1.0
 40
1.0
 40
2.0
 40
2.0
 40
2.0
 40
3.0
 40
3.0
 40
3.0
 40
4.0
 40
4.0
 40
4.0
 40
4.0
 10
79.8583468767368
 20
50.14164224006876
 30
0.0
 10
79.8583468767368
 20
47.38022595386675
 30
0.0
 10
77.61972383042146
 20
45.14160290755141
 30
0.0
 10
74.85847979899371
 20
45.14160290755141
 30
0.0
 10
72.09689125801745
 20
45.14160290755141
 30
0.0
 10
69.8582682117021
 20
47.38022595386675
 30
0.0
 10
69.8582682117021
 20
50.14164224006876
 30
0.0
 10
69.8582682117021
 20
52.90305852627077
 30
0.0
 10
72.09689125801745
 20
55.14168157258611
 30
0.0
 10
74.85847979899371
 20
55.14168157258611
 30
0.0
 10
77.61972383042146
 20
55.14168157258611
 30
0.0
 10
79.8583468767368
 20
52.90305852627077
 30
0.0
 10
79.8583468767368
 20
50.14164224006876
 30
0.0
  0
SPLINE
  5
54
330
1F
100
AcDbEntity
  8
Layer 1
 62
   179
420
  2301728
370
     9
100
AcDbSpline
210
0.0
220
0.0
230
1.0
 70
    11
 71
     3
 72
   149
 73
   145
 74
     0
 42
0.0000000001
 43
0.0000000001
 40
0.0
 40
0.0
 40
0.0
 40
0.0
 40
1.0
 40
1.0
 40
1.0
 40
2.0
 40
2.0
 40
2.0
 40
3.0
 40
3.0
 40
3.0
 40
4.0
 40
4.0
 40
4.0
 40
5.0
 40
5.0
 40
5.0
 40
6.0
 40
6.0
 40
6.0
 40
7.0
 40
7.0
 40
7.0
 40
8.0
 40
8.0
 40
8.0
 40
9.0
 40
9.0
 40
9.0
 40
10.0
 40
10.0
 40
10.0
 40
11.0
 40
11.0
 40
11.0
 40
12.0
 40
12.0
 40
12.0
 40
13.0
 40
13.0
 40
13.0
 40
14.0
 40
14.0
 40
14.0
 40
15.0
 40
15.0
 40
15.0
 40
16.0
 40
16.0
 40
16.0
 40
17.0
 40
17.0
 40
17.0
 40
18.0
 40
18.0
 40
18.0
 40
19.0
 40
19.0
 40
19.0
 40
20.0
 40
20.0
 40
20.0
 40
21.0
 40
21.0
 40
21.0
 40
22.0
 40
22.0
 40
22.0
 40
23.0
 40
23.0
 40
23.0
 40
24.0
 40
24.0
 40
24.0
 40
25.0
 40
25.0
 40
25.0
 40
26.0
 40
26.0
 40
26.0
 40
27.0
 40
27.0
 40
27.0
 40
28.0
 40
28.0
 40
28.0
 40
29.0
 40
29.0
 40
29.0
 40
30.0
 40
30.0
 40
30.0
 40
31.0
 40
31.0
 40
31.0
 40
32.0
 40
32.0
 40
32.0
 40
33.0
 40
33.0
 40
33.0
 40
34.0
 40
34.0
 40
34.0
 40
35.0
 40
35.0
 40
35.0
 40
36.0
 40
36.0
 40
36.0
 40
37.0
 40
37.0
 40
37.0
 40
38.0
 40
38.0
 40
38.0
 40
39.0
 40
39.0
 40
39.0
 40
40.0
 40
40.0
 40
40.0
 40
41.0
 40
41.0
 40
41.0
 40
42.0
 40
42.0
 40
42.0
 40
43.0
 40
43.0
 40
43.0
 40
44.0
 40
44.0
 40
44.0
 40
45.0
 40
45.0
 40
45.0
 40
46.0
 40
46.0
 40
46.0
 40
47.0
 40
47.0
 40
47.0
 40
48.0
 40
48.0
 40
48.0
 40
48.0
 10
124.3583007501604
 20
-122.608536753202
 30
0.0
 10
124.3583007501604
 20
-122.608536753202
 30
0.0
 10
124.8585286146187
 20
-122.608536753202
 30
0.0
 10
124.8585286146187
 20
-122.608536753202
 30
0.0
 10
124.8585286146187
 20
-121.525054223091
 30
0.0
 10
124.8585286146187
 20
-120.4419162025284
 30
0.0
 10
124.8585286146187
 20
-119.3584336724173
 30
0.0
 10
124.8585286146187
 20
-119.3584336724173
 30
0.0
 10
124.3583007501604
 20
-119.3584336724173
 30
0.0
 10
124.3583007501604
 20
-119.3584336724173
 30
0.0
 10
124.3583007501604
 20
-119.3584336724173
 30
0.0
 10
124.3583007501604
 20
-110.3584662267507
 30
0.0
 10
124.3583007501604
 20
-110.3584662267507
 30
0.0
 10
124.3583007501604
 20
-110.3584662267507
 30
0.0
 10
124.8585286146187
 20
-110.3584662267507
 30
0.0
 10
124.8585286146187
 20
-110.3584662267507
 30
0.0
 10
124.8585286146187
 20
-109.2749836966396
 30
0.0
 10
124.8585286146187
 20
-108.191845676077
 30
0.0
 10
124.8585286146187
 20
-107.108363145966
 30
0.0
 10
124.8585286146187
 20
-107.108363145966
 30
0.0
 10
124.3583007501604
 20
-107.108363145966
 30
0.0
 10
124.3583007501604
 20
-107.108363145966
 30
0.0
 10
124.3583007501604
 20
-107.108363145966
 30
0.0
 10
124.3583007501604
 20
-98.1083957002993
 30
0.0
 10
124.3583007501604
 20
-98.1083957002993
 30
0.0
 10
124.3583007501604
 20
-98.1083957002993
 30
0.0
 10
124.8585286146187
 20
-98.1083957002993
 30
0.0
 10
124.8585286146187
 20
-98.1083957002993
 30
0.0
 10
124.8585286146187
 20
-98.02502438955625
 30
0.0
 10
124.8585286146187
 20
-97.9416530788132
 30
0.0
 10
124.8585286146187
 20
-97.85828176807016
 30
0.0
 10
124.8585286146187
 20
-96.20153534921351
 30
0.0
 10
123.5152858849198
 20
-94.8582926195146
 30
0.0
 10
121.8585394660631
 20
-94.8582926195146
 30
0.0
 10
110.5248643386882
 20
-94.8582926195146
 30
0.0
 10
99.19153372086184
 20
-94.8582926195146
 30
0.0
 10
87.85820310303545
 20
-94.8582926195146
 30
0.0
 10
86.20111217463028
 20
-94.8582926195146
 30
0.0
 10
84.8582139544799
 20
-93.51504988981569
 30
0.0
 10
84.8582139544799
 20
-91.85830347095904
 30
0.0
 10
84.8582139544799
 20
-80.52497285313265
 30
0.0
 10
84.8582139544799
 20
-69.19164223530626
 30
0.0
 10
84.8582139544799
 20
-57.85831161747987
 30
0.0
 10
84.8582139544799
 20
-56.2012206890747
 30
0.0
 10
83.51497122478098
 20
-54.85832246892431
 30
0.0
 10
81.85822480592434
 20
-54.85832246892431
 30
0.0
 10
30.52492403750766
 20
-54.85832246892431
 30
0.0
 10
-20.80837673090902
 20
-54.85832246892431
 30
0.0
 10
-72.1416774993257
 20
-54.85832246892431
 30
0.0
 10
-73.79859617295661
 20
-54.85832246892431
 30
0.0
 10
-75.14166664788125
 20
-56.2012206890747
 30
0.0
 10
-75.14166664788125
 20
-57.85831161747987
 30
0.0
 10
-75.14166664788125
 20
-69.19164223530626
 30
0.0
 10
-75.14166664788125
 20
-80.52497285313265
 30
0.0
 10
-75.14166664788125
 20
-91.85830347095904
 30
0.0
 10
-75.14166664788125
 20
-93.51504988981569
 30
0.0
 10
-73.79859617295661
 20
-94.8582926195146
 30
0.0
 10
-72.1416774993257
 20
-94.8582926195146
 30
0.0
 10
-64.7197360406777
 20
-94.8582926195146
 30
0.0
 10
-45.56362710449451
 20
-94.8582926195146
 30
0.0
 10
-38.14168564584652
 20
-94.8582926195146
 30
0.0
 10
-36.48476697221562
 20
-94.8582926195146
 30
0.0
 10
-35.14169649729097
 20
-96.20153534921351
 30
0.0
 10
-35.14169649729097
 20
-97.85828176807016
 30
0.0
 10
-35.14169649729097
 20
-97.9416530788132
 30
0.0
 10
-35.14169649729097
 20
-98.02536889910478
 30
0.0
 10
-35.14169649729097
 20
-98.10874020984782
 30
0.0
 10
-35.14169649729097
 20
-98.10874020984782
 30
0.0
 10
-34.5968546462987
 20
-98.10874020984782
 30
0.0
 10
-34.5968546462987
 20
-98.10874020984782
 30
0.0
 10
-34.5968546462987
 20
-98.10874020984782
 30
0.0
 10
-34.5968546462987
 20
-107.108363145966
 30
0.0
 10
-34.5968546462987
 20
-107.108363145966
 30
0.0
 10
-34.5968546462987
 20
-107.108363145966
 30
0.0
 10
-35.14169649729097
 20
-107.108363145966
 30
0.0
 10
-35.14169649729097
 20
-107.108363145966
 30
0.0
 10
-35.14169649729097
 20
-108.191845676077
 30
0.0
 10
-35.14169649729097
 20
-109.2749836966396
 30
0.0
 10
-35.14169649729097
 20
-110.3584662267507
 30
0.0
 10
-35.14169649729097
 20
-110.3584662267507
 30
0.0
 10
-34.5968546462987
 20
-110.3584662267507
 30
0.0
 10
-34.5968546462987
 20
-110.3584662267507
 30
0.0
 10
-34.5968546462987
 20
-110.3584662267507
 30
0.0
 10
-34.5968546462987
 20
-119.3584336724173
 30
0.0
 10
-34.5968546462987
 20
-119.3584336724173
 30
0.0
 10
-34.5968546462987
 20
-119.3584336724173
 30
0.0
 10
-35.14169649729097
 20
-119.3584336724173
 30
0.0
 10
-35.14169649729097
 20
-119.3584336724173
 30
0.0
 10
-35.14169649729097
 20
-120.4419162025284
 30
0.0
 10
-35.14169649729097
 20
-121.5253987326395
 30
0.0
 10
-35.14169649729097
 20
-122.608536753202
 30
0.0
 10
-35.14169649729097
 20
-122.608536753202
 30
0.0
 10
-34.5968546462987
 20
-122.608536753202
 30
0.0
 10
-34.5968546462987
 20
-122.608536753202
 30
0.0
 10
-34.5968546462987
 20
-122.608536753202
 30
0.0
 10
-34.5968546462987
 20
-131.6085041988687
 30
0.0
 10
-34.5968546462987
 20
-131.6085041988687
 30
0.0
 10
-34.5968546462987
 20
-131.6085041988687
 30
0.0
 10
-35.14169649729097
 20
-131.6085041988687
 30
0.0
 10
-35.14169649729097
 20
-131.6085041988687
 30
0.0
 10
-35.14169649729097
 20
-131.6915310000632
 30
0.0
 10
-35.14169649729097
 20
-131.7749023108063
 30
0.0
 10
-35.14169649729097
 20
-131.8582736215493
 30
0.0
 10
-35.14169649729097
 20
-133.515020040406
 30
0.0
 10
-36.48476697221562
 20
-134.8582627701049
 30
0.0
 10
-38.14168564584652
 20
-134.8582627701049
 30
0.0
 10
-49.47501626367291
 20
-134.8582627701049
 30
0.0
 10
-60.8083468814993
 20
-134.8582627701049
 30
0.0
 10
-72.1416774993257
 20
-134.8582627701049
 30
0.0
 10
-73.79859617295661
 20
-134.8582627701049
 30
0.0
 10
-75.14166664788125
 20
-136.2011609902553
 30
0.0
 10
-75.14166664788125
 20
-137.8582519186604
 30
0.0
 10
-75.14166664788125
 20
-149.1919270460353
 30
0.0
 10
-75.14166664788125
 20
-160.5249131543132
 30
0.0
 10
-75.14166664788125
 20
-171.8585882816881
 30
0.0
 10
-75.14166664788125
 20
-173.5156792100933
 30
0.0
 10
-73.79859617295661
 20
-174.8585774302437
 30
0.0
 10
-72.1416774993257
 20
-174.8585774302437
 30
0.0
 10
-20.80837673090902
 20
-174.8585774302437
 30
0.0
 10
30.52492403750766
 20
-174.8585774302437
 30
0.0
 10
81.85822480592434
 20
-174.8585774302437
 30
0.0
 10
83.51497122478098
 20
-174.8585774302437
 30
0.0
 10
84.8582139544799
 20
-173.5156792100933
 30
0.0
 10
84.8582139544799
 20
-171.8585882816881
 30
0.0
 10
84.8582139544799
 20
-160.5249131543132
 30
0.0
 10
84.8582139544799
 20
-149.1919270460353
 30
0.0
 10
84.8582139544799
 20
-137.8582519186604
 30
0.0
 10
84.8582139544799
 20
-136.2011609902553
 30
0.0
 10
86.20111217463028
 20
-134.8582627701049
 30
0.0
 10
87.85820310303545
 20
-134.8582627701049
 30
0.0
 10
99.19153372086184
 20
-134.8582627701049
 30
0.0
 10
110.5248643386882
 20
-134.8582627701049
 30
0.0
 10
121.8585394660631
 20
-134.8582627701049
 30
0.0
 10
123.5152858849198
 20
-134.8582627701049
 30
0.0
 10
124.8585286146187
 20
-133.515020040406
 30
0.0
 10
124.8585286146187
 20
-131.8582736215493
 30
0.0
 10
124.8585286146187
 20
-131.7749023108063
 30
0.0
 10
124.8585286146187
 20
-131.6915310000632
 30
0.0
 10
124.8585286146187
 20
-131.6085041988687
 30
0.0
 10
124.8585286146187
 20
-131.6085041988687
 30
0.0
 10
124.3583007501604
 20
-131.6085041988687
 30
0.0
 10
124.3583007501604
 20
-131.6085041988687
 30
0.0
 10
124.3583007501604
 20
-131.6085041988687
 30
0.0
 10
124.3583007501604
 20
-122.608536753202
 30
0.0
 10
124.3583007501604
 20
-122.608536753202
 30
0.0
  0
SPLINE
  5
55
330
1F
100
AcDbEntity
  8
Layer 1
 62
   179
420
  2301728
370
     9
100
AcDbSpline
210
0.0
220
0.0
230
1.0
 70
    11
 71
     3
 72
   149
 73
   145
 74
     0
 42
0.0000000001
 43
0.0000000001
 40
0.0
 40
0.0
 40
0.0
 40
0.0
 40
1.0
 40
1.0
 40
1.0
 40
2.0
 40
2.0
 40
2.0
 40
3.0
 40
3.0
 40
3.0
 40
4.0
 40
4.0
 40
4.0
 40
5.0
 40
5.0
 40
5.0
 40
6.0
 40
6.0
 40
6.0
 40
7.0
 40
7.0
 40
7.0
 40
8.0
 40
8.0
 40
8.0
 40
9.0
 40
9.0
 40
9.0
 40
10.0
 40
10.0
 40
10.0
 40
11.0
 40
11.0
 40
11.0
 40
12.0
 40
12.0
 40
12.0
 40
13.0
 40
13.0
 40
13.0
 40
14.0
 40
14.0
 40
14.0
 40
15.0
 40
15.0
 40
15.0
 40
16.0
 40
16.0
 40
16.0
 40
17.0
 40
17.0
 40
17.0
 40
18.0
 40
18.0
 40
18.0
 40
19.0
 40
19.0
 40
19.0
 40
20.0
 40
20.0
 40
20.0
 40
21.0
 40
21.0
 40
21.0
 40
22.0
 40
22.0
 40
22.0
 40
23.0
 40
23.0
 40
23.0
 40
24.0
 40
24.0
 40
24.0
 40
25.0
 40
25.0
 40
25.0
 40
26.0
 40
26.0
 40
26.0
 40
27.0
 40
27.0
 40
27.0
 40
28.0
 40
28.0
 40
28.0
 40
29.0
 40
29.0
 40
29.0
 40
30.0
 40
30.0
 40
30.0
 40
31.0
 40
31.0
 40
31.0
 40
32.0
 40
32.0
 40
32.0
 40
33.0
 40
33.0
 40
33.0
 40
34.0
 40
34.0
 40
34.0
 40
35.0
 40
35.0
 40
35.0
 40
36.0
 40
36.0
 40
36.0
 40
37.0
 40
37.0
 40
37.0
 40
38.0
 40
38.0
 40
38.0
 40
39.0
 40
39.0
 40
39.0
 40
40.0
 40
40.0
 40
40.0
 40
41.0
 40
41.0
 40
41.0
 40
42.0
 40
42.0
 40
42.0
 40
43.0
 40
43.0
 40
43.0
 40
44.0
 40
44.0
 40
44.0
 40
45.0
 40
45.0
 40
45.0
 40
46.0
 40
46.0
 40
46.0
 40
47.0
 40
47.0
 40
47.0
 40
48.0
 40
48.0
 40
48.0
 40
48.0
 10
124.3583007501604
 20
7.391624618377788
 30
0.0
 10
124.3583007501604
 20
7.391624618377788
 30
0.0
 10
124.8585286146187
 20
7.391624618377788
 30
0.0
 10
124.8585286146187
 20
7.391624618377788
 30
0.0
 10
124.8585286146187
 20
8.4749348937146
 30
0.0
 10
124.8585286146187
 20
9.55824516905141
 30
0.0
 10
124.8585286146187
 20
10.64155544438822
 30
0.0
 10
124.8585286146187
 20
10.64155544438822
 30
0.0
 10
124.3583007501604
 20
10.64155544438822
 30
0.0
 10
124.3583007501604
 20
10.64155544438822
 30
0.0
 10
124.3583007501604
 20
10.64155544438822
 30
0.0
 10
124.3583007501604
 20
19.6415228900549
 30
0.0
 10
124.3583007501604
 20
19.6415228900549
 30
0.0
 10
124.3583007501604
 20
19.6415228900549
 30
0.0
 10
124.8585286146187
 20
19.6415228900549
 30
0.0
 10
124.8585286146187
 20
19.6415228900549
 30
0.0
 10
124.8585286146187
 20
20.72483316539171
 30
0.0
 10
124.8585286146187
 20
21.80831569550278
 30
0.0
 10
124.8585286146187
 20
22.89162597083959
 30
0.0
 10
124.8585286146187
 20
22.89162597083959
 30
0.0
 10
124.3583007501604
 20
22.89162597083959
 30
0.0
 10
124.3583007501604
 20
22.89162597083959
 30
0.0
 10
124.3583007501604
 20
22.89162597083959
 30
0.0
 10
124.3583007501604
 20
31.89159341650627
 30
0.0
 10
124.3583007501604
 20
31.89159341650627
 30
0.0
 10
124.3583007501604
 20
31.89159341650627
 30
0.0
 10
124.8585286146187
 20
31.89159341650627
 30
0.0
 10
124.8585286146187
 20
31.89159341650627
 30
0.0
 10
124.8585286146187
 20
31.97496472724931
 30
0.0
 10
124.8585286146187
 20
32.05833603799236
 30
0.0
 10
124.8585286146187
 20
32.14170734873541
 30
0.0
 10
124.8585286146187
 20
33.79862602236631
 30
0.0
 10
123.5152858849198
 20
35.14169649729097
 30
0.0
 10
121.8585394660631
 20
35.14169649729097
 30
0.0
 10
110.5248643386882
 20
35.14169649729097
 30
0.0
 10
99.19153372086184
 20
35.14169649729097
 30
0.0
 10
87.85820310303545
 20
35.14169649729097
 30
0.0
 10
86.20111217463028
 20
35.14169649729097
 30
0.0
 10
84.8582139544799
 20
36.48476697221562
 30
0.0
 10
84.8582139544799
 20
38.14168564584652
 30
0.0
 10
84.8582139544799
 20
49.47501626367291
 30
0.0
 10
84.8582139544799
 20
60.8083468814993
 30
0.0
 10
84.8582139544799
 20
72.1416774993257
 30
0.0
 10
84.8582139544799
 20
73.79859617295661
 30
0.0
 10
83.51497122478098
 20
75.14166664788125
 30
0.0
 10
81.85822480592434
 20
75.14166664788125
 30
0.0
 10
30.52492403750766
 20
75.14166664788125
 30
0.0
 10
-20.80837673090902
 20
75.14166664788125
 30
0.0
 10
-72.1416774993257
 20
75.14166664788125
 30
0.0
 10
-73.79859617295661
 20
75.14166664788125
 30
0.0
 10
-75.14166664788125
 20
73.79859617295661
 30
0.0
 10
-75.14166664788125
 20
72.1416774993257
 30
0.0
 10
-75.14166664788125
 20
60.8083468814993
 30
0.0
 10
-75.14166664788125
 20
49.47501626367291
 30
0.0
 10
-75.14166664788125
 20
38.14168564584652
 30
0.0
 10
-75.14166664788125
 20
36.48476697221562
 30
0.0
 10
-73.79859617295661
 20
35.14169649729097
 30
0.0
 10
-72.1416774993257
 20
35.14169649729097
 30
0.0
 10
-64.7197360406777
 20
35.14169649729097
 30
0.0
 10
-45.56362710449451
 20
35.14169649729097
 30
0.0
 10
-38.14168564584652
 20
35.14169649729097
 30
0.0
 10
-36.48476697221562
 20
35.14169649729097
 30
0.0
 10
-35.14169649729097
 20
33.79862602236631
 30
0.0
 10
-35.14169649729097
 20
32.14170734873541
 30
0.0
 10
-35.14169649729097
 20
32.05833603799236
 30
0.0
 10
-35.14169649729097
 20
31.97496472724931
 30
0.0
 10
-35.14169649729097
 20
31.89159341650627
 30
0.0
 10
-35.14169649729097
 20
31.89159341650627
 30
0.0
 10
-34.64164088760695
 20
31.89159341650627
 30
0.0
 10
-34.64164088760695
 20
31.89159341650627
 30
0.0
 10
-34.64164088760695
 20
31.89159341650627
 30
0.0
 10
-34.64164088760695
 20
22.89162597083959
 30
0.0
 10
-34.64164088760695
 20
22.89162597083959
 30
0.0
 10
-34.64164088760695
 20
22.89162597083959
 30
0.0
 10
-35.14169649729097
 20
22.89162597083959
 30
0.0
 10
-35.14169649729097
 20
22.89162597083959
 30
0.0
 10
-35.14169649729097
 20
21.80831569550278
 30
0.0
 10
-35.14169649729097
 20
20.72500542016597
 30
0.0
 10
-35.14169649729097
 20
19.64169514482916
 30
0.0
 10
-35.14169649729097
 20
19.64169514482916
 30
0.0
 10
-34.64164088760695
 20
19.64169514482916
 30
0.0
 10
-34.64164088760695
 20
19.64169514482916
 30
0.0
 10
-34.64164088760695
 20
19.64169514482916
 30
0.0
 10
-34.64164088760695
 20
10.64172769916249
 30
0.0
 10
-34.64164088760695
 20
10.64172769916249
 30
0.0
 10
-34.64164088760695
 20
10.64172769916249
 30
0.0
 10
-35.14169649729097
 20
10.64172769916249
 30
0.0
 10
-35.14169649729097
 20
10.64172769916249
 30
0.0
 10
-35.14169649729097
 20
9.558417423825674
 30
0.0
 10
-35.14169649729097
 20
8.4749348937146
 30
0.0
 10
-35.14169649729097
 20
7.391624618377788
 30
0.0
 10
-35.14169649729097
 20
7.391624618377788
 30
0.0
 10
-34.64164088760695
 20
7.391624618377788
 30
0.0
 10
-34.64164088760695
 20
7.391624618377788
 30
0.0
 10
-34.64164088760695
 20
7.391624618377788
 30
0.0
 10
-34.64164088760695
 20
-1.608170572514624
 30
0.0
 10
-34.64164088760695
 20
-1.608170572514624
 30
0.0
 10
-34.64164088760695
 20
-1.608170572514624
 30
0.0
 10
-35.14169649729097
 20
-1.608170572514624
 30
0.0
 10
-35.14169649729097
 20
-1.608170572514624
 30
0.0
 10
-35.14169649729097
 20
-1.69154188325767
 30
0.0
 10
-35.14169649729097
 20
-1.774913194000716
 30
0.0
 10
-35.14169649729097
 20
-1.858284504743762
 30
0.0
 10
-35.14169649729097
 20
-3.515030923600409
 30
0.0
 10
-36.48476697221562
 20
-4.858273653299321
 30
0.0
 10
-38.14168564584652
 20
-4.858273653299321
 30
0.0
 10
-49.47501626367291
 20
-4.858273653299321
 30
0.0
 10
-60.8083468814993
 20
-4.858273653299321
 30
0.0
 10
-72.1416774993257
 20
-4.858273653299321
 30
0.0
 10
-73.79859617295661
 20
-4.858273653299321
 30
0.0
 10
-75.14166664788125
 20
-6.201171873449708
 30
0.0
 10
-75.14166664788125
 20
-7.858262801854879
 30
0.0
 10
-75.14166664788125
 20
-19.19193792922979
 30
0.0
 10
-75.14166664788125
 20
-30.52492403750766
 30
0.0
 10
-75.14166664788125
 20
-41.85859916488258
 30
0.0
 10
-75.14166664788125
 20
-43.51569009328774
 30
0.0
 10
-73.79859617295661
 20
-44.85858831343813
 30
0.0
 10
-72.1416774993257
 20
-44.85858831343813
 30
0.0
 10
-20.80837673090902
 20
-44.85858831343813
 30
0.0
 10
30.52492403750766
 20
-44.85858831343813
 30
0.0
 10
81.85822480592434
 20
-44.85858831343813
 30
0.0
 10
83.51497122478098
 20
-44.85858831343813
 30
0.0
 10
84.8582139544799
 20
-43.51569009328774
 30
0.0
 10
84.8582139544799
 20
-41.85859916488258
 30
0.0
 10
84.8582139544799
 20
-30.52492403750766
 30
0.0
 10
84.8582139544799
 20
-19.19193792922979
 30
0.0
 10
84.8582139544799
 20
-7.858262801854879
 30
0.0
 10
84.8582139544799
 20
-6.201171873449708
 30
0.0
 10
86.20111217463028
 20
-4.858273653299321
 30
0.0
 10
87.85820310303545
 20
-4.858273653299321
 30
0.0
 10
99.19153372086184
 20
-4.858273653299321
 30
0.0
 10
110.5248643386882
 20
-4.858273653299321
 30
0.0
 10
121.8585394660631
 20
-4.858273653299321
 30
0.0
 10
123.5152858849198
 20
-4.858273653299321
 30
0.0
 10
124.8585286146187
 20
-3.515030923600409
 30
0.0
 10
124.8585286146187
 20
-1.858284504743762
 30
0.0
 10
124.8585286146187
 20
-1.774913194000716
 30
0.0
 10
124.8585286146187
 20
-1.69154188325767
 30
0.0
 10
124.8585286146187
 20
-1.608170572514624
 30
0.0
 10
124.8585286146187
 20
-1.608170572514624
 30
0.0
 10
124.3583007501604
 20
-1.608170572514624
 30
0.0
 10
124.3583007501604
 20
-1.608170572514624
 30
0.0
 10
124.3583007501604
 20
-1.608170572514624
 30
0.0
 10
124.3583007501604
 20
7.391624618377788
 30
0.0
 10
124.3583007501604
 20
7.391624618377788
 30
0.0
  0
ENDSEC
  0
SECTION
  2
OBJECTS
  0
DICTIONARY
  5
C
330
0
100
AcDbDictionary
281
     1
  3
ACAD_GROUP
350
D
  3
ACAD_LAYOUT
350
1A
  3
ACAD_MLINESTYLE
350
17
  3
ACAD_PLOTSETTINGS
350
19
  3
ACAD_PLOTSTYLENAME
350
E
  3
ACAD_TABLESTYLE
350
56
  3
ACAD_VISUALSTYLE
350
2A
  0
DICTIONARY
  5
D
102
{ACAD_REACTORS
330
C
102
}
330
C
100
AcDbDictionary
281
     1
  0
DICTIONARY
  5
1A
102
{ACAD_REACTORS
330
C
102
}
330
C
100
AcDbDictionary
281
     1
  3
Layout1
350
1E
  3
Layout2
350
26
  3
Model
350
22
  0
DICTIONARY
  5
17
102
{ACAD_REACTORS
330
C
102
}
330
C
100
AcDbDictionary
281
     1
  3
Standard
350
18
  0
DICTIONARY
  5
19
102
{ACAD_REACTORS
330
C
102
}
330
C
100
AcDbDictionary
281
     1
  0
ACDBDICTIONARYWDFLT
  5
E
102
{ACAD_REACTORS
330
C
102
}
330
C
100
AcDbDictionary
281
     1
  3
Normal
350
F
100
AcDbDictionaryWithDefault
340
F
  0
DICTIONARY
  5
56
102
{ACAD_REACTORS
330
C
102
}
330
C
100
AcDbDictionary
281
     1
  0
DICTIONARY
  5
2A
102
{ACAD_REACTORS
330
C
102
}
330
C
100
AcDbDictionary
281
     1
  3
2dWireframe
350
2F
  3
3D Hidden
350
31
  3
3dWireframe
350
30
  3
Basic
350
32
  3
Brighten
350
36
  3
ColorChange
350
3A
  3
Conceptual
350
34
  3
Dim
350
35
  3
Facepattern
350
39
  3
Flat
350
2B
  3
FlatWithEdges
350
2C
  3
Gouraud
350
2D
  3
GouraudWithEdges
350
2E
  3
Linepattern
350
38
  3
Realistic
350
33
  3
Thicken
350
37
  0
LAYOUT
  5
1E
102
{ACAD_REACTORS
330
1A
102
}
330
1A
100
AcDbPlotSettings
  1

  2
none_device
  4

  6

 40
0.0
 41
0.0
 42
0.0
 43
0.0
 44
0.0
 45
0.0
 46
0.0
 47
0.0
 48
0.0
 49
0.0
140
0.0
141
0.0
142
1.0
143
1.0
 70
   688
 72
     0
 73
     0
 74
     5
  7

 75
    16
 76
     0
 77
     2
 78
   300
147
1.0
148
0.0
149
0.0
100
AcDbLayout
  1
Layout1
 70
     1
 71
     1
 10
0.0
 20
0.0
 11
12.0
 21
9.0
 12
0.0
 22
0.0
 32
0.0
 14
1.000000000000000E+20
 24
1.000000000000000E+20
 34
1.000000000000000E+20
 15
-1.000000000000000E+20
 25
-1.000000000000000E+20
 35
-1.000000000000000E+20
146
0.0
 13
0.0
 23
0.0
 33
0.0
 16
1.0
 26
0.0
 36
0.0
 17
0.0
 27
1.0
 37
0.0
 76
     0
330
1B
  0
LAYOUT
  5
26
102
{ACAD_REACTORS
330
1A
102
}
330
1A
100
AcDbPlotSettings
  1

  2
none_device
  4

  6

 40
0.0
 41
0.0
 42
0.0
 43
0.0
 44
0.0
 45
0.0
 46
0.0
 47
0.0
 48
0.0
 49
0.0
140
0.0
141
0.0
142
1.0
143
1.0
 70
   688
 72
     0
 73
     0
 74
     5
  7

 75
    16
 76
     0
 77
     2
 78
   300
147
1.0
148
0.0
149
0.0
100
AcDbLayout
  1
Layout2
 70
     1
 71
     2
 10
0.0
 20
0.0
 11
0.0
 21
0.0
 12
0.0
 22
0.0
 32
0.0
 14
0.0
 24
0.0
 34
0.0
 15
0.0
 25
0.0
 35
0.0
146
0.0
 13
0.0
 23
0.0
 33
0.0
 16
1.0
 26
0.0
 36
0.0
 17
0.0
 27
1.0
 37
0.0
 76
     0
330
23
  0
LAYOUT
  5
22
102
{ACAD_REACTORS
330
1A
102
}
330
1A
100
AcDbPlotSettings
  1

  2
none_device
  4

  6

 40
0.0
 41
0.0
 42
0.0
 43
0.0
 44
0.0
 45
0.0
 46
0.0
 47
0.0
 48
0.0
 49
0.0
140
0.0
141
0.0
142
1.0
143
1.0
 70
  1712
 72
     0
 73
     0
 74
     0
  7

 75
     0
 76
     0
 77
     2
 78
   300
147
1.0
148
0.0
149
0.0
100
AcDbLayout
  1
Model
 70
     1
 71
     0
 10
0.0
 20
0.0
 11
12.0
 21
9.0
 12
0.0
 22
0.0
 32
0.0
 14
1.000000000000000E+20
 24
1.000000000000000E+20
 34
1.000000000000000E+20
 15
-1.000000000000000E+20
 25
-1.000000000000000E+20
 35
-1.000000000000000E+20
146
0.0
 13
0.0
 23
0.0
 33
0.0
 16
1.0
 26
0.0
 36
0.0
 17
0.0
 27
1.0
 37
0.0
 76
     0
330
1F
331
29
  0
MLINESTYLE
  5
18
102
{ACAD_REACTORS
330
17
102
}
330
17
100
AcDbMlineStyle
  2
Standard
 70
     0
  3

 62
   256
 51
90.0
 52
90.0
 71
     2
 49
0.5
 62
   256
  6
BYLAYER
 49
-0.5
 62
   256
  6
BYLAYER
  0
ACDBPLACEHOLDER
  5
F
102
{ACAD_REACTORS
330
E
102
}
330
E
  0
VISUALSTYLE
  5
2F
102
{ACAD_REACTORS
330
2A
102
}
330
2A
100
AcDbVisualStyle
  2
2dWireframe
 70
     4
 71
     0
 72
     2
 73
     0
 90
        0
 40
-0.6
 41
-30.0
 62
     5
 63
     7
421
 16777215
 74
     1
 91
        4
 64
     7
 65
   257
 75
     1
175
     1
 42
1.0
 92
        0
 66
   257
 43
1.0
 76
     1
 77
     6
 78
     2
 67
     7
 79
     5
170
     0
171
     0
290
     0
174
     0
 93
        1
 44
0.0
173
     0
291
     0
 45
0.0
1001
ACAD
1000
AcDbSavedByObjectVersion
1070
     0
  0
VISUALSTYLE
  5
31
102
{ACAD_REACTORS
330
2A
102
}
330
2A
100
AcDbVisualStyle
  2
3D Hidden
 70
     6
 71
     1
 72
     2
 73
     2
 90
        0
 40
-0.6
 41
-30.0
 62
     5
 63
     7
421
 16777215
 74
     2
 91
        2
 64
     7
 65
   257
 75
     2
175
     1
 42
40.0
 92
        0
 66
   257
 43
1.0
 76
     1
 77
     6
 78
     2
 67
     7
 79
     3
170
     0
171
     0
290
     0
174
     0
 93
        1
 44
0.0
173
     0
291
     0
 45
0.0
1001
ACAD
1000
AcDbSavedByObjectVersion
1070
     0
  0
VISUALSTYLE
  5
30
102
{ACAD_REACTORS
330
2A
102
}
330
2A
100
AcDbVisualStyle
  2
3dWireframe
 70
     5
 71
     0
 72
     2
 73
     0
 90
        0
 40
-0.6
 41
-30.0
 62
     5
 63
     7
421
 16777215
 74
     1
 91
        4
 64
     7
 65
   257
 75
     1
175
     1
 42
1.0
 92
        0
 66
   257
 43
1.0
 76
     1
 77
     6
 78
     2
 67
     7
 79
     5
170
     0
171
     0
290
     0
174
     0
 93
        1
 44
0.0
173
     0
291
     0
 45
0.0
1001
ACAD
1000
AcDbSavedByObjectVersion
1070
     0
  0
VISUALSTYLE
  5
32
102
{ACAD_REACTORS
330
2A
102
}
330
2A
100
AcDbVisualStyle
  2
Basic
 70
     7
 71
     1
 72
     0
 73
     1
 90
        0
 40
-0.6
 41
-30.0
 62
     5
 63
     7
421
 16777215
 74
     0
 91
        4
 64
     7
 65
   257
 75
     1
175
     1
 42
1.0
 92
        8
 66
     7
 43
1.0
 76
     1
 77
     6
 78
     2
 67
     7
 79
     5
170
     0
171
     0
290
     0
174
     0
 93
        1
 44
0.0
173
     0
291
     1
 45
0.0
1001
ACAD
1000
AcDbSavedByObjectVersion
1070
     0
  0
VISUALSTYLE
  5
36
102
{ACAD_REACTORS
330
2A
102
}
330
2A
100
AcDbVisualStyle
  2
Brighten
 70
    12
 71
     2
 72
     2
 73
     0
 90
        0
 40
-0.6
 41
-30.0
 62
     5
 63
     7
421
 16777215
 74
     1
 91
        4
 64
     7
 65
   257
 75
     1
175
     1
 42
1.0
 92
        8
 66
     7
 43
1.0
 76
     1
 77
     6
 78
     2
 67
     7
 79
     5
170
     0
171
     0
290
     0
174
     0
 93
        1
 44
50.0
173
     0
291
     1
 45
0.0
1001
ACAD
1000
AcDbSavedByObjectVersion
1070
     0
  0
VISUALSTYLE
  5
3A
102
{ACAD_REACTORS
330
2A
102
}
330
2A
100
AcDbVisualStyle
  2
ColorChange
 70
    16
 71
     2
 72
     2
 73
     3
 90
        0
 40
-0.6
 41
-30.0
 62
     5
 63
     8
421
  8421504
 74
     1
 91
        4
 64
     7
 65
   257
 75
     1
175
     1
 42
1.0
 92
        8
 66
     8
424
  8421504
 43
1.0
 76
     1
 77
     6
 78
     2
 67
     7
 79
     5
170
     0
171
     0
290
     0
174
     0
 93
        1
 44
0.0
173
     0
291
     1
 45
0.0
1001
ACAD
1000
AcDbSavedByObjectVersion
1070
     0
  0
VISUALSTYLE
  5
34
102
{ACAD_REACTORS
330
2A
102
}
330
2A
100
AcDbVisualStyle
  2
Conceptual
 70
     9
 71
     3
 72
     2
 73
     0
 90
        0
 40
-0.6
 41
-30.0
 62
     5
 63
     7
421
 16777215
 74
     2
 91
        2
 64
     7
 65
   257
 75
     1
175
     1
 42
40.0
 92
        8
 66
     7
 43
1.0
 76
     1
 77
     6
 78
     2
 67
     7
 79
     3
170
     0
171
     0
290
     0
174
     0
 93
        1
 44
0.0
173
     0
291
     0
 45
0.0
1001
ACAD
1000
AcDbSavedByObjectVersion
1070
     0
  0
VISUALSTYLE
  5
35
102
{ACAD_REACTORS
330
2A
102
}
330
2A
100
AcDbVisualStyle
  2
Dim
 70
    11
 71
     2
 72
     2
 73
     0
 90
        0
 40
-0.6
 41
-30.0
 62
     5
 63
     7
421
 16777215
 74
     1
 91
        4
 64
     7
 65
   257
 75
     1
175
     1
 42
1.0
 92
        8
 66
     7
 43
1.0
 76
     1
 77
     6
 78
     2
 67
     7
 79
     5
170
     0
171
     0
290
     0
174
     0
 93
        1
 44
-50.0
173
     0
291
     1
 45
0.0
1001
ACAD
1000
AcDbSavedByObjectVersion
1070
     0
  0
VISUALSTYLE
  5
39
102
{ACAD_REACTORS
330
2A
102
}
330
2A
100
AcDbVisualStyle
  2
Facepattern
 70
    15
 71
     2
 72
     2
 73
     0
 90
        0
 40
-0.6
 41
-30.0
 62
     5
 63
     7
421
 16777215
 74
     1
 91
        4
 64
     7
 65
   257
 75
     1
175
     1
 42
1.0
 92
        8
 66
     7
 43
1.0
 76
     1
 77
     6
 78
     2
 67
     7
 79
     5
170
     0
171
     0
290
     0
174
     0
 93
        1
 44
0.0
173
     0
291
     1
 45
0.0
1001
ACAD
1000
AcDbSavedByObjectVersion
1070
     0
  0
VISUALSTYLE
  5
2B
102
{ACAD_REACTORS
330
2A
102
}
330
2A
100
AcDbVisualStyle
  2
Flat
 70
     0
 71
     2
 72
     1
 73
     1
 90
        2
 40
-0.6
 41
30.0
 62
     5
 63
     7
421
 16777215
 74
     0
 91
        4
 64
     7
 65
   257
 75
     1
175
     1
 42
1.0
 92
        8
 66
     7
 43
1.0
 76
     1
 77
     6
 78
     2
 67
     7
 79
     5
170
     0
171
     0
290
     0
174
     0
 93
       13
 44
0.0
173
     0
291
     1
 45
0.0
1001
ACAD
1000
AcDbSavedByObjectVersion
1070
     0
  0
VISUALSTYLE
  5
2C
102
{ACAD_REACTORS
330
2A
102
}
330
2A
100
AcDbVisualStyle
  2
FlatWithEdges
 70
     1
 71
     2
 72
     1
 73
     1
 90
        2
 40
-0.6
 41
30.0
 62
     5
 63
     7
421
 16777215
 74
     1
 91
        4
 64
     7
 65
   257
 75
     1
175
     1
 42
1.0
 92
        0
 66
   257
 43
1.0
 76
     1
 77
     6
 78
     2
 67
     7
 79
     5
170
     0
171
     0
290
     0
174
     0
 93
       13
 44
0.0
173
     0
291
     1
 45
0.0
1001
ACAD
1000
AcDbSavedByObjectVersion
1070
     0
  0
VISUALSTYLE
  5
2D
102
{ACAD_REACTORS
330
2A
102
}
330
2A
100
AcDbVisualStyle
  2
Gouraud
 70
     2
 71
     2
 72
     2
 73
     1
 90
        2
 40
-0.6
 41
30.0
 62
     5
 63
     7
421
 16777215
 74
     0
 91
        4
 64
     7
 65
   257
 75
     1
175
     1
 42
1.0
 92
        0
 66
     7
 43
1.0
 76
     1
 77
     6
 78
     2
 67
     7
 79
     5
170
     0
171
     0
290
     0
174
     0
 93
       13
 44
0.0
173
     0
291
     1
 45
0.0
1001
ACAD
1000
AcDbSavedByObjectVersion
1070
     0
  0
VISUALSTYLE
  5
2E
102
{ACAD_REACTORS
330
2A
102
}
330
2A
100
AcDbVisualStyle
  2
GouraudWithEdges
 70
     3
 71
     2
 72
     2
 73
     1
 90
        2
 40
-0.6
 41
30.0
 62
     5
 63
     7
421
 16777215
 74
     1
 91
        4
 64
     7
 65
   257
 75
     1
175
     1
 42
1.0
 92
        0
 66
   257
 43
1.0
 76
     1
 77
     6
 78
     2
 67
     7
 79
     5
170
     0
171
     0
290
     0
174
     0
 93
       13
 44
0.0
173
     0
291
     1
 45
0.0
1001
ACAD
1000
AcDbSavedByObjectVersion
1070
     0
  0
VISUALSTYLE
  5
38
102
{ACAD_REACTORS
330
2A
102
}
330
2A
100
AcDbVisualStyle
  2
Linepattern
 70
    14
 71
     2
 72
     2
 73
     0
 90
        0
 40
-0.6
 41
-30.0
 62
     5
 63
     7
421
 16777215
 74
     1
 91
        4
 64
     7
 65
   257
 75
     7
175
     7
 42
1.0
 92
        8
 66
     7
 43
1.0
 76
     1
 77
     6
 78
     2
 67
     7
 79
     5
170
     0
171
     0
290
     0
174
     0
 93
        1
 44
0.0
173
     0
291
     1
 45
0.0
1001
ACAD
1000
AcDbSavedByObjectVersion
1070
     0
  0
VISUALSTYLE
  5
33
102
{ACAD_REACTORS
330
2A
102
}
330
2A
100
AcDbVisualStyle
  2
Realistic
 70
     8
 71
     2
 72
     2
 73
     0
 90
        0
 40
-0.6
 41
-30.0
 62
     5
 63
     7
421
 16777215
 74
     1
 91
        0
 64
     7
 65
   257
 75
     1
175
     1
 42
1.0
 92
        8
 66
     8
424
  7895160
 43
1.0
 76
     1
 77
     6
 78
     2
 67
     7
 79
     5
170
     0
171
     0
290
     0
174
     0
 93
       13
 44
0.0
173
     0
291
     0
 45
0.0
1001
ACAD
1000
AcDbSavedByObjectVersion
1070
     0
  0
VISUALSTYLE
  5
37
102
{ACAD_REACTORS
330
2A
102
}
330
2A
100
AcDbVisualStyle
  2
Thicken
 70
    13
 71
     2
 72
     2
 73
     0
 90
        0
 40
-0.6
 41
-30.0
 62
     5
 63
     7
421
 16777215
 74
     1
 91
        4
 64
     7
 65
   257
 75
     1
175
     1
 42
1.0
 92
       12
 66
     7
 43
1.0
 76
     1
 77
     6
 78
     2
 67
     7
 79
     5
170
     0
171
     0
290
     0
174
     0
 93
        1
 44
0.0
173
     0
291
     1
 45
0.0
1001
ACAD
1000
AcDbSavedByObjectVersion
1070
     0
  0
ENDSEC
  0
EOF
