<?xml version="1.0" encoding="utf-8"?>
<!-- Generator: Adobe Illustrator 16.0.0, SVG Export Plug-In . SVG Version: 6.00 Build 0)  -->
<!DOCTYPE svg PUBLIC "-//W3C//DTD SVG 1.1//EN" "http://www.w3.org/Graphics/SVG/1.1/DTD/svg11.dtd">
<svg version="1.1" id="Layer_1" xmlns="http://www.w3.org/2000/svg" xmlns:xlink="http://www.w3.org/1999/xlink" x="0px" y="0px"
	 width="566.93px" height="708.661px" viewBox="0 0 566.93 708.661" enable-background="new 0 0 566.93 708.661"
	 xml:space="preserve">
<circle fill="none" stroke="#231F20" stroke-width="0.25" stroke-linecap="round" stroke-linejoin="round" cx="184.252" cy="28.347" r="14.173"/>
<circle fill="none" stroke="#231F20" stroke-width="0.25" stroke-linecap="round" stroke-linejoin="round" cx="425.197" cy="680.316" r="5.669"/>
<circle fill="none" stroke="#231F20" stroke-width="0.25" stroke-linecap="round" stroke-linejoin="round" cx="141.732" cy="680.315" r="5.669"/>
<circle fill="none" stroke="#231F20" stroke-width="0.25" stroke-linecap="round" stroke-linejoin="round" cx="425.197" cy="396.851" r="5.669"/>
<circle fill="none" stroke="#231F20" stroke-width="0.25" stroke-linecap="round" stroke-linejoin="round" cx="425.197" cy="581.103" r="5.669"/>
<circle fill="none" stroke="#231F20" stroke-width="0.25" stroke-linecap="round" stroke-linejoin="round" cx="425.197" cy="496.063" r="5.669"/>
<circle fill="none" stroke="#231F20" stroke-width="0.25" stroke-linecap="round" stroke-linejoin="round" cx="141.732" cy="581.103" r="5.669"/>
<circle fill="none" stroke="#231F20" stroke-width="0.25" stroke-linecap="round" stroke-linejoin="round" cx="141.732" cy="496.063" r="5.669"/>
<circle fill="none" stroke="#231F20" stroke-width="0.25" stroke-linecap="round" stroke-linejoin="round" cx="141.732" cy="396.851" r="5.669"/>
<circle fill="none" stroke="#231F20" stroke-width="0.25" stroke-linecap="round" stroke-linejoin="round" cx="425.197" cy="127.561" r="11.339"/>
<circle fill="none" stroke="#231F20" stroke-width="0.25" stroke-linecap="round" stroke-linejoin="round" cx="396.85" cy="538.584" r="5.669"/>
<circle fill="none" stroke="#231F20" stroke-width="0.25" stroke-linecap="round" stroke-linejoin="round" cx="170.079" cy="538.584" r="5.669"/>
<circle fill="none" stroke="#231F20" stroke-width="0.25" stroke-linecap="round" stroke-linejoin="round" cx="396.85" cy="170.079" r="5.669"/>
<circle fill="none" stroke="#231F20" stroke-width="0.25" stroke-linecap="round" stroke-linejoin="round" cx="170.079" cy="170.08" r="5.669"/>
<circle fill="none" stroke="#231F20" stroke-width="0.25" stroke-linecap="round" stroke-linejoin="round" cx="141.732" cy="127.56" r="11.339"/>
<circle fill="none" stroke="#231F20" stroke-width="0.25" stroke-linecap="round" stroke-linejoin="round" cx="425.197" cy="212.6" r="11.339"/>
<circle fill="none" stroke="#231F20" stroke-width="0.25" stroke-linecap="round" stroke-linejoin="round" cx="141.732" cy="212.599" r="11.339"/>
<circle fill="none" stroke="#231F20" stroke-width="0.25" stroke-linecap="round" stroke-linejoin="round" cx="425.197" cy="311.812" r="11.339"/>
<circle fill="none" stroke="#231F20" stroke-width="0.25" stroke-linecap="round" stroke-linejoin="round" cx="141.732" cy="311.812" r="11.339"/>
<circle fill="none" stroke="#231F20" stroke-width="0.25" stroke-linecap="round" stroke-linejoin="round" cx="425.197" cy="28.347" r="11.339"/>
<circle fill="none" stroke="#231F20" stroke-width="0.25" stroke-linecap="round" stroke-linejoin="round" cx="141.732" cy="28.347" r="11.339"/>
<circle fill="none" stroke="#231F20" stroke-width="0.25" stroke-linecap="round" stroke-linejoin="round" cx="382.677" cy="311.811" r="14.173"/>
<circle fill="none" stroke="#231F20" stroke-width="0.25" stroke-linecap="round" stroke-linejoin="round" cx="141.732" cy="269.292" r="14.173"/>
<circle fill="none" stroke="#231F20" stroke-width="0.25" stroke-linecap="round" stroke-linejoin="round" cx="425.197" cy="70.866" r="14.173"/>
<path fill="none" stroke="#231F20" stroke-width="0.25" stroke-linecap="round" stroke-linejoin="round" d="M565.512,560.552h1.418
	c0-3.071,0-6.142,0-9.213h-1.418v-25.512h1.418c0-3.071,0-6.142,0-9.213h-1.418v-25.512h1.418c0-0.236,0-0.473,0-0.709
	c0-4.696-3.808-8.504-8.504-8.504c-32.127,0-64.253,0-96.379,0c-4.697,0-8.504-3.808-8.504-8.504c0-32.126,0-64.252,0-96.378
	c0-4.697-3.808-8.504-8.504-8.504c-145.512,0-291.023,0-436.535,0c-4.697,0-8.504,3.807-8.504,8.504c0,32.126,0,64.252,0,96.378
	c0,4.696,3.807,8.504,8.504,8.504c21.039,0,75.339,0,96.378,0c4.697,0,8.504,3.808,8.504,8.504c0,0.236,0,0.474,0,0.71h1.544v25.511
	h-1.544c0,3.071,0,6.142,0,9.213h1.544v25.512h-1.544c0,3.071,0,6.143,0,9.213h1.544v25.512h-1.544c0,0.235,0,0.472,0,0.708
	c0,4.696-3.807,8.504-8.504,8.504c-32.126,0-64.252,0-96.378,0c-4.697,0-8.504,3.807-8.504,8.504c0,32.127,0,64.252,0,96.379
	c0,4.697,3.807,8.504,8.504,8.504c145.512,0,291.023,0,436.535,0c4.696,0,8.504-3.807,8.504-8.504c0-32.127,0-64.252,0-96.379
	c0-4.697,3.807-8.504,8.504-8.504c32.126,0,64.252,0,96.379,0c4.696,0,8.504-3.808,8.504-8.504c0-0.236,0-0.473,0-0.708h-1.418
	V560.552z"/>
<path fill="none" stroke="#231F20" stroke-width="0.25" stroke-linecap="round" stroke-linejoin="round" d="M565.512,192.047h1.418
	c0-3.071,0-6.142,0-9.212h-1.418v-25.512h1.418c0-3.071,0-6.142,0-9.213h-1.418v-25.512h1.418c0-0.236,0-0.473,0-0.709
	c0-4.697-3.808-8.504-8.504-8.504c-32.127,0-64.253,0-96.379,0c-4.697,0-8.504-3.807-8.504-8.504c0-32.126,0-64.252,0-96.378
	c0-4.697-3.808-8.504-8.504-8.504C299.527,0,154.016,0,8.504,0C3.807,0,0,3.807,0,8.504c0,32.126,0,64.252,0,96.378
	c0,4.697,3.807,8.504,8.504,8.504c21.039,0,75.339,0,96.378,0c4.697,0,8.504,3.807,8.504,8.504c0,0.236,0,0.473,0,0.709h1.417
	v25.512h-1.417c0,3.071,0,6.142,0,9.212h1.417v25.512h-1.417c0,3.071,0,6.142,0,9.213h1.417v25.511h-1.417c0,0.236,0,0.473,0,0.709
	c0,4.696-3.807,8.504-8.504,8.504c-32.126,0-64.252,0-96.378,0c-4.697,0-8.504,3.807-8.504,8.504c0,32.127,0,64.252,0,96.379
	c0,4.697,3.807,8.504,8.504,8.504c145.512,0,291.023,0,436.535,0c4.696,0,8.504-3.807,8.504-8.504c0-32.127,0-64.252,0-96.379
	c0-4.697,3.807-8.504,8.504-8.504c32.126,0,64.252,0,96.379,0c4.696,0,8.504-3.808,8.504-8.504c0-0.236,0-0.473,0-0.709h-1.418
	V192.047z"/>
</svg>
