G75*
G70*
%OFA0B0*%
%FSLAX24Y24*%
%IPPOS*%
%LPD*%
%AMOC8*
5,1,8,0,0,1.08239X$1,22.5*
%
%ADD10R,0.0472X0.0315*%
%ADD11R,0.0472X0.0551*%
%ADD12R,0.0709X0.0630*%
%ADD13C,0.0250*%
%ADD14R,0.2362X0.2756*%
%ADD15R,0.0236X0.0866*%
%ADD16C,0.0197*%
%ADD17C,0.0160*%
%ADD18C,0.0394*%
D10*
X050560Y004904D03*
X050560Y005612D03*
X058434Y004431D03*
X058434Y003723D03*
D11*
X057843Y006833D03*
X056662Y006833D03*
D12*
X048591Y005809D03*
X048591Y004707D03*
D13*
X013300Y007640D03*
X012300Y007640D03*
D14*
X030481Y002845D03*
X030481Y007467D03*
X030481Y012093D03*
X089143Y012093D03*
X089143Y007467D03*
X089143Y002845D03*
D15*
X053672Y006990D03*
X053172Y006990D03*
X052672Y006990D03*
X052172Y006990D03*
X052172Y009038D03*
X052672Y009038D03*
X053172Y009038D03*
X053672Y009038D03*
D16*
X052036Y007916D02*
X055875Y007916D01*
X056170Y007620D01*
X060796Y007620D01*
X058434Y006439D02*
X058040Y006833D01*
X057843Y006833D01*
X056662Y006833D02*
X055973Y006833D01*
X055481Y007325D01*
X053217Y007325D01*
X053217Y007029D01*
X052135Y006984D02*
X052135Y007227D01*
X052233Y007325D01*
X053217Y007325D01*
X052036Y007916D02*
X051741Y007620D01*
X050560Y007620D01*
X048591Y007620D01*
X045048Y007620D01*
X048591Y007620D02*
X048591Y005809D01*
X050560Y005652D02*
X052627Y005652D01*
X050560Y005652D02*
X050560Y007620D01*
X058434Y006439D02*
X058434Y004471D01*
X058434Y003723D02*
X058434Y002502D01*
X050560Y002502D02*
X050560Y004904D01*
X048591Y004707D02*
X048591Y002502D01*
X050560Y005612D02*
X050560Y005652D01*
D17*
X052627Y005652D02*
X053119Y005652D01*
X053119Y006990D01*
X053172Y006990D01*
X052672Y006990D02*
X052172Y006990D01*
X053672Y006990D02*
X053709Y006990D01*
X053709Y002502D01*
X052172Y009038D02*
X052135Y009038D01*
X052135Y013132D01*
D18*
X060796Y013132D01*
X060796Y009983D01*
X089143Y009983D01*
X089143Y012093D01*
X089143Y007467D02*
X060796Y007467D01*
X060796Y007620D01*
X060796Y004864D02*
X089143Y004864D01*
X089143Y002845D01*
X060796Y002502D02*
X058434Y002502D01*
X053709Y002502D01*
X050560Y002502D01*
X048591Y002502D01*
X045048Y002502D01*
X045048Y004864D01*
X030481Y004864D01*
X030481Y002845D01*
X030481Y007467D02*
X045048Y007467D01*
X045048Y007620D01*
X045048Y009983D02*
X030481Y009983D01*
X030481Y012093D01*
X045048Y013132D02*
X045048Y009983D01*
X045048Y013132D02*
X052135Y013132D01*
X060796Y004864D02*
X060796Y002502D01*
M02*
