G75*
G70*
%OFA0B0*%
%FSLAX24Y24*%
%IPPOS*%
%LPD*%
%AMOC8*
5,1,8,0,0,1.08239X$1,22.5*
%
%ADD10R,0.0551X0.0472*%
%ADD11R,0.0472X0.0315*%
%ADD12R,0.0394X0.0433*%
%ADD13R,0.2362X0.2756*%
%ADD14R,0.0500X0.1000*%
%ADD15R,0.0236X0.0866*%
%ADD16R,0.1000X0.0500*%
%ADD17C,0.0160*%
%ADD18C,0.0394*%
%ADD19C,0.0197*%
%ADD20C,0.0157*%
%ADD21C,0.0400*%
D10*
X048175Y002299D03*
X049425Y002299D03*
X051175Y002299D03*
X052425Y002299D03*
X054175Y002299D03*
X055425Y002299D03*
X057175Y002299D03*
X058425Y002299D03*
X058425Y003481D03*
X057175Y003481D03*
X055425Y003481D03*
X054175Y003481D03*
X052425Y003481D03*
X051175Y003481D03*
X049425Y003481D03*
X048175Y003481D03*
D11*
X048175Y004286D03*
X049425Y004286D03*
X051175Y004286D03*
X052425Y004286D03*
X054175Y004286D03*
X055425Y004286D03*
X057175Y004286D03*
X058425Y004286D03*
X058425Y004994D03*
X057175Y004994D03*
X055425Y004994D03*
X054175Y004994D03*
X052425Y004994D03*
X051175Y004994D03*
X049425Y004994D03*
X048175Y004994D03*
X053300Y007392D03*
X053300Y008101D03*
X053300Y008892D03*
X053300Y009601D03*
X053300Y010392D03*
X053300Y011101D03*
X053300Y011892D03*
X053300Y012601D03*
X053300Y013392D03*
X053300Y014101D03*
X059300Y014101D03*
X059300Y013392D03*
X059300Y012601D03*
X059300Y011892D03*
X059300Y011101D03*
X059300Y010392D03*
X059300Y009601D03*
X059300Y008892D03*
X059300Y008101D03*
X059300Y007392D03*
D12*
X046300Y004975D03*
X046300Y004305D03*
D13*
X030481Y002845D03*
X030481Y007467D03*
X030481Y012093D03*
X089143Y012093D03*
X089143Y007467D03*
X089143Y002845D03*
D14*
X060402Y011557D03*
X057253Y011557D03*
X051052Y011557D03*
X046229Y011557D03*
D15*
X049515Y009136D03*
X050015Y009136D03*
X050515Y009136D03*
X051015Y009136D03*
X055519Y009136D03*
X056019Y009136D03*
X056519Y009136D03*
X057019Y009136D03*
X057019Y007089D03*
X056519Y007089D03*
X056019Y007089D03*
X055519Y007089D03*
X051015Y007089D03*
X050515Y007089D03*
X050015Y007089D03*
X049515Y007089D03*
D16*
X052135Y006439D03*
X058237Y006439D03*
D17*
X058139Y006341D01*
X056564Y006341D01*
X056519Y006386D01*
X056519Y007089D01*
X056072Y007227D02*
X056072Y007620D01*
X056591Y008140D01*
X058175Y008140D01*
X058175Y008496D01*
X059300Y008496D01*
X059300Y008101D01*
X059300Y008496D02*
X059300Y008892D01*
X057019Y009136D02*
X057019Y011323D01*
X057253Y011557D01*
X059300Y011892D02*
X059300Y011101D01*
X059300Y010392D02*
X059300Y009983D01*
X058828Y009983D01*
X058434Y010376D01*
X058434Y012345D01*
X058040Y012738D01*
X056859Y012738D01*
X056465Y012345D01*
X056465Y009589D01*
X056465Y009189D02*
X056519Y009136D01*
X056050Y009105D02*
X056019Y009136D01*
X056050Y009105D02*
X056050Y008640D01*
X055550Y008140D01*
X054800Y008140D01*
X054800Y005640D01*
X054175Y005640D01*
X054175Y004994D01*
X055425Y004994D02*
X055425Y005640D01*
X054800Y005640D01*
X055550Y006265D02*
X055944Y005871D01*
X057175Y005871D01*
X058425Y005871D01*
X058425Y004994D01*
X057175Y004994D02*
X057175Y005871D01*
X055550Y006265D02*
X055550Y007057D01*
X055519Y007089D01*
X057019Y007089D02*
X059249Y007089D01*
X059300Y007140D01*
X059300Y000640D01*
X058425Y000640D02*
X058425Y002299D01*
X057175Y002299D02*
X057175Y000640D01*
X055425Y000640D02*
X055425Y002299D01*
X054175Y002299D02*
X054175Y000640D01*
X053300Y000640D02*
X053300Y007392D01*
X053316Y007227D02*
X053178Y007089D01*
X051015Y007089D01*
X050515Y007089D02*
X050515Y006484D01*
X050560Y006439D01*
X052135Y006439D01*
X049944Y005871D02*
X049477Y006338D01*
X049477Y007030D01*
X050015Y007089D02*
X050068Y007142D01*
X050068Y007817D01*
X050391Y008140D01*
X052175Y008140D01*
X052175Y011496D01*
X053300Y011496D01*
X053300Y011101D01*
X053300Y011496D02*
X053300Y011892D01*
X051052Y011557D02*
X051015Y011520D01*
X051015Y009136D01*
X050515Y009136D02*
X050515Y012461D01*
X051050Y012996D01*
X053300Y012996D01*
X053300Y012601D01*
X053300Y012996D02*
X053300Y013392D01*
X055519Y014034D02*
X055550Y014065D01*
X055519Y014034D02*
X055519Y009136D01*
X053300Y008892D02*
X053300Y008101D01*
X050050Y008640D02*
X050050Y009101D01*
X050015Y009136D01*
X049515Y009136D02*
X049477Y009136D01*
X049477Y014313D01*
X059300Y013392D02*
X059300Y012601D01*
X053300Y010392D02*
X053300Y009601D01*
X050050Y008640D02*
X049550Y008140D01*
X048800Y008140D01*
X048800Y005640D01*
X048175Y005640D01*
X048175Y004994D01*
X049425Y004994D02*
X049425Y005640D01*
X048800Y005640D01*
X049944Y005871D02*
X051175Y005871D01*
X052425Y005871D01*
X052425Y004994D01*
X051175Y004994D02*
X051175Y005871D01*
X046300Y004975D02*
X046300Y007620D01*
X046300Y011640D01*
X059300Y009983D02*
X059300Y009601D01*
X059300Y007392D02*
X059300Y007140D01*
X058425Y004286D02*
X058425Y003481D01*
X057175Y003481D02*
X057175Y004286D01*
X055425Y004286D02*
X055425Y003481D01*
X054175Y003481D02*
X054175Y004286D01*
X052425Y004286D02*
X052425Y003481D01*
X051175Y003481D02*
X051175Y004286D01*
X049425Y004286D02*
X049425Y003481D01*
X048175Y003481D02*
X048175Y004286D01*
X046300Y004305D02*
X046300Y000640D01*
X048175Y000640D02*
X048175Y002299D01*
X049425Y002299D02*
X049425Y000640D01*
X051175Y000640D02*
X051175Y002299D01*
X052425Y002299D02*
X052425Y000640D01*
D18*
X052528Y000534D02*
X053316Y000534D01*
X054103Y000534D01*
X058434Y000534D01*
X059221Y000534D01*
X061190Y000534D01*
X061190Y005160D01*
X089143Y005160D01*
X089143Y002845D01*
X089143Y007467D02*
X061190Y007467D01*
X061190Y007620D01*
X061190Y009983D02*
X089143Y009983D01*
X089143Y012093D01*
X061190Y009983D02*
X061190Y014313D01*
X059300Y014313D01*
X056072Y014313D01*
X053316Y014313D01*
X049477Y014313D01*
X049379Y014313D01*
X045048Y014313D01*
X045048Y009983D01*
X030481Y009983D01*
X030481Y012093D01*
X031269Y007695D02*
X030481Y007620D01*
X030481Y007467D01*
X030481Y007620D02*
X045048Y007620D01*
X045048Y004864D02*
X030481Y004864D01*
X030481Y002845D01*
X045048Y004864D02*
X045048Y000534D01*
X046229Y000534D01*
X048198Y000534D01*
X049379Y000534D01*
X052528Y000534D01*
D19*
X052528Y000640D01*
X052425Y000640D01*
X053300Y000640D02*
X053316Y000640D01*
X053316Y000534D01*
X054103Y000534D02*
X054103Y000640D01*
X054175Y000640D01*
X058425Y000640D02*
X058434Y000640D01*
X058434Y000534D01*
X059221Y000534D02*
X059221Y000640D01*
X059300Y000640D01*
X049425Y000640D02*
X049379Y000640D01*
X049379Y000534D01*
X048198Y000534D02*
X048198Y000640D01*
X048175Y000640D01*
X046300Y000640D02*
X046229Y000640D01*
X046229Y000534D01*
X046300Y007620D02*
X045048Y007620D01*
X060402Y007620D02*
X061190Y007620D01*
X060402Y007620D02*
X060402Y011557D01*
X055550Y014065D02*
X055550Y014185D01*
X056072Y014313D01*
X053316Y014313D02*
X053316Y014101D01*
X053300Y014101D01*
X049550Y014262D02*
X049379Y014262D01*
X049379Y014313D01*
D20*
X059300Y014313D02*
X059300Y014101D01*
D21*
X060402Y011853D02*
X060402Y011656D01*
X046328Y011656D02*
X046328Y011853D01*
M02*
