G75*
G70*
%OFA0B0*%
%FSLAX24Y24*%
%IPPOS*%
%LPD*%
%AMOC8*
5,1,8,0,0,1.08239X$1,22.5*
%
%ADD10R,0.0551X0.0472*%
%ADD11R,0.0472X0.0315*%
%ADD12R,0.0394X0.0433*%
%ADD13R,0.0240X0.0870*%
%ADD14R,0.2362X0.2756*%
%ADD15C,0.0160*%
%ADD16C,0.0394*%
%ADD17C,0.0197*%
%ADD18C,0.0157*%
%ADD19C,0.0400*%
D10*
X048175Y002299D03*
X049425Y002299D03*
X051175Y002299D03*
X052425Y002299D03*
X054175Y002299D03*
X055425Y002299D03*
X057175Y002299D03*
X058425Y002299D03*
X058425Y003481D03*
X057175Y003481D03*
X055425Y003481D03*
X054175Y003481D03*
X052425Y003481D03*
X051175Y003481D03*
X049425Y003481D03*
X048175Y003481D03*
D11*
X048175Y004286D03*
X049425Y004286D03*
X051175Y004286D03*
X052425Y004286D03*
X054175Y004286D03*
X055425Y004286D03*
X057175Y004286D03*
X058425Y004286D03*
X058425Y004994D03*
X057175Y004994D03*
X055425Y004994D03*
X054175Y004994D03*
X052425Y004994D03*
X051175Y004994D03*
X049425Y004994D03*
X048175Y004994D03*
X053300Y007392D03*
X053300Y008101D03*
X053300Y008892D03*
X053300Y009601D03*
X053300Y010392D03*
X053300Y011101D03*
X053300Y011892D03*
X053300Y012601D03*
X053300Y013392D03*
X053300Y014101D03*
X059300Y014101D03*
X059300Y013392D03*
X059300Y012601D03*
X059300Y011892D03*
X059300Y011101D03*
X059300Y010392D03*
X059300Y009601D03*
X059300Y008892D03*
X059300Y008101D03*
X059300Y007392D03*
D12*
X046300Y004975D03*
X046300Y004305D03*
D13*
X049550Y007110D03*
X050050Y007110D03*
X050550Y007110D03*
X051050Y007110D03*
X055550Y007110D03*
X056050Y007110D03*
X056550Y007110D03*
X057050Y007110D03*
X057050Y009170D03*
X056550Y009170D03*
X056050Y009170D03*
X055550Y009170D03*
X051050Y009170D03*
X050550Y009170D03*
X050050Y009170D03*
X049550Y009170D03*
D14*
X030481Y002845D03*
X030481Y007467D03*
X030481Y012093D03*
X089143Y012093D03*
X089143Y007467D03*
X089143Y002845D03*
D15*
X059300Y000640D02*
X059300Y007140D01*
X059270Y007110D01*
X057050Y007110D01*
X057050Y006890D01*
X056550Y007110D02*
X056550Y007765D01*
X056925Y008140D01*
X058175Y008140D01*
X058175Y008496D01*
X059300Y008496D01*
X059300Y008101D01*
X059300Y008496D02*
X059300Y008892D01*
X057050Y009170D02*
X057050Y009996D01*
X059300Y009996D01*
X059300Y009601D01*
X059300Y009996D02*
X059300Y010392D01*
X059300Y011101D02*
X059300Y011892D01*
X056550Y011640D02*
X056550Y008390D01*
X056050Y007890D01*
X056050Y007110D01*
X055550Y007110D02*
X055550Y006265D01*
X056175Y006265D01*
X057175Y006265D01*
X058425Y006265D01*
X058425Y004994D01*
X057175Y004994D02*
X057175Y006265D01*
X055425Y005640D02*
X054800Y005640D01*
X054175Y005640D01*
X054175Y005265D01*
X054175Y004994D01*
X055425Y004994D02*
X055425Y005640D01*
X054800Y005640D02*
X054800Y008140D01*
X055550Y008140D01*
X056050Y008640D01*
X056050Y009170D01*
X055550Y009170D02*
X055550Y014065D01*
X053300Y013392D02*
X053300Y012996D01*
X051050Y012996D01*
X051050Y009170D01*
X050550Y009170D02*
X050550Y011640D01*
X052175Y011496D02*
X053300Y011496D01*
X053300Y011101D01*
X053300Y011496D02*
X053300Y011892D01*
X052175Y011496D02*
X052175Y008140D01*
X050925Y008140D01*
X050550Y007765D01*
X050550Y007110D01*
X050050Y007110D02*
X050050Y007890D01*
X050550Y008390D01*
X050550Y009170D01*
X050050Y009170D02*
X050050Y008640D01*
X049550Y008140D01*
X048800Y008140D01*
X048800Y005640D01*
X048175Y005640D01*
X048175Y004994D01*
X049425Y004994D02*
X049425Y005640D01*
X048800Y005640D01*
X049550Y006265D02*
X050175Y006265D01*
X050675Y006265D01*
X051175Y006265D01*
X052425Y006265D01*
X052425Y004994D01*
X051175Y004994D02*
X051175Y006265D01*
X049550Y006265D02*
X049550Y007110D01*
X051050Y007110D02*
X053300Y007110D01*
X053300Y000640D01*
X052425Y000640D02*
X052425Y002299D01*
X051175Y002299D02*
X051175Y000640D01*
X049425Y000640D02*
X049425Y002299D01*
X048175Y002299D02*
X048175Y000640D01*
X046300Y000640D02*
X046300Y004305D01*
X048175Y004286D02*
X048175Y003481D01*
X049425Y003481D02*
X049425Y004286D01*
X051175Y004286D02*
X051175Y003481D01*
X052425Y003481D02*
X052425Y004286D01*
X054175Y004286D02*
X054175Y003481D01*
X055425Y003481D02*
X055425Y004286D01*
X057175Y004286D02*
X057175Y003481D01*
X058425Y003481D02*
X058425Y004286D01*
X058425Y002299D02*
X058425Y000640D01*
X057175Y000640D02*
X057175Y002299D01*
X055425Y002299D02*
X055425Y000640D01*
X054175Y000640D02*
X054175Y002299D01*
X046300Y004975D02*
X046300Y007620D01*
X046300Y011640D01*
X053300Y012601D02*
X053300Y012996D01*
X049550Y014262D02*
X049550Y009170D01*
X053300Y008892D02*
X053300Y008101D01*
X053300Y007392D02*
X053300Y007110D01*
X059300Y007140D02*
X059300Y007392D01*
X053300Y009601D02*
X053300Y010392D01*
X059300Y012601D02*
X059300Y013392D01*
D16*
X059300Y014313D02*
X056072Y014313D01*
X053316Y014313D01*
X049379Y014313D01*
X045048Y014313D01*
X045048Y009983D01*
X030481Y009983D01*
X030481Y012093D01*
X031269Y007695D02*
X030481Y007620D01*
X030481Y007467D01*
X030481Y007620D02*
X045048Y007620D01*
X045048Y004864D02*
X030481Y004864D01*
X030481Y002845D01*
X045048Y004864D02*
X045048Y000534D01*
X046229Y000534D01*
X048198Y000534D01*
X049379Y000534D01*
X052528Y000534D01*
X053316Y000534D01*
X054103Y000534D01*
X058434Y000534D01*
X059221Y000534D01*
X061190Y000534D01*
X061190Y005160D01*
X089143Y005160D01*
X089143Y002845D01*
X089143Y007467D02*
X061190Y007467D01*
X061190Y007620D01*
X061190Y009983D02*
X089143Y009983D01*
X089143Y012093D01*
X061190Y009983D02*
X061190Y014313D01*
X059300Y014313D01*
D17*
X056072Y014313D02*
X055550Y014185D01*
X055550Y014065D01*
X053316Y014101D02*
X053316Y014313D01*
X053300Y014101D02*
X053316Y014101D01*
X049550Y014262D02*
X049379Y014262D01*
X049379Y014313D01*
X060402Y011557D02*
X060402Y007620D01*
X061190Y007620D01*
X046300Y007620D02*
X045048Y007620D01*
X046229Y000640D02*
X046229Y000534D01*
X046229Y000640D02*
X046300Y000640D01*
X048175Y000640D02*
X048198Y000640D01*
X048198Y000534D01*
X049379Y000534D02*
X049379Y000640D01*
X049425Y000640D01*
X052425Y000640D02*
X052528Y000640D01*
X052528Y000534D01*
X053300Y000640D02*
X053316Y000640D01*
X053316Y000534D01*
X054103Y000534D02*
X054103Y000640D01*
X054175Y000640D01*
X058425Y000640D02*
X058434Y000640D01*
X058434Y000534D01*
X059221Y000534D02*
X059221Y000640D01*
X059300Y000640D01*
D18*
X059300Y014101D02*
X059300Y014313D01*
D19*
X060402Y011853D02*
X060402Y011656D01*
X056564Y011656D02*
X056564Y011853D01*
X050560Y011853D02*
X050560Y011656D01*
X046328Y011656D02*
X046328Y011853D01*
M02*
