G75*
G70*
%OFA0B0*%
%FSLAX24Y24*%
%IPPOS*%
%LPD*%
%AMOC8*
5,1,8,0,0,1.08239X$1,22.5*
%
%ADD10C,0.0010*%
D10*
X036430Y001955D02*
X036432Y001994D01*
X036438Y002032D01*
X036447Y002070D01*
X036461Y002106D01*
X036477Y002142D01*
X036498Y002175D01*
X036521Y002206D01*
X036548Y002234D01*
X036577Y002260D01*
X036608Y002283D01*
X036642Y002302D01*
X036678Y002318D01*
X036714Y002330D01*
X036752Y002339D01*
X036791Y002344D01*
X036830Y002345D01*
X036868Y002342D01*
X036907Y002335D01*
X036944Y002325D01*
X036980Y002310D01*
X037015Y002293D01*
X037048Y002272D01*
X037078Y002247D01*
X037106Y002220D01*
X037131Y002190D01*
X037153Y002158D01*
X037171Y002124D01*
X037186Y002088D01*
X037198Y002051D01*
X037206Y002013D01*
X037210Y001974D01*
X037210Y001936D01*
X037206Y001897D01*
X037198Y001859D01*
X037186Y001822D01*
X037171Y001786D01*
X037153Y001752D01*
X037131Y001720D01*
X037106Y001690D01*
X037078Y001663D01*
X037048Y001638D01*
X037015Y001617D01*
X036980Y001600D01*
X036944Y001585D01*
X036907Y001575D01*
X036868Y001568D01*
X036830Y001565D01*
X036791Y001566D01*
X036752Y001571D01*
X036714Y001580D01*
X036678Y001592D01*
X036642Y001608D01*
X036608Y001627D01*
X036577Y001650D01*
X036548Y001676D01*
X036521Y001704D01*
X036498Y001735D01*
X036477Y001768D01*
X036461Y001804D01*
X036447Y001840D01*
X036438Y001878D01*
X036432Y001916D01*
X036430Y001955D01*
X036420Y001555D02*
X037220Y002355D01*
X082414Y001955D02*
X082416Y001994D01*
X082422Y002032D01*
X082431Y002070D01*
X082445Y002106D01*
X082461Y002142D01*
X082482Y002175D01*
X082505Y002206D01*
X082532Y002234D01*
X082561Y002260D01*
X082592Y002283D01*
X082626Y002302D01*
X082662Y002318D01*
X082698Y002330D01*
X082736Y002339D01*
X082775Y002344D01*
X082814Y002345D01*
X082852Y002342D01*
X082891Y002335D01*
X082928Y002325D01*
X082964Y002310D01*
X082999Y002293D01*
X083032Y002272D01*
X083062Y002247D01*
X083090Y002220D01*
X083115Y002190D01*
X083137Y002158D01*
X083155Y002124D01*
X083170Y002088D01*
X083182Y002051D01*
X083190Y002013D01*
X083194Y001974D01*
X083194Y001936D01*
X083190Y001897D01*
X083182Y001859D01*
X083170Y001822D01*
X083155Y001786D01*
X083137Y001752D01*
X083115Y001720D01*
X083090Y001690D01*
X083062Y001663D01*
X083032Y001638D01*
X082999Y001617D01*
X082964Y001600D01*
X082928Y001585D01*
X082891Y001575D01*
X082852Y001568D01*
X082814Y001565D01*
X082775Y001566D01*
X082736Y001571D01*
X082698Y001580D01*
X082662Y001592D01*
X082626Y001608D01*
X082592Y001627D01*
X082561Y001650D01*
X082532Y001676D01*
X082505Y001704D01*
X082482Y001735D01*
X082461Y001768D01*
X082445Y001804D01*
X082431Y001840D01*
X082422Y001878D01*
X082416Y001916D01*
X082414Y001955D01*
X082404Y001555D02*
X083204Y002355D01*
X082414Y012979D02*
X082416Y013018D01*
X082422Y013056D01*
X082431Y013094D01*
X082445Y013130D01*
X082461Y013166D01*
X082482Y013199D01*
X082505Y013230D01*
X082532Y013258D01*
X082561Y013284D01*
X082592Y013307D01*
X082626Y013326D01*
X082662Y013342D01*
X082698Y013354D01*
X082736Y013363D01*
X082775Y013368D01*
X082814Y013369D01*
X082852Y013366D01*
X082891Y013359D01*
X082928Y013349D01*
X082964Y013334D01*
X082999Y013317D01*
X083032Y013296D01*
X083062Y013271D01*
X083090Y013244D01*
X083115Y013214D01*
X083137Y013182D01*
X083155Y013148D01*
X083170Y013112D01*
X083182Y013075D01*
X083190Y013037D01*
X083194Y012998D01*
X083194Y012960D01*
X083190Y012921D01*
X083182Y012883D01*
X083170Y012846D01*
X083155Y012810D01*
X083137Y012776D01*
X083115Y012744D01*
X083090Y012714D01*
X083062Y012687D01*
X083032Y012662D01*
X082999Y012641D01*
X082964Y012624D01*
X082928Y012609D01*
X082891Y012599D01*
X082852Y012592D01*
X082814Y012589D01*
X082775Y012590D01*
X082736Y012595D01*
X082698Y012604D01*
X082662Y012616D01*
X082626Y012632D01*
X082592Y012651D01*
X082561Y012674D01*
X082532Y012700D01*
X082505Y012728D01*
X082482Y012759D01*
X082461Y012792D01*
X082445Y012828D01*
X082431Y012864D01*
X082422Y012902D01*
X082416Y012940D01*
X082414Y012979D01*
X082404Y012579D02*
X083204Y013379D01*
X036430Y012979D02*
X036432Y013018D01*
X036438Y013056D01*
X036447Y013094D01*
X036461Y013130D01*
X036477Y013166D01*
X036498Y013199D01*
X036521Y013230D01*
X036548Y013258D01*
X036577Y013284D01*
X036608Y013307D01*
X036642Y013326D01*
X036678Y013342D01*
X036714Y013354D01*
X036752Y013363D01*
X036791Y013368D01*
X036830Y013369D01*
X036868Y013366D01*
X036907Y013359D01*
X036944Y013349D01*
X036980Y013334D01*
X037015Y013317D01*
X037048Y013296D01*
X037078Y013271D01*
X037106Y013244D01*
X037131Y013214D01*
X037153Y013182D01*
X037171Y013148D01*
X037186Y013112D01*
X037198Y013075D01*
X037206Y013037D01*
X037210Y012998D01*
X037210Y012960D01*
X037206Y012921D01*
X037198Y012883D01*
X037186Y012846D01*
X037171Y012810D01*
X037153Y012776D01*
X037131Y012744D01*
X037106Y012714D01*
X037078Y012687D01*
X037048Y012662D01*
X037015Y012641D01*
X036980Y012624D01*
X036944Y012609D01*
X036907Y012599D01*
X036868Y012592D01*
X036830Y012589D01*
X036791Y012590D01*
X036752Y012595D01*
X036714Y012604D01*
X036678Y012616D01*
X036642Y012632D01*
X036608Y012651D01*
X036577Y012674D01*
X036548Y012700D01*
X036521Y012728D01*
X036498Y012759D01*
X036477Y012792D01*
X036461Y012828D01*
X036447Y012864D01*
X036438Y012902D01*
X036432Y012940D01*
X036430Y012979D01*
X036420Y012579D02*
X037220Y013379D01*
M02*
