G75*
G70*
%OFA0B0*%
%FSLAX24Y24*%
%IPPOS*%
%LPD*%
%AMOC8*
5,1,8,0,0,1.08239X$1,22.5*
%
%ADD10C,0.0010*%
D10*
X003257Y001956D02*
X003259Y001995D01*
X003265Y002033D01*
X003274Y002071D01*
X003288Y002107D01*
X003304Y002143D01*
X003325Y002176D01*
X003348Y002207D01*
X003375Y002235D01*
X003404Y002261D01*
X003435Y002284D01*
X003469Y002303D01*
X003505Y002319D01*
X003541Y002331D01*
X003579Y002340D01*
X003618Y002345D01*
X003657Y002346D01*
X003695Y002343D01*
X003734Y002336D01*
X003771Y002326D01*
X003807Y002311D01*
X003842Y002294D01*
X003875Y002273D01*
X003905Y002248D01*
X003933Y002221D01*
X003958Y002191D01*
X003980Y002159D01*
X003998Y002125D01*
X004013Y002089D01*
X004025Y002052D01*
X004033Y002014D01*
X004037Y001975D01*
X004037Y001937D01*
X004033Y001898D01*
X004025Y001860D01*
X004013Y001823D01*
X003998Y001787D01*
X003980Y001753D01*
X003958Y001721D01*
X003933Y001691D01*
X003905Y001664D01*
X003875Y001639D01*
X003842Y001618D01*
X003807Y001601D01*
X003771Y001586D01*
X003734Y001576D01*
X003695Y001569D01*
X003657Y001566D01*
X003618Y001567D01*
X003579Y001572D01*
X003541Y001581D01*
X003505Y001593D01*
X003469Y001609D01*
X003435Y001628D01*
X003404Y001651D01*
X003375Y001677D01*
X003348Y001705D01*
X003325Y001736D01*
X003304Y001769D01*
X003288Y001805D01*
X003274Y001841D01*
X003265Y001879D01*
X003259Y001917D01*
X003257Y001956D01*
X003247Y001556D02*
X004047Y002356D01*
X010501Y001956D02*
X010503Y001995D01*
X010509Y002033D01*
X010518Y002071D01*
X010532Y002107D01*
X010548Y002143D01*
X010569Y002176D01*
X010592Y002207D01*
X010619Y002235D01*
X010648Y002261D01*
X010679Y002284D01*
X010713Y002303D01*
X010749Y002319D01*
X010785Y002331D01*
X010823Y002340D01*
X010862Y002345D01*
X010901Y002346D01*
X010939Y002343D01*
X010978Y002336D01*
X011015Y002326D01*
X011051Y002311D01*
X011086Y002294D01*
X011119Y002273D01*
X011149Y002248D01*
X011177Y002221D01*
X011202Y002191D01*
X011224Y002159D01*
X011242Y002125D01*
X011257Y002089D01*
X011269Y002052D01*
X011277Y002014D01*
X011281Y001975D01*
X011281Y001937D01*
X011277Y001898D01*
X011269Y001860D01*
X011257Y001823D01*
X011242Y001787D01*
X011224Y001753D01*
X011202Y001721D01*
X011177Y001691D01*
X011149Y001664D01*
X011119Y001639D01*
X011086Y001618D01*
X011051Y001601D01*
X011015Y001586D01*
X010978Y001576D01*
X010939Y001569D01*
X010901Y001566D01*
X010862Y001567D01*
X010823Y001572D01*
X010785Y001581D01*
X010749Y001593D01*
X010713Y001609D01*
X010679Y001628D01*
X010648Y001651D01*
X010619Y001677D01*
X010592Y001705D01*
X010569Y001736D01*
X010548Y001769D01*
X010532Y001805D01*
X010518Y001841D01*
X010509Y001879D01*
X010503Y001917D01*
X010501Y001956D01*
X010491Y001556D02*
X011291Y002356D01*
X010501Y012979D02*
X010503Y013018D01*
X010509Y013056D01*
X010518Y013094D01*
X010532Y013130D01*
X010548Y013166D01*
X010569Y013199D01*
X010592Y013230D01*
X010619Y013258D01*
X010648Y013284D01*
X010679Y013307D01*
X010713Y013326D01*
X010749Y013342D01*
X010785Y013354D01*
X010823Y013363D01*
X010862Y013368D01*
X010901Y013369D01*
X010939Y013366D01*
X010978Y013359D01*
X011015Y013349D01*
X011051Y013334D01*
X011086Y013317D01*
X011119Y013296D01*
X011149Y013271D01*
X011177Y013244D01*
X011202Y013214D01*
X011224Y013182D01*
X011242Y013148D01*
X011257Y013112D01*
X011269Y013075D01*
X011277Y013037D01*
X011281Y012998D01*
X011281Y012960D01*
X011277Y012921D01*
X011269Y012883D01*
X011257Y012846D01*
X011242Y012810D01*
X011224Y012776D01*
X011202Y012744D01*
X011177Y012714D01*
X011149Y012687D01*
X011119Y012662D01*
X011086Y012641D01*
X011051Y012624D01*
X011015Y012609D01*
X010978Y012599D01*
X010939Y012592D01*
X010901Y012589D01*
X010862Y012590D01*
X010823Y012595D01*
X010785Y012604D01*
X010749Y012616D01*
X010713Y012632D01*
X010679Y012651D01*
X010648Y012674D01*
X010619Y012700D01*
X010592Y012728D01*
X010569Y012759D01*
X010548Y012792D01*
X010532Y012828D01*
X010518Y012864D01*
X010509Y012902D01*
X010503Y012940D01*
X010501Y012979D01*
X010491Y012579D02*
X011291Y013379D01*
X003257Y012979D02*
X003259Y013018D01*
X003265Y013056D01*
X003274Y013094D01*
X003288Y013130D01*
X003304Y013166D01*
X003325Y013199D01*
X003348Y013230D01*
X003375Y013258D01*
X003404Y013284D01*
X003435Y013307D01*
X003469Y013326D01*
X003505Y013342D01*
X003541Y013354D01*
X003579Y013363D01*
X003618Y013368D01*
X003657Y013369D01*
X003695Y013366D01*
X003734Y013359D01*
X003771Y013349D01*
X003807Y013334D01*
X003842Y013317D01*
X003875Y013296D01*
X003905Y013271D01*
X003933Y013244D01*
X003958Y013214D01*
X003980Y013182D01*
X003998Y013148D01*
X004013Y013112D01*
X004025Y013075D01*
X004033Y013037D01*
X004037Y012998D01*
X004037Y012960D01*
X004033Y012921D01*
X004025Y012883D01*
X004013Y012846D01*
X003998Y012810D01*
X003980Y012776D01*
X003958Y012744D01*
X003933Y012714D01*
X003905Y012687D01*
X003875Y012662D01*
X003842Y012641D01*
X003807Y012624D01*
X003771Y012609D01*
X003734Y012599D01*
X003695Y012592D01*
X003657Y012589D01*
X003618Y012590D01*
X003579Y012595D01*
X003541Y012604D01*
X003505Y012616D01*
X003469Y012632D01*
X003435Y012651D01*
X003404Y012674D01*
X003375Y012700D01*
X003348Y012728D01*
X003325Y012759D01*
X003304Y012792D01*
X003288Y012828D01*
X003274Y012864D01*
X003265Y012902D01*
X003259Y012940D01*
X003257Y012979D01*
X003247Y012579D02*
X004047Y013379D01*
M02*
