G75*
G70*
%OFA0B0*%
%FSLAX24Y24*%
%IPPOS*%
%LPD*%
%AMOC8*
5,1,8,0,0,1.08239X$1,22.5*
%
%ADD10C,0.0000*%
D10*
X000100Y000141D02*
X000100Y014806D01*
X014569Y014806D01*
X014569Y000141D01*
X000100Y000141D01*
X002860Y001956D02*
X002862Y002012D01*
X002868Y002067D01*
X002878Y002121D01*
X002891Y002175D01*
X002909Y002228D01*
X002930Y002279D01*
X002954Y002329D01*
X002982Y002377D01*
X003014Y002423D01*
X003048Y002467D01*
X003086Y002508D01*
X003126Y002546D01*
X003169Y002581D01*
X003214Y002613D01*
X003262Y002642D01*
X003311Y002668D01*
X003362Y002690D01*
X003414Y002708D01*
X003468Y002722D01*
X003523Y002733D01*
X003578Y002740D01*
X003633Y002743D01*
X003689Y002742D01*
X003744Y002737D01*
X003799Y002728D01*
X003853Y002716D01*
X003906Y002699D01*
X003958Y002679D01*
X004008Y002655D01*
X004056Y002628D01*
X004103Y002598D01*
X004147Y002564D01*
X004189Y002527D01*
X004227Y002487D01*
X004264Y002445D01*
X004297Y002400D01*
X004326Y002354D01*
X004353Y002305D01*
X004375Y002254D01*
X004395Y002202D01*
X004410Y002148D01*
X004422Y002094D01*
X004430Y002039D01*
X004434Y001984D01*
X004434Y001928D01*
X004430Y001873D01*
X004422Y001818D01*
X004410Y001764D01*
X004395Y001710D01*
X004375Y001658D01*
X004353Y001607D01*
X004326Y001558D01*
X004297Y001512D01*
X004264Y001467D01*
X004227Y001425D01*
X004189Y001385D01*
X004147Y001348D01*
X004103Y001314D01*
X004056Y001284D01*
X004008Y001257D01*
X003958Y001233D01*
X003906Y001213D01*
X003853Y001196D01*
X003799Y001184D01*
X003744Y001175D01*
X003689Y001170D01*
X003633Y001169D01*
X003578Y001172D01*
X003523Y001179D01*
X003468Y001190D01*
X003414Y001204D01*
X003362Y001222D01*
X003311Y001244D01*
X003262Y001270D01*
X003214Y001299D01*
X003169Y001331D01*
X003126Y001366D01*
X003086Y001404D01*
X003048Y001445D01*
X003014Y001489D01*
X002982Y001535D01*
X002954Y001583D01*
X002930Y001633D01*
X002909Y001684D01*
X002891Y001737D01*
X002878Y001791D01*
X002868Y001845D01*
X002862Y001900D01*
X002860Y001956D01*
X010104Y001956D02*
X010106Y002012D01*
X010112Y002067D01*
X010122Y002121D01*
X010135Y002175D01*
X010153Y002228D01*
X010174Y002279D01*
X010198Y002329D01*
X010226Y002377D01*
X010258Y002423D01*
X010292Y002467D01*
X010330Y002508D01*
X010370Y002546D01*
X010413Y002581D01*
X010458Y002613D01*
X010506Y002642D01*
X010555Y002668D01*
X010606Y002690D01*
X010658Y002708D01*
X010712Y002722D01*
X010767Y002733D01*
X010822Y002740D01*
X010877Y002743D01*
X010933Y002742D01*
X010988Y002737D01*
X011043Y002728D01*
X011097Y002716D01*
X011150Y002699D01*
X011202Y002679D01*
X011252Y002655D01*
X011300Y002628D01*
X011347Y002598D01*
X011391Y002564D01*
X011433Y002527D01*
X011471Y002487D01*
X011508Y002445D01*
X011541Y002400D01*
X011570Y002354D01*
X011597Y002305D01*
X011619Y002254D01*
X011639Y002202D01*
X011654Y002148D01*
X011666Y002094D01*
X011674Y002039D01*
X011678Y001984D01*
X011678Y001928D01*
X011674Y001873D01*
X011666Y001818D01*
X011654Y001764D01*
X011639Y001710D01*
X011619Y001658D01*
X011597Y001607D01*
X011570Y001558D01*
X011541Y001512D01*
X011508Y001467D01*
X011471Y001425D01*
X011433Y001385D01*
X011391Y001348D01*
X011347Y001314D01*
X011300Y001284D01*
X011252Y001257D01*
X011202Y001233D01*
X011150Y001213D01*
X011097Y001196D01*
X011043Y001184D01*
X010988Y001175D01*
X010933Y001170D01*
X010877Y001169D01*
X010822Y001172D01*
X010767Y001179D01*
X010712Y001190D01*
X010658Y001204D01*
X010606Y001222D01*
X010555Y001244D01*
X010506Y001270D01*
X010458Y001299D01*
X010413Y001331D01*
X010370Y001366D01*
X010330Y001404D01*
X010292Y001445D01*
X010258Y001489D01*
X010226Y001535D01*
X010198Y001583D01*
X010174Y001633D01*
X010153Y001684D01*
X010135Y001737D01*
X010122Y001791D01*
X010112Y001845D01*
X010106Y001900D01*
X010104Y001956D01*
X010104Y012979D02*
X010106Y013035D01*
X010112Y013090D01*
X010122Y013144D01*
X010135Y013198D01*
X010153Y013251D01*
X010174Y013302D01*
X010198Y013352D01*
X010226Y013400D01*
X010258Y013446D01*
X010292Y013490D01*
X010330Y013531D01*
X010370Y013569D01*
X010413Y013604D01*
X010458Y013636D01*
X010506Y013665D01*
X010555Y013691D01*
X010606Y013713D01*
X010658Y013731D01*
X010712Y013745D01*
X010767Y013756D01*
X010822Y013763D01*
X010877Y013766D01*
X010933Y013765D01*
X010988Y013760D01*
X011043Y013751D01*
X011097Y013739D01*
X011150Y013722D01*
X011202Y013702D01*
X011252Y013678D01*
X011300Y013651D01*
X011347Y013621D01*
X011391Y013587D01*
X011433Y013550D01*
X011471Y013510D01*
X011508Y013468D01*
X011541Y013423D01*
X011570Y013377D01*
X011597Y013328D01*
X011619Y013277D01*
X011639Y013225D01*
X011654Y013171D01*
X011666Y013117D01*
X011674Y013062D01*
X011678Y013007D01*
X011678Y012951D01*
X011674Y012896D01*
X011666Y012841D01*
X011654Y012787D01*
X011639Y012733D01*
X011619Y012681D01*
X011597Y012630D01*
X011570Y012581D01*
X011541Y012535D01*
X011508Y012490D01*
X011471Y012448D01*
X011433Y012408D01*
X011391Y012371D01*
X011347Y012337D01*
X011300Y012307D01*
X011252Y012280D01*
X011202Y012256D01*
X011150Y012236D01*
X011097Y012219D01*
X011043Y012207D01*
X010988Y012198D01*
X010933Y012193D01*
X010877Y012192D01*
X010822Y012195D01*
X010767Y012202D01*
X010712Y012213D01*
X010658Y012227D01*
X010606Y012245D01*
X010555Y012267D01*
X010506Y012293D01*
X010458Y012322D01*
X010413Y012354D01*
X010370Y012389D01*
X010330Y012427D01*
X010292Y012468D01*
X010258Y012512D01*
X010226Y012558D01*
X010198Y012606D01*
X010174Y012656D01*
X010153Y012707D01*
X010135Y012760D01*
X010122Y012814D01*
X010112Y012868D01*
X010106Y012923D01*
X010104Y012979D01*
X002860Y012979D02*
X002862Y013035D01*
X002868Y013090D01*
X002878Y013144D01*
X002891Y013198D01*
X002909Y013251D01*
X002930Y013302D01*
X002954Y013352D01*
X002982Y013400D01*
X003014Y013446D01*
X003048Y013490D01*
X003086Y013531D01*
X003126Y013569D01*
X003169Y013604D01*
X003214Y013636D01*
X003262Y013665D01*
X003311Y013691D01*
X003362Y013713D01*
X003414Y013731D01*
X003468Y013745D01*
X003523Y013756D01*
X003578Y013763D01*
X003633Y013766D01*
X003689Y013765D01*
X003744Y013760D01*
X003799Y013751D01*
X003853Y013739D01*
X003906Y013722D01*
X003958Y013702D01*
X004008Y013678D01*
X004056Y013651D01*
X004103Y013621D01*
X004147Y013587D01*
X004189Y013550D01*
X004227Y013510D01*
X004264Y013468D01*
X004297Y013423D01*
X004326Y013377D01*
X004353Y013328D01*
X004375Y013277D01*
X004395Y013225D01*
X004410Y013171D01*
X004422Y013117D01*
X004430Y013062D01*
X004434Y013007D01*
X004434Y012951D01*
X004430Y012896D01*
X004422Y012841D01*
X004410Y012787D01*
X004395Y012733D01*
X004375Y012681D01*
X004353Y012630D01*
X004326Y012581D01*
X004297Y012535D01*
X004264Y012490D01*
X004227Y012448D01*
X004189Y012408D01*
X004147Y012371D01*
X004103Y012337D01*
X004056Y012307D01*
X004008Y012280D01*
X003958Y012256D01*
X003906Y012236D01*
X003853Y012219D01*
X003799Y012207D01*
X003744Y012198D01*
X003689Y012193D01*
X003633Y012192D01*
X003578Y012195D01*
X003523Y012202D01*
X003468Y012213D01*
X003414Y012227D01*
X003362Y012245D01*
X003311Y012267D01*
X003262Y012293D01*
X003214Y012322D01*
X003169Y012354D01*
X003126Y012389D01*
X003086Y012427D01*
X003048Y012468D01*
X003014Y012512D01*
X002982Y012558D01*
X002954Y012606D01*
X002930Y012656D01*
X002909Y012707D01*
X002891Y012760D01*
X002878Y012814D01*
X002868Y012868D01*
X002862Y012923D01*
X002860Y012979D01*
M02*
