G75*
G70*
%OFA0B0*%
%FSLAX24Y24*%
%IPPOS*%
%LPD*%
%AMOC8*
5,1,8,0,0,1.08239X$1,22.5*
%
%ADD10C,0.0000*%
D10*
X000156Y000190D02*
X000156Y014806D01*
X014527Y014806D01*
X014527Y000190D01*
X000156Y000190D01*
X002818Y001956D02*
X002820Y002012D01*
X002826Y002067D01*
X002836Y002121D01*
X002849Y002175D01*
X002867Y002228D01*
X002888Y002279D01*
X002912Y002329D01*
X002940Y002377D01*
X002972Y002423D01*
X003006Y002467D01*
X003044Y002508D01*
X003084Y002546D01*
X003127Y002581D01*
X003172Y002613D01*
X003220Y002642D01*
X003269Y002668D01*
X003320Y002690D01*
X003372Y002708D01*
X003426Y002722D01*
X003481Y002733D01*
X003536Y002740D01*
X003591Y002743D01*
X003647Y002742D01*
X003702Y002737D01*
X003757Y002728D01*
X003811Y002716D01*
X003864Y002699D01*
X003916Y002679D01*
X003966Y002655D01*
X004014Y002628D01*
X004061Y002598D01*
X004105Y002564D01*
X004147Y002527D01*
X004185Y002487D01*
X004222Y002445D01*
X004255Y002400D01*
X004284Y002354D01*
X004311Y002305D01*
X004333Y002254D01*
X004353Y002202D01*
X004368Y002148D01*
X004380Y002094D01*
X004388Y002039D01*
X004392Y001984D01*
X004392Y001928D01*
X004388Y001873D01*
X004380Y001818D01*
X004368Y001764D01*
X004353Y001710D01*
X004333Y001658D01*
X004311Y001607D01*
X004284Y001558D01*
X004255Y001512D01*
X004222Y001467D01*
X004185Y001425D01*
X004147Y001385D01*
X004105Y001348D01*
X004061Y001314D01*
X004014Y001284D01*
X003966Y001257D01*
X003916Y001233D01*
X003864Y001213D01*
X003811Y001196D01*
X003757Y001184D01*
X003702Y001175D01*
X003647Y001170D01*
X003591Y001169D01*
X003536Y001172D01*
X003481Y001179D01*
X003426Y001190D01*
X003372Y001204D01*
X003320Y001222D01*
X003269Y001244D01*
X003220Y001270D01*
X003172Y001299D01*
X003127Y001331D01*
X003084Y001366D01*
X003044Y001404D01*
X003006Y001445D01*
X002972Y001489D01*
X002940Y001535D01*
X002912Y001583D01*
X002888Y001633D01*
X002867Y001684D01*
X002849Y001737D01*
X002836Y001791D01*
X002826Y001845D01*
X002820Y001900D01*
X002818Y001956D01*
X000551Y006095D02*
X000553Y006151D01*
X000559Y006206D01*
X000569Y006260D01*
X000582Y006314D01*
X000600Y006367D01*
X000621Y006418D01*
X000645Y006468D01*
X000673Y006516D01*
X000705Y006562D01*
X000739Y006606D01*
X000777Y006647D01*
X000817Y006685D01*
X000860Y006720D01*
X000905Y006752D01*
X000953Y006781D01*
X001002Y006807D01*
X001053Y006829D01*
X001105Y006847D01*
X001159Y006861D01*
X001214Y006872D01*
X001269Y006879D01*
X001324Y006882D01*
X001380Y006881D01*
X001435Y006876D01*
X001490Y006867D01*
X001544Y006855D01*
X001597Y006838D01*
X001649Y006818D01*
X001699Y006794D01*
X001747Y006767D01*
X001794Y006737D01*
X001838Y006703D01*
X001880Y006666D01*
X001918Y006626D01*
X001955Y006584D01*
X001988Y006539D01*
X002017Y006493D01*
X002044Y006444D01*
X002066Y006393D01*
X002086Y006341D01*
X002101Y006287D01*
X002113Y006233D01*
X002121Y006178D01*
X002125Y006123D01*
X002125Y006067D01*
X002121Y006012D01*
X002113Y005957D01*
X002101Y005903D01*
X002086Y005849D01*
X002066Y005797D01*
X002044Y005746D01*
X002017Y005697D01*
X001988Y005651D01*
X001955Y005606D01*
X001918Y005564D01*
X001880Y005524D01*
X001838Y005487D01*
X001794Y005453D01*
X001747Y005423D01*
X001699Y005396D01*
X001649Y005372D01*
X001597Y005352D01*
X001544Y005335D01*
X001490Y005323D01*
X001435Y005314D01*
X001380Y005309D01*
X001324Y005308D01*
X001269Y005311D01*
X001214Y005318D01*
X001159Y005329D01*
X001105Y005343D01*
X001053Y005361D01*
X001002Y005383D01*
X000953Y005409D01*
X000905Y005438D01*
X000860Y005470D01*
X000817Y005505D01*
X000777Y005543D01*
X000739Y005584D01*
X000705Y005628D01*
X000673Y005674D01*
X000645Y005722D01*
X000621Y005772D01*
X000600Y005823D01*
X000582Y005876D01*
X000569Y005930D01*
X000559Y005984D01*
X000553Y006039D01*
X000551Y006095D01*
X000551Y008851D02*
X000553Y008907D01*
X000559Y008962D01*
X000569Y009016D01*
X000582Y009070D01*
X000600Y009123D01*
X000621Y009174D01*
X000645Y009224D01*
X000673Y009272D01*
X000705Y009318D01*
X000739Y009362D01*
X000777Y009403D01*
X000817Y009441D01*
X000860Y009476D01*
X000905Y009508D01*
X000953Y009537D01*
X001002Y009563D01*
X001053Y009585D01*
X001105Y009603D01*
X001159Y009617D01*
X001214Y009628D01*
X001269Y009635D01*
X001324Y009638D01*
X001380Y009637D01*
X001435Y009632D01*
X001490Y009623D01*
X001544Y009611D01*
X001597Y009594D01*
X001649Y009574D01*
X001699Y009550D01*
X001747Y009523D01*
X001794Y009493D01*
X001838Y009459D01*
X001880Y009422D01*
X001918Y009382D01*
X001955Y009340D01*
X001988Y009295D01*
X002017Y009249D01*
X002044Y009200D01*
X002066Y009149D01*
X002086Y009097D01*
X002101Y009043D01*
X002113Y008989D01*
X002121Y008934D01*
X002125Y008879D01*
X002125Y008823D01*
X002121Y008768D01*
X002113Y008713D01*
X002101Y008659D01*
X002086Y008605D01*
X002066Y008553D01*
X002044Y008502D01*
X002017Y008453D01*
X001988Y008407D01*
X001955Y008362D01*
X001918Y008320D01*
X001880Y008280D01*
X001838Y008243D01*
X001794Y008209D01*
X001747Y008179D01*
X001699Y008152D01*
X001649Y008128D01*
X001597Y008108D01*
X001544Y008091D01*
X001490Y008079D01*
X001435Y008070D01*
X001380Y008065D01*
X001324Y008064D01*
X001269Y008067D01*
X001214Y008074D01*
X001159Y008085D01*
X001105Y008099D01*
X001053Y008117D01*
X001002Y008139D01*
X000953Y008165D01*
X000905Y008194D01*
X000860Y008226D01*
X000817Y008261D01*
X000777Y008299D01*
X000739Y008340D01*
X000705Y008384D01*
X000673Y008430D01*
X000645Y008478D01*
X000621Y008528D01*
X000600Y008579D01*
X000582Y008632D01*
X000569Y008686D01*
X000559Y008740D01*
X000553Y008795D01*
X000551Y008851D01*
X002818Y012979D02*
X002820Y013035D01*
X002826Y013090D01*
X002836Y013144D01*
X002849Y013198D01*
X002867Y013251D01*
X002888Y013302D01*
X002912Y013352D01*
X002940Y013400D01*
X002972Y013446D01*
X003006Y013490D01*
X003044Y013531D01*
X003084Y013569D01*
X003127Y013604D01*
X003172Y013636D01*
X003220Y013665D01*
X003269Y013691D01*
X003320Y013713D01*
X003372Y013731D01*
X003426Y013745D01*
X003481Y013756D01*
X003536Y013763D01*
X003591Y013766D01*
X003647Y013765D01*
X003702Y013760D01*
X003757Y013751D01*
X003811Y013739D01*
X003864Y013722D01*
X003916Y013702D01*
X003966Y013678D01*
X004014Y013651D01*
X004061Y013621D01*
X004105Y013587D01*
X004147Y013550D01*
X004185Y013510D01*
X004222Y013468D01*
X004255Y013423D01*
X004284Y013377D01*
X004311Y013328D01*
X004333Y013277D01*
X004353Y013225D01*
X004368Y013171D01*
X004380Y013117D01*
X004388Y013062D01*
X004392Y013007D01*
X004392Y012951D01*
X004388Y012896D01*
X004380Y012841D01*
X004368Y012787D01*
X004353Y012733D01*
X004333Y012681D01*
X004311Y012630D01*
X004284Y012581D01*
X004255Y012535D01*
X004222Y012490D01*
X004185Y012448D01*
X004147Y012408D01*
X004105Y012371D01*
X004061Y012337D01*
X004014Y012307D01*
X003966Y012280D01*
X003916Y012256D01*
X003864Y012236D01*
X003811Y012219D01*
X003757Y012207D01*
X003702Y012198D01*
X003647Y012193D01*
X003591Y012192D01*
X003536Y012195D01*
X003481Y012202D01*
X003426Y012213D01*
X003372Y012227D01*
X003320Y012245D01*
X003269Y012267D01*
X003220Y012293D01*
X003172Y012322D01*
X003127Y012354D01*
X003084Y012389D01*
X003044Y012427D01*
X003006Y012468D01*
X002972Y012512D01*
X002940Y012558D01*
X002912Y012606D01*
X002888Y012656D01*
X002867Y012707D01*
X002849Y012760D01*
X002836Y012814D01*
X002826Y012868D01*
X002820Y012923D01*
X002818Y012979D01*
X010062Y012979D02*
X010064Y013035D01*
X010070Y013090D01*
X010080Y013144D01*
X010093Y013198D01*
X010111Y013251D01*
X010132Y013302D01*
X010156Y013352D01*
X010184Y013400D01*
X010216Y013446D01*
X010250Y013490D01*
X010288Y013531D01*
X010328Y013569D01*
X010371Y013604D01*
X010416Y013636D01*
X010464Y013665D01*
X010513Y013691D01*
X010564Y013713D01*
X010616Y013731D01*
X010670Y013745D01*
X010725Y013756D01*
X010780Y013763D01*
X010835Y013766D01*
X010891Y013765D01*
X010946Y013760D01*
X011001Y013751D01*
X011055Y013739D01*
X011108Y013722D01*
X011160Y013702D01*
X011210Y013678D01*
X011258Y013651D01*
X011305Y013621D01*
X011349Y013587D01*
X011391Y013550D01*
X011429Y013510D01*
X011466Y013468D01*
X011499Y013423D01*
X011528Y013377D01*
X011555Y013328D01*
X011577Y013277D01*
X011597Y013225D01*
X011612Y013171D01*
X011624Y013117D01*
X011632Y013062D01*
X011636Y013007D01*
X011636Y012951D01*
X011632Y012896D01*
X011624Y012841D01*
X011612Y012787D01*
X011597Y012733D01*
X011577Y012681D01*
X011555Y012630D01*
X011528Y012581D01*
X011499Y012535D01*
X011466Y012490D01*
X011429Y012448D01*
X011391Y012408D01*
X011349Y012371D01*
X011305Y012337D01*
X011258Y012307D01*
X011210Y012280D01*
X011160Y012256D01*
X011108Y012236D01*
X011055Y012219D01*
X011001Y012207D01*
X010946Y012198D01*
X010891Y012193D01*
X010835Y012192D01*
X010780Y012195D01*
X010725Y012202D01*
X010670Y012213D01*
X010616Y012227D01*
X010564Y012245D01*
X010513Y012267D01*
X010464Y012293D01*
X010416Y012322D01*
X010371Y012354D01*
X010328Y012389D01*
X010288Y012427D01*
X010250Y012468D01*
X010216Y012512D01*
X010184Y012558D01*
X010156Y012606D01*
X010132Y012656D01*
X010111Y012707D01*
X010093Y012760D01*
X010080Y012814D01*
X010070Y012868D01*
X010064Y012923D01*
X010062Y012979D01*
X010062Y001956D02*
X010064Y002012D01*
X010070Y002067D01*
X010080Y002121D01*
X010093Y002175D01*
X010111Y002228D01*
X010132Y002279D01*
X010156Y002329D01*
X010184Y002377D01*
X010216Y002423D01*
X010250Y002467D01*
X010288Y002508D01*
X010328Y002546D01*
X010371Y002581D01*
X010416Y002613D01*
X010464Y002642D01*
X010513Y002668D01*
X010564Y002690D01*
X010616Y002708D01*
X010670Y002722D01*
X010725Y002733D01*
X010780Y002740D01*
X010835Y002743D01*
X010891Y002742D01*
X010946Y002737D01*
X011001Y002728D01*
X011055Y002716D01*
X011108Y002699D01*
X011160Y002679D01*
X011210Y002655D01*
X011258Y002628D01*
X011305Y002598D01*
X011349Y002564D01*
X011391Y002527D01*
X011429Y002487D01*
X011466Y002445D01*
X011499Y002400D01*
X011528Y002354D01*
X011555Y002305D01*
X011577Y002254D01*
X011597Y002202D01*
X011612Y002148D01*
X011624Y002094D01*
X011632Y002039D01*
X011636Y001984D01*
X011636Y001928D01*
X011632Y001873D01*
X011624Y001818D01*
X011612Y001764D01*
X011597Y001710D01*
X011577Y001658D01*
X011555Y001607D01*
X011528Y001558D01*
X011499Y001512D01*
X011466Y001467D01*
X011429Y001425D01*
X011391Y001385D01*
X011349Y001348D01*
X011305Y001314D01*
X011258Y001284D01*
X011210Y001257D01*
X011160Y001233D01*
X011108Y001213D01*
X011055Y001196D01*
X011001Y001184D01*
X010946Y001175D01*
X010891Y001170D01*
X010835Y001169D01*
X010780Y001172D01*
X010725Y001179D01*
X010670Y001190D01*
X010616Y001204D01*
X010564Y001222D01*
X010513Y001244D01*
X010464Y001270D01*
X010416Y001299D01*
X010371Y001331D01*
X010328Y001366D01*
X010288Y001404D01*
X010250Y001445D01*
X010216Y001489D01*
X010184Y001535D01*
X010156Y001583D01*
X010132Y001633D01*
X010111Y001684D01*
X010093Y001737D01*
X010080Y001791D01*
X010070Y001845D01*
X010064Y001900D01*
X010062Y001956D01*
M02*
