G75*
G70*
%OFA0B0*%
%FSLAX24Y24*%
%IPPOS*%
%LPD*%
%AMOC8*
5,1,8,0,0,1.08239X$1,22.5*
%
%ADD10R,0.0709X0.0630*%
%ADD11C,0.0512*%
%ADD12R,0.0630X0.0709*%
%ADD13R,0.0630X0.0512*%
%ADD14R,0.0236X0.0866*%
%ADD15R,0.2362X0.2756*%
%ADD16C,0.0197*%
%ADD17C,0.0394*%
D10*
X024135Y004293D03*
X024135Y005395D03*
X022167Y007443D03*
X022167Y008545D03*
D11*
X018210Y008230D02*
X018210Y007758D01*
X017462Y007758D02*
X017462Y008230D01*
D12*
X021616Y005435D03*
X022718Y005435D03*
D13*
X018230Y010376D03*
X018230Y011124D03*
D14*
X023385Y009017D03*
X023885Y009017D03*
X024385Y009017D03*
X024885Y009017D03*
X024885Y006970D03*
X024385Y006970D03*
X023885Y006970D03*
X023385Y006970D03*
D15*
X001694Y003218D03*
X001694Y007840D03*
X001694Y012466D03*
X060356Y012466D03*
X060356Y007840D03*
X060356Y003218D03*
D16*
X032009Y007994D02*
X024529Y007994D01*
X024385Y007850D01*
X024385Y006970D01*
X024385Y006275D01*
X024135Y006025D01*
X024135Y005395D01*
X024096Y005435D01*
X024096Y005277D01*
X024135Y005238D01*
X024096Y005277D02*
X023978Y005395D01*
X024096Y005435D02*
X022718Y005435D01*
X021616Y005435D02*
X019214Y005435D01*
X018230Y006419D01*
X018230Y007974D01*
X018210Y007994D01*
X018230Y007994D02*
X018230Y010376D01*
X018230Y011124D02*
X018230Y013506D01*
X022167Y013506D02*
X022167Y008545D01*
X023385Y009017D02*
X023385Y013468D01*
X023348Y013506D01*
X017462Y007994D02*
X017462Y002895D01*
X017443Y002482D01*
X022167Y002482D02*
X022167Y007443D01*
X023385Y006970D02*
X023885Y006970D01*
X024885Y006970D02*
X024923Y006970D01*
X024923Y002482D01*
X024135Y002482D02*
X024135Y004293D01*
D17*
X024135Y002482D02*
X022167Y002482D01*
X017443Y002482D01*
X016261Y002482D01*
X016261Y005238D01*
X001694Y005238D01*
X001694Y003218D01*
X024135Y002482D02*
X024923Y002482D01*
X032009Y002482D01*
X032009Y005238D01*
X060356Y005238D01*
X060356Y003218D01*
X060356Y007600D02*
X060356Y007994D01*
X032009Y007994D01*
X032009Y010356D02*
X060356Y010356D01*
X060356Y012466D01*
X032009Y013506D02*
X032009Y010356D01*
X032009Y013506D02*
X023348Y013506D01*
X022167Y013506D01*
X018230Y013506D01*
X016261Y013506D01*
X016261Y010356D01*
X001694Y010356D01*
X001694Y012466D01*
M02*
