G75*
G70*
%OFA0B0*%
%FSLAX24Y24*%
%IPPOS*%
%LPD*%
%AMOC8*
5,1,8,0,0,1.08239X$1,22.5*
%
%ADD10C,0.0000*%
D10*
X000156Y000190D02*
X000156Y014806D01*
X014527Y014806D01*
X014527Y000190D01*
X000156Y000190D01*
X002818Y001956D02*
X002820Y002012D01*
X002826Y002067D01*
X002836Y002121D01*
X002849Y002175D01*
X002867Y002228D01*
X002888Y002279D01*
X002912Y002329D01*
X002940Y002377D01*
X002972Y002423D01*
X003006Y002467D01*
X003044Y002508D01*
X003084Y002546D01*
X003127Y002581D01*
X003172Y002613D01*
X003220Y002642D01*
X003269Y002668D01*
X003320Y002690D01*
X003372Y002708D01*
X003426Y002722D01*
X003481Y002733D01*
X003536Y002740D01*
X003591Y002743D01*
X003647Y002742D01*
X003702Y002737D01*
X003757Y002728D01*
X003811Y002716D01*
X003864Y002699D01*
X003916Y002679D01*
X003966Y002655D01*
X004014Y002628D01*
X004061Y002598D01*
X004105Y002564D01*
X004147Y002527D01*
X004185Y002487D01*
X004222Y002445D01*
X004255Y002400D01*
X004284Y002354D01*
X004311Y002305D01*
X004333Y002254D01*
X004353Y002202D01*
X004368Y002148D01*
X004380Y002094D01*
X004388Y002039D01*
X004392Y001984D01*
X004392Y001928D01*
X004388Y001873D01*
X004380Y001818D01*
X004368Y001764D01*
X004353Y001710D01*
X004333Y001658D01*
X004311Y001607D01*
X004284Y001558D01*
X004255Y001512D01*
X004222Y001467D01*
X004185Y001425D01*
X004147Y001385D01*
X004105Y001348D01*
X004061Y001314D01*
X004014Y001284D01*
X003966Y001257D01*
X003916Y001233D01*
X003864Y001213D01*
X003811Y001196D01*
X003757Y001184D01*
X003702Y001175D01*
X003647Y001170D01*
X003591Y001169D01*
X003536Y001172D01*
X003481Y001179D01*
X003426Y001190D01*
X003372Y001204D01*
X003320Y001222D01*
X003269Y001244D01*
X003220Y001270D01*
X003172Y001299D01*
X003127Y001331D01*
X003084Y001366D01*
X003044Y001404D01*
X003006Y001445D01*
X002972Y001489D01*
X002940Y001535D01*
X002912Y001583D01*
X002888Y001633D01*
X002867Y001684D01*
X002849Y001737D01*
X002836Y001791D01*
X002826Y001845D01*
X002820Y001900D01*
X002818Y001956D01*
X010062Y001956D02*
X010064Y002012D01*
X010070Y002067D01*
X010080Y002121D01*
X010093Y002175D01*
X010111Y002228D01*
X010132Y002279D01*
X010156Y002329D01*
X010184Y002377D01*
X010216Y002423D01*
X010250Y002467D01*
X010288Y002508D01*
X010328Y002546D01*
X010371Y002581D01*
X010416Y002613D01*
X010464Y002642D01*
X010513Y002668D01*
X010564Y002690D01*
X010616Y002708D01*
X010670Y002722D01*
X010725Y002733D01*
X010780Y002740D01*
X010835Y002743D01*
X010891Y002742D01*
X010946Y002737D01*
X011001Y002728D01*
X011055Y002716D01*
X011108Y002699D01*
X011160Y002679D01*
X011210Y002655D01*
X011258Y002628D01*
X011305Y002598D01*
X011349Y002564D01*
X011391Y002527D01*
X011429Y002487D01*
X011466Y002445D01*
X011499Y002400D01*
X011528Y002354D01*
X011555Y002305D01*
X011577Y002254D01*
X011597Y002202D01*
X011612Y002148D01*
X011624Y002094D01*
X011632Y002039D01*
X011636Y001984D01*
X011636Y001928D01*
X011632Y001873D01*
X011624Y001818D01*
X011612Y001764D01*
X011597Y001710D01*
X011577Y001658D01*
X011555Y001607D01*
X011528Y001558D01*
X011499Y001512D01*
X011466Y001467D01*
X011429Y001425D01*
X011391Y001385D01*
X011349Y001348D01*
X011305Y001314D01*
X011258Y001284D01*
X011210Y001257D01*
X011160Y001233D01*
X011108Y001213D01*
X011055Y001196D01*
X011001Y001184D01*
X010946Y001175D01*
X010891Y001170D01*
X010835Y001169D01*
X010780Y001172D01*
X010725Y001179D01*
X010670Y001190D01*
X010616Y001204D01*
X010564Y001222D01*
X010513Y001244D01*
X010464Y001270D01*
X010416Y001299D01*
X010371Y001331D01*
X010328Y001366D01*
X010288Y001404D01*
X010250Y001445D01*
X010216Y001489D01*
X010184Y001535D01*
X010156Y001583D01*
X010132Y001633D01*
X010111Y001684D01*
X010093Y001737D01*
X010080Y001791D01*
X010070Y001845D01*
X010064Y001900D01*
X010062Y001956D01*
X010062Y012979D02*
X010064Y013035D01*
X010070Y013090D01*
X010080Y013144D01*
X010093Y013198D01*
X010111Y013251D01*
X010132Y013302D01*
X010156Y013352D01*
X010184Y013400D01*
X010216Y013446D01*
X010250Y013490D01*
X010288Y013531D01*
X010328Y013569D01*
X010371Y013604D01*
X010416Y013636D01*
X010464Y013665D01*
X010513Y013691D01*
X010564Y013713D01*
X010616Y013731D01*
X010670Y013745D01*
X010725Y013756D01*
X010780Y013763D01*
X010835Y013766D01*
X010891Y013765D01*
X010946Y013760D01*
X011001Y013751D01*
X011055Y013739D01*
X011108Y013722D01*
X011160Y013702D01*
X011210Y013678D01*
X011258Y013651D01*
X011305Y013621D01*
X011349Y013587D01*
X011391Y013550D01*
X011429Y013510D01*
X011466Y013468D01*
X011499Y013423D01*
X011528Y013377D01*
X011555Y013328D01*
X011577Y013277D01*
X011597Y013225D01*
X011612Y013171D01*
X011624Y013117D01*
X011632Y013062D01*
X011636Y013007D01*
X011636Y012951D01*
X011632Y012896D01*
X011624Y012841D01*
X011612Y012787D01*
X011597Y012733D01*
X011577Y012681D01*
X011555Y012630D01*
X011528Y012581D01*
X011499Y012535D01*
X011466Y012490D01*
X011429Y012448D01*
X011391Y012408D01*
X011349Y012371D01*
X011305Y012337D01*
X011258Y012307D01*
X011210Y012280D01*
X011160Y012256D01*
X011108Y012236D01*
X011055Y012219D01*
X011001Y012207D01*
X010946Y012198D01*
X010891Y012193D01*
X010835Y012192D01*
X010780Y012195D01*
X010725Y012202D01*
X010670Y012213D01*
X010616Y012227D01*
X010564Y012245D01*
X010513Y012267D01*
X010464Y012293D01*
X010416Y012322D01*
X010371Y012354D01*
X010328Y012389D01*
X010288Y012427D01*
X010250Y012468D01*
X010216Y012512D01*
X010184Y012558D01*
X010156Y012606D01*
X010132Y012656D01*
X010111Y012707D01*
X010093Y012760D01*
X010080Y012814D01*
X010070Y012868D01*
X010064Y012923D01*
X010062Y012979D01*
X002818Y012979D02*
X002820Y013035D01*
X002826Y013090D01*
X002836Y013144D01*
X002849Y013198D01*
X002867Y013251D01*
X002888Y013302D01*
X002912Y013352D01*
X002940Y013400D01*
X002972Y013446D01*
X003006Y013490D01*
X003044Y013531D01*
X003084Y013569D01*
X003127Y013604D01*
X003172Y013636D01*
X003220Y013665D01*
X003269Y013691D01*
X003320Y013713D01*
X003372Y013731D01*
X003426Y013745D01*
X003481Y013756D01*
X003536Y013763D01*
X003591Y013766D01*
X003647Y013765D01*
X003702Y013760D01*
X003757Y013751D01*
X003811Y013739D01*
X003864Y013722D01*
X003916Y013702D01*
X003966Y013678D01*
X004014Y013651D01*
X004061Y013621D01*
X004105Y013587D01*
X004147Y013550D01*
X004185Y013510D01*
X004222Y013468D01*
X004255Y013423D01*
X004284Y013377D01*
X004311Y013328D01*
X004333Y013277D01*
X004353Y013225D01*
X004368Y013171D01*
X004380Y013117D01*
X004388Y013062D01*
X004392Y013007D01*
X004392Y012951D01*
X004388Y012896D01*
X004380Y012841D01*
X004368Y012787D01*
X004353Y012733D01*
X004333Y012681D01*
X004311Y012630D01*
X004284Y012581D01*
X004255Y012535D01*
X004222Y012490D01*
X004185Y012448D01*
X004147Y012408D01*
X004105Y012371D01*
X004061Y012337D01*
X004014Y012307D01*
X003966Y012280D01*
X003916Y012256D01*
X003864Y012236D01*
X003811Y012219D01*
X003757Y012207D01*
X003702Y012198D01*
X003647Y012193D01*
X003591Y012192D01*
X003536Y012195D01*
X003481Y012202D01*
X003426Y012213D01*
X003372Y012227D01*
X003320Y012245D01*
X003269Y012267D01*
X003220Y012293D01*
X003172Y012322D01*
X003127Y012354D01*
X003084Y012389D01*
X003044Y012427D01*
X003006Y012468D01*
X002972Y012512D01*
X002940Y012558D01*
X002912Y012606D01*
X002888Y012656D01*
X002867Y012707D01*
X002849Y012760D01*
X002836Y012814D01*
X002826Y012868D01*
X002820Y012923D01*
X002818Y012979D01*
M02*
