<?xml version="1.0" encoding="utf-8"?>
<!-- Generator: Adobe Illustrator 16.0.0, SVG Export Plug-In . SVG Version: 6.00 Build 0)  -->
<!DOCTYPE svg PUBLIC "-//W3C//DTD SVG 1.1//EN" "http://www.w3.org/Graphics/SVG/1.1/DTD/svg11.dtd">
<svg version="1.1" id="Layer_1" xmlns="http://www.w3.org/2000/svg" xmlns:xlink="http://www.w3.org/1999/xlink" x="0px" y="0px"
	 width="425.2px" height="425.2px" viewBox="0 0 425.2 425.2" enable-background="new 0 0 425.2 425.2" xml:space="preserve">
<polygon fill="none" stroke="#000000" stroke-miterlimit="10" points="113.386,113.386 113.386,226.771 0,228.189 0,340.158 
	453.543,340.158 453.543,226.771 566.93,225.354 566.93,114.803 453.543,113.386 453.543,0 0,0 0,111.969 "/>
<circle fill="none" stroke="#000000" stroke-miterlimit="10" cx="184.252" cy="28.347" r="14.173"/>
<circle fill="none" stroke="#000000" stroke-miterlimit="10" cx="425.197" cy="70.866" r="14.173"/>
<circle fill="none" stroke="#000000" stroke-miterlimit="10" cx="141.732" cy="269.292" r="14.173"/>
<circle fill="none" stroke="#000000" stroke-miterlimit="10" cx="382.677" cy="311.811" r="14.173"/>
<circle fill="none" stroke="#000000" stroke-miterlimit="10" cx="141.732" cy="28.347" r="11.339"/>
<circle fill="none" stroke="#000000" stroke-miterlimit="10" cx="425.197" cy="28.347" r="11.339"/>
<circle fill="none" stroke="#000000" stroke-miterlimit="10" cx="141.732" cy="311.812" r="11.339"/>
<circle fill="none" stroke="#000000" stroke-miterlimit="10" cx="425.197" cy="311.812" r="11.339"/>
<circle fill="none" stroke="#000000" stroke-miterlimit="10" cx="141.732" cy="212.599" r="11.339"/>
<circle fill="none" stroke="#000000" stroke-miterlimit="10" cx="425.197" cy="212.6" r="11.339"/>
<circle fill="none" stroke="#000000" stroke-miterlimit="10" cx="141.732" cy="127.56" r="11.339"/>
<circle fill="none" stroke="#000000" stroke-miterlimit="10" cx="170.079" cy="170.08" r="5.669"/>
<circle fill="none" stroke="#000000" stroke-miterlimit="10" cx="396.85" cy="170.079" r="5.669"/>
<circle fill="none" stroke="#000000" stroke-miterlimit="10" cx="170.079" cy="538.584" r="5.669"/>
<circle fill="none" stroke="#000000" stroke-miterlimit="10" cx="396.85" cy="538.584" r="5.669"/>
<circle fill="none" stroke="#000000" stroke-miterlimit="10" cx="425.197" cy="127.561" r="11.339"/>
<polygon fill="none" stroke="#000000" stroke-miterlimit="10" points="113.386,481.89 113.386,595.275 0,596.693 0,708.662 
	453.543,708.662 453.543,595.275 566.93,593.858 566.93,483.308 453.543,481.89 453.543,368.504 0,368.504 0,480.473 "/>
<circle fill="none" stroke="#000000" stroke-miterlimit="10" cx="141.732" cy="396.851" r="5.669"/>
<circle fill="none" stroke="#000000" stroke-miterlimit="10" cx="141.732" cy="496.063" r="5.669"/>
<circle fill="none" stroke="#000000" stroke-miterlimit="10" cx="141.732" cy="581.103" r="5.669"/>
<circle fill="none" stroke="#000000" stroke-miterlimit="10" cx="425.197" cy="496.063" r="5.669"/>
<circle fill="none" stroke="#000000" stroke-miterlimit="10" cx="425.197" cy="581.103" r="5.669"/>
<circle fill="none" stroke="#000000" stroke-miterlimit="10" cx="425.197" cy="396.851" r="5.669"/>
<circle fill="none" stroke="#000000" stroke-miterlimit="10" cx="141.732" cy="680.315" r="5.669"/>
<circle fill="none" stroke="#000000" stroke-miterlimit="10" cx="425.197" cy="680.316" r="5.669"/>
</svg>
